InterAlia-Bold.ufo
<glyph name="exclam" format="2">
  <advance height="2479.0" width="664.2"/>
  <unicode hex="0021"/>
  <outline>
    <contour>
      <point x="493.8" y="1489.0" type="line"/>
      <point x="170.4" y="1489.0" type="line"/>
      <point x="199.2" y="446.6" type="line"/>
      <point x="465.0" y="446.6" type="line"/>
    </contour>
    <component base="period" xOffset="27.599999999999998"/>
  </outline>
</glyph>
<glyph name="numbersign" format="2">
  <advance height="2479.0" width="1330.4"/>
  <unicode hex="0023"/>
  <outline>
    <contour>
      <point x="688.4" y="0.0" type="line"/>
      <point x="921.0" y="0.0" type="line"/>
      <point x="1165.4" y="1489.0" type="line"/>
      <point x="932.4" y="1489.0" type="line"/>
    </contour>
    <contour>
      <point x="21.200000000000003" y="369.2" type="line"/>
      <point x="1184.4" y="369.2" type="line"/>
      <point x="1223.6" y="602.2" type="line"/>
      <point x="59.8" y="602.2" type="line"/>
    </contour>
    <contour>
      <point x="164.4" y="0.0" type="line"/>
      <point x="397.4" y="0.0" type="line"/>
      <point x="642.0" y="1489.0" type="line"/>
      <point x="409.0" y="1489.0" type="line"/>
    </contour>
    <contour>
      <point x="106.4" y="887.2" type="line"/>
      <point x="1270.2" y="887.2" type="line"/>
      <point x="1309.2" y="1119.8" type="line"/>
      <point x="145.0" y="1119.8" type="line"/>
    </contour>
  </outline>
</glyph>
<glyph name="dollar" format="2">
  <advance height="2479.0" width="1340.8"/>
  <unicode hex="0024"/>
  <anchor x="675.4" y="-10.4" name="bottom"/>
  <anchor x="674.2" y="0.0" name="cedilla"/>
  <anchor x="671.2" y="1676.0" name="top"/>
  <outline>
    <contour>
      <point x="621.2" y="-186.0" type="line"/>
      <point x="740.6" y="-186.0" type="line"/>
      <point x="740.6" y="1676.0" type="line"/>
      <point x="621.2" y="1676.0" type="line"/>
    </contour>
    <component base="S"/>
  </outline>
</glyph>
<glyph name="percent" format="2">
  <advance height="2479.0" width="1760.0"/>
  <unicode hex="0025"/>
  <anchor x="1121.4" y="791.0" name="dnom"/>
  <anchor x="629.6" y="698.0" name="numr"/>
  <outline>
    <contour>
      <point x="935.8" y="279.0" type="line" smooth="yes"/>
      <point x="935.8" y="100.4"/>
      <point x="1051.0" y="-51.8"/>
      <point x="1263.4" y="-51.8" type="curve" smooth="yes"/>
      <point x="1475.6" y="-51.8"/>
      <point x="1591.6" y="100.4"/>
      <point x="1591.6" y="279.0" type="curve" smooth="yes"/>
      <point x="1591.6" y="358.0" type="line" smooth="yes"/>
      <point x="1591.6" y="538.4"/>
      <point x="1478.2" y="688.8"/>
      <point x="1263.4" y="688.8" type="curve" smooth="yes"/>
      <point x="1054.0" y="688.8"/>
      <point x="935.8" y="536.6"/>
      <point x="935.8" y="358.0" type="curve" smooth="yes"/>
    </contour>
    <contour>
      <point x="1147.2" y="358.0" type="line" smooth="yes"/>
      <point x="1147.2" y="428.8"/>
      <point x="1176.8" y="502.6"/>
      <point x="1263.4" y="502.6" type="curve" smooth="yes"/>
      <point x="1355.2" y="502.6"/>
      <point x="1378.8" y="428.8"/>
      <point x="1378.8" y="358.0" type="curve" smooth="yes"/>
      <point x="1378.8" y="279.0" type="line" smooth="yes"/>
      <point x="1378.8" y="208.2"/>
      <point x="1352.2" y="136.2"/>
      <point x="1263.4" y="136.2" type="curve" smooth="yes"/>
      <point x="1175.6" y="136.2"/>
      <point x="1147.2" y="210.0"/>
      <point x="1147.2" y="279.0" type="curve" smooth="yes"/>
    </contour>
    <contour>
      <point x="172.0" y="1132.0" type="line" smooth="yes"/>
      <point x="172.0" y="953.4"/>
      <point x="286.2" y="802.6"/>
      <point x="499.6" y="802.6" type="curve" smooth="yes"/>
      <point x="710.8" y="802.6"/>
      <point x="827.8" y="951.6"/>
      <point x="827.8" y="1132.0" type="curve" smooth="yes"/>
      <point x="827.8" y="1210.0" type="line" smooth="yes"/>
      <point x="827.8" y="1390.4"/>
      <point x="713.8" y="1541.2"/>
      <point x="499.6" y="1541.2" type="curve" smooth="yes"/>
      <point x="291.0" y="1541.2"/>
      <point x="172.0" y="1390.4"/>
      <point x="172.0" y="1210.0" type="curve" smooth="yes"/>
    </contour>
    <contour>
      <point x="384.8" y="1210.0" type="line" smooth="yes"/>
      <point x="384.8" y="1279.0"/>
      <point x="412.6" y="1355.0"/>
      <point x="499.6" y="1355.0" type="curve" smooth="yes"/>
      <point x="591.0" y="1355.0"/>
      <point x="614.6" y="1280.8"/>
      <point x="614.6" y="1210.0" type="curve" smooth="yes"/>
      <point x="614.6" y="1132.0" type="line" smooth="yes"/>
      <point x="614.6" y="1060.2"/>
      <point x="588.0" y="988.2"/>
      <point x="499.6" y="988.2" type="curve" smooth="yes"/>
      <point x="412.6" y="988.2"/>
      <point x="384.8" y="1060.2"/>
      <point x="384.8" y="1132.0" type="curve" smooth="yes"/>
    </contour>
    <component base="fraction" xOffset="596.2"/>
  </outline>
</glyph>
<glyph name="ampersand" format="2">
  <advance height="2479.0" width="1380.4"/>
  <unicode hex="0026"/>
  <outline>
    <contour>
      <point x="580.8" y="-21.8" type="curve"/>
      <point x="712.6" y="-21.8"/>
      <point x="857.0" y="15.8"/>
      <point x="966.8" y="104.6" type="curve"/>
      <point x="996.2" y="122.8"/>
      <point x="1022.6" y="139.0"/>
      <point x="1051.0" y="157.2" type="curve"/>
      <point x="1189.2" y="259.6"/>
      <point x="1286.0" y="452.8"/>
      <point x="1286.0" y="727.0" type="curve"/>
      <point x="1029.4" y="727.0" type="line"/>
      <point x="1029.4" y="429.8"/>
      <point x="804.2" y="227.0"/>
      <point x="595.8" y="227.0" type="curve" smooth="yes"/>
      <point x="466.2" y="227.0"/>
      <point x="382.2" y="306.4"/>
      <point x="382.2" y="413.4" type="curve"/>
      <point x="382.2" y="469.6"/>
      <point x="421.4" y="535.0"/>
      <point x="503.2" y="594.4" type="curve" smooth="yes"/>
      <point x="807.4" y="814.2" type="line" smooth="yes"/>
      <point x="932.4" y="904.2"/>
      <point x="1004.4" y="1017.6"/>
      <point x="1004.4" y="1158.2" type="curve"/>
      <point x="1004.4" y="1348.2"/>
      <point x="857.6" y="1509.4"/>
      <point x="618.0" y="1509.4" type="curve" smooth="yes"/>
      <point x="373.6" y="1509.4"/>
      <point x="212.0" y="1343.0"/>
      <point x="212.0" y="1126.8" type="curve" smooth="yes"/>
      <point x="212.0" y="934.4"/>
      <point x="346.0" y="789.0"/>
      <point x="462.2" y="656.4" type="curve" smooth="yes"/>
      <point x="1051.8" y="0.0" type="line"/>
      <point x="1374.8" y="0.0" type="line"/>
      <point x="668.6" y="810.4" type="line" smooth="yes"/>
      <point x="565.4" y="933.6"/>
      <point x="477.0" y="1027.8"/>
      <point x="477.0" y="1122.0" type="curve" smooth="yes"/>
      <point x="477.0" y="1196.4"/>
      <point x="534.0" y="1259.4"/>
      <point x="620.4" y="1260.0" type="curve" smooth="yes"/>
      <point x="707.0" y="1260.0"/>
      <point x="757.2" y="1199.0"/>
      <point x="757.2" y="1140.2" type="curve"/>
      <point x="757.2" y="1077.8"/>
      <point x="723.2" y="1026.4"/>
      <point x="648.4" y="978.2" type="curve"/>
      <point x="360.2" y="788.8" type="line"/>
      <point x="194.6" y="675.8"/>
      <point x="82.2" y="570.6"/>
      <point x="82.2" y="396.0" type="curve"/>
      <point x="82.2" y="160.6"/>
      <point x="270.6" y="-21.8"/>
    </contour>
  </outline>
</glyph>
<glyph name="quotesingle" format="2">
  <advance height="2479.0" width="506.4"/>
  <unicode hex="0027"/>
  <outline>
    <contour>
      <point x="393.6" y="1489.0" type="line"/>
      <point x="112.8" y="1489.0" type="line"/>
      <point x="147.8" y="923.0" type="line"/>
      <point x="358.6" y="923.0" type="line"/>
    </contour>
  </outline>
</glyph>
<glyph name="parenleft" format="2">
  <advance height="2479.0" width="838.0"/>
  <unicode hex="0028"/>
  <outline>
    <contour>
      <point x="192.2" y="596.8" type="curve" smooth="yes"/>
      <point x="192.2" y="235.6"/>
      <point x="287.6" y="-65.0"/>
      <point x="486.0" y="-323.4" type="curve"/>
      <point x="782.2" y="-323.4" type="line"/>
      <point x="630.2" y="-131.4"/>
      <point x="514.2" y="252.6"/>
      <point x="514.2" y="596.8" type="curve" smooth="yes"/>
      <point x="514.2" y="941.4"/>
      <point x="630.2" y="1325.0"/>
      <point x="782.2" y="1517.0" type="curve"/>
      <point x="486.0" y="1517.0" type="line"/>
      <point x="287.6" y="1258.6"/>
      <point x="192.2" y="958.4"/>
    </contour>
  </outline>
</glyph>
<glyph name="asterisk" format="2">
  <advance height="2479.0" width="1156.6"/>
  <unicode hex="002A"/>
  <outline>
    <contour>
      <point x="480.4" y="652.0" type="line"/>
      <point x="676.2" y="652.0" type="line"/>
      <point x="657.6" y="933.6" type="line"/>
      <point x="893.2" y="775.4" type="line"/>
      <point x="990.8" y="946.6" type="line"/>
      <point x="737.2" y="1071.0" type="line"/>
      <point x="990.8" y="1194.4" type="line"/>
      <point x="893.2" y="1365.6" type="line"/>
      <point x="657.6" y="1207.4" type="line"/>
      <point x="676.2" y="1489.0" type="line"/>
      <point x="480.4" y="1489.0" type="line"/>
      <point x="499.0" y="1207.4" type="line"/>
      <point x="263.4" y="1365.6" type="line"/>
      <point x="165.8" y="1194.4" type="line"/>
      <point x="419.4" y="1071.0" type="line"/>
      <point x="165.8" y="946.6" type="line"/>
      <point x="263.4" y="775.4" type="line"/>
      <point x="499.0" y="933.6" type="line"/>
    </contour>
  </outline>
</glyph>
<glyph name="plus" format="2">
  <advance height="2479.0" width="1392.0"/>
  <unicode hex="002B"/>
  <outline>
    <contour>
      <point x="565.4" y="81.0" type="line"/>
      <point x="826.2" y="81.0" type="line"/>
      <point x="826.2" y="1110.6" type="line"/>
      <point x="565.4" y="1110.6" type="line"/>
    </contour>
    <contour>
      <point x="181.2" y="465.2" type="line"/>
      <point x="1210.8" y="465.2" type="line"/>
      <point x="1210.8" y="726.0" type="line"/>
      <point x="181.2" y="726.0" type="line"/>
    </contour>
  </outline>
</glyph>
<glyph name="comma" format="2">
  <advance height="2479.0" width="620.4"/>
  <unicode hex="002C"/>
  <outline>
    <contour>
      <point x="460.4" y="204.0" type="line"/>
      <point x="204.2" y="204.0" type="line"/>
      <point x="200.6" y="122.0" type="line" smooth="yes"/>
      <point x="192.2" y="-75.6"/>
      <point x="135.6" y="-278.2"/>
      <point x="114.2" y="-364.0" type="curve"/>
      <point x="314.8" y="-364.0" type="line"/>
      <point x="349.8" y="-275.8"/>
      <point x="433.4" y="-69.2"/>
      <point x="452.0" y="123.2" type="curve" smooth="yes"/>
    </contour>
  </outline>
</glyph>
<glyph name="hyphen" format="2">
  <advance height="2479.0" width="960.4"/>
  <unicode hex="002D"/>
  <outline>
    <contour>
      <point x="819.8" y="734.6" type="line"/>
      <point x="140.2" y="734.6" type="line"/>
      <point x="140.2" y="488.8" type="line"/>
      <point x="819.8" y="488.8" type="line"/>
    </contour>
  </outline>
</glyph>
<glyph name="period" format="2">
  <advance height="2479.0" width="609.6"/>
  <unicode hex="002E"/>
  <outline>
    <contour>
      <point x="304.8" y="-18.6" type="curve" smooth="yes"/>
      <point x="397.8" y="-18.6"/>
      <point x="478.4" y="59.0"/>
      <point x="479.6" y="155.6" type="curve" smooth="yes"/>
      <point x="478.4" y="251.0"/>
      <point x="397.8" y="328.6"/>
      <point x="304.8" y="328.6" type="curve" smooth="yes"/>
      <point x="208.2" y="328.6"/>
      <point x="129.4" y="251.0"/>
      <point x="130.0" y="155.6" type="curve" smooth="yes"/>
      <point x="129.4" y="59.0"/>
      <point x="208.2" y="-18.6"/>
    </contour>
  </outline>
</glyph>
<glyph name="slash" format="2">
  <advance height="2479.0" width="798.4"/>
  <unicode hex="002F"/>
  <outline>
    <contour>
      <point x="772.8" y="1559.0" type="line"/>
      <point x="506.0" y="1559.0" type="line"/>
      <point x="26.0" y="-224.0" type="line"/>
      <point x="292.8" y="-224.0" type="line"/>
    </contour>
  </outline>
</glyph>
<glyph name="zero" format="2">
  <advance height="2479.0" width="1409.0"/>
  <unicode hex="0030"/>
  <outline>
    <contour>
      <point x="704.8" y="-32.6" type="curve" smooth="yes"/>
      <point x="1079.4" y="-32.6"/>
      <point x="1305.6" y="252.6"/>
      <point x="1306.2" y="743.2" type="curve" smooth="yes"/>
      <point x="1306.8" y="1230.4"/>
      <point x="1078.2" y="1510.0"/>
      <point x="704.8" y="1510.0" type="curve" smooth="yes"/>
      <point x="330.8" y="1510.0"/>
      <point x="104.0" y="1231.0"/>
      <point x="102.8" y="743.2" type="curve" smooth="yes"/>
      <point x="102.2" y="253.8"/>
      <point x="329.6" y="-32.0"/>
    </contour>
    <contour>
      <point x="704.8" y="228.8" type="curve" smooth="yes"/>
      <point x="534.0" y="228.8"/>
      <point x="423.6" y="399.6"/>
      <point x="424.2" y="743.2" type="curve" smooth="yes"/>
      <point x="425.4" y="1081.6"/>
      <point x="534.8" y="1251.6"/>
      <point x="704.8" y="1251.6" type="curve" smooth="yes"/>
      <point x="874.2" y="1251.6"/>
      <point x="984.2" y="1081.6"/>
      <point x="984.8" y="743.2" type="curve" smooth="yes"/>
      <point x="985.4" y="399.6"/>
      <point x="875.0" y="228.8"/>
    </contour>
  </outline>
</glyph>
<glyph name="one" format="2">
  <advance height="2479.0" width="1002.0"/>
  <unicode hex="0031"/>
  <outline>
    <contour>
      <point x="768.6" y="1489.0" type="line"/>
      <point x="473.0" y="1489.0" type="line"/>
      <point x="104.0" y="1255.8" type="line"/>
      <point x="104.0" y="976.8" type="line"/>
      <point x="445.2" y="1190.2" type="line"/>
      <point x="453.8" y="1190.2" type="line"/>
      <point x="453.8" y="0.0" type="line"/>
      <point x="768.6" y="0.0" type="line"/>
    </contour>
  </outline>
</glyph>
<glyph name="two" format="2">
  <advance height="2479.0" width="1290.0"/>
  <unicode hex="0032"/>
  <anchor x="873.2" y="797.4" name="cross"/>
  <outline>
    <contour>
      <point x="121.0" y="0.0" type="line"/>
      <point x="1182.8" y="0.0" type="line"/>
      <point x="1182.8" y="257.8" type="line"/>
      <point x="556.4" y="257.8" type="line"/>
      <point x="556.4" y="268.0" type="line"/>
      <point x="774.4" y="480.4" type="line" smooth="yes"/>
      <point x="1080.8" y="760.2"/>
      <point x="1162.8" y="899.6"/>
      <point x="1162.8" y="1068.8" type="curve" smooth="yes"/>
      <point x="1162.8" y="1327.6"/>
      <point x="951.8" y="1510.0"/>
      <point x="632.6" y="1510.0" type="curve" smooth="yes"/>
      <point x="320.6" y="1510.0"/>
      <point x="105.4" y="1323.0"/>
      <point x="106.0" y="1030.8" type="curve"/>
      <point x="405.2" y="1030.8" type="line"/>
      <point x="404.6" y="1173.4"/>
      <point x="493.8" y="1260.6"/>
      <point x="630.2" y="1260.6" type="curve" smooth="yes"/>
      <point x="761.8" y="1260.6"/>
      <point x="858.8" y="1179.0"/>
      <point x="858.8" y="1047.8" type="curve" smooth="yes"/>
      <point x="858.8" y="929.6"/>
      <point x="785.6" y="847.4"/>
      <point x="651.4" y="718.2" type="curve" smooth="yes"/>
      <point x="121.0" y="227.0" type="line"/>
    </contour>
  </outline>
</glyph>
<glyph name="three" format="2">
  <advance height="2479.0" width="1350.4"/>
  <unicode hex="0033"/>
  <outline>
    <contour>
      <point x="671.4" y="-20.0" type="curve" smooth="yes"/>
      <point x="1005.4" y="-20.0"/>
      <point x="1245.6" y="163.4"/>
      <point x="1244.4" y="418.4" type="curve" smooth="yes"/>
      <point x="1245.6" y="603.2"/>
      <point x="1127.6" y="735.8"/>
      <point x="908.4" y="763.8" type="curve"/>
      <point x="908.4" y="775.8" type="line"/>
      <point x="1075.0" y="805.6"/>
      <point x="1190.2" y="923.2"/>
      <point x="1189.0" y="1090.0" type="curve" smooth="yes"/>
      <point x="1190.2" y="1325.0"/>
      <point x="984.0" y="1510.0"/>
      <point x="675.6" y="1510.0" type="curve" smooth="yes"/>
      <point x="370.0" y="1510.0"/>
      <point x="140.4" y="1330.6"/>
      <point x="136.2" y="1073.2" type="curve"/>
      <point x="438.4" y="1073.2" type="line"/>
      <point x="441.4" y="1187.0"/>
      <point x="545.2" y="1260.6"/>
      <point x="674.4" y="1260.6" type="curve" smooth="yes"/>
      <point x="801.0" y="1260.6"/>
      <point x="886.6" y="1183.4"/>
      <point x="885.4" y="1071.2" type="curve" smooth="yes"/>
      <point x="886.6" y="954.0"/>
      <point x="786.4" y="875.2"/>
      <point x="643.6" y="875.2" type="curve" smooth="yes"/>
      <point x="504.8" y="875.2" type="line"/>
      <point x="504.8" y="643.8" type="line"/>
      <point x="643.6" y="643.8" type="line" smooth="yes"/>
      <point x="812.6" y="643.8"/>
      <point x="917.6" y="559.4"/>
      <point x="917.0" y="439.4" type="curve" smooth="yes"/>
      <point x="917.6" y="320.8"/>
      <point x="816.0" y="239.0"/>
      <point x="672.4" y="239.0" type="curve" smooth="yes"/>
      <point x="533.0" y="239.0"/>
      <point x="428.4" y="311.4"/>
      <point x="423.8" y="421.2" type="curve"/>
      <point x="106.0" y="421.2" type="line"/>
      <point x="111.0" y="160.8"/>
      <point x="344.4" y="-20.0"/>
    </contour>
  </outline>
</glyph>
<glyph name="four" format="2">
  <advance height="2479.0" width="1388.2"/>
  <unicode hex="0034"/>
  <outline>
    <contour>
      <point x="98.0" y="261.8" type="line"/>
      <point x="1298.6" y="261.8" type="line"/>
      <point x="1298.6" y="514.2" type="line"/>
      <point x="415.4" y="514.2" type="line"/>
      <point x="415.4" y="526.2" type="line"/>
      <point x="807.2" y="1146.6" type="line"/>
      <point x="933.8" y="1146.6" type="line"/>
      <point x="933.8" y="1489.0" type="line"/>
      <point x="720.0" y="1489.0" type="line"/>
      <point x="98.0" y="509.8" type="line"/>
    </contour>
    <contour>
      <point x="813.4" y="0.0" type="line"/>
      <point x="1114.4" y="0.0" type="line"/>
      <point x="1114.4" y="1489.0" type="line"/>
      <point x="818.2" y="1489.0" type="line"/>
      <point x="818.2" y="447.0" type="line"/>
      <point x="813.4" y="337.8" type="line"/>
    </contour>
  </outline>
</glyph>
<glyph name="five" format="2">
  <advance height="2479.0" width="1320.0"/>
  <unicode hex="0035"/>
  <outline>
    <contour>
      <point x="665.0" y="-20.0" type="curve" smooth="yes"/>
      <point x="996.0" y="-20.0"/>
      <point x="1221.4" y="195.6"/>
      <point x="1221.4" y="496.8" type="curve" smooth="yes"/>
      <point x="1221.4" y="782.2"/>
      <point x="1022.6" y="987.0"/>
      <point x="754.0" y="987.0" type="curve" smooth="yes"/>
      <point x="623.4" y="987.0"/>
      <point x="511.0" y="932.4"/>
      <point x="458.4" y="858.8" type="curve"/>
      <point x="449.4" y="858.8" type="line"/>
      <point x="488.0" y="1231.8" type="line"/>
      <point x="1138.2" y="1231.8" type="line"/>
      <point x="1138.2" y="1489.0" type="line"/>
      <point x="229.0" y="1489.0" type="line"/>
      <point x="157.8" y="703.8" type="line"/>
      <point x="437.8" y="653.8" type="line"/>
      <point x="483.6" y="715.2"/>
      <point x="571.8" y="754.4"/>
      <point x="660.2" y="754.4" type="curve" smooth="yes"/>
      <point x="810.6" y="753.6"/>
      <point x="917.8" y="645.0"/>
      <point x="917.8" y="488.4" type="curve" smooth="yes"/>
      <point x="917.8" y="334.0"/>
      <point x="812.6" y="227.0"/>
      <point x="665.0" y="227.0" type="curve" smooth="yes"/>
      <point x="539.6" y="227.0"/>
      <point x="438.0" y="305.8"/>
      <point x="431.0" y="421.2" type="curve"/>
      <point x="125.8" y="421.2" type="line"/>
      <point x="131.4" y="163.6"/>
      <point x="356.8" y="-20.0"/>
    </contour>
  </outline>
</glyph>
<glyph name="six" format="2">
  <advance height="2479.0" width="1352.0"/>
  <unicode hex="0036"/>
  <outline>
    <contour>
      <point x="692.2" y="-20.0" type="curve" smooth="yes"/>
      <point x="1023.8" y="-21.6"/>
      <point x="1249.8" y="195.8"/>
      <point x="1249.2" y="499.2" type="curve" smooth="yes"/>
      <point x="1249.8" y="778.2"/>
      <point x="1055.4" y="979.8"/>
      <point x="791.4" y="979.8" type="curve" smooth="yes"/>
      <point x="627.8" y="979.8"/>
      <point x="483.0" y="901.2"/>
      <point x="416.0" y="769.8" type="curve"/>
      <point x="406.2" y="769.8" type="line"/>
      <point x="407.4" y="1059.6"/>
      <point x="508.8" y="1240.2"/>
      <point x="703.2" y="1240.2" type="curve" smooth="yes"/>
      <point x="817.0" y="1240.2"/>
      <point x="900.0" y="1177.8"/>
      <point x="924.0" y="1073.2" type="curve"/>
      <point x="1234.0" y="1073.2" type="line"/>
      <point x="1204.2" y="1318.6"/>
      <point x="1000.6" y="1510.0"/>
      <point x="703.2" y="1510.0" type="curve" smooth="yes"/>
      <point x="335.2" y="1510.0"/>
      <point x="98.6" y="1211.2"/>
      <point x="98.0" y="711.0" type="curve" smooth="yes"/>
      <point x="96.80000000000001" y="166.0"/>
      <point x="386.0" y="-18.8"/>
    </contour>
    <contour>
      <point x="691.0" y="227.0" type="curve" smooth="yes"/>
      <point x="545.4" y="227.0"/>
      <point x="437.8" y="344.6"/>
      <point x="437.6" y="489.0" type="curve" smooth="yes"/>
      <point x="438.6" y="634.0"/>
      <point x="548.6" y="752.0"/>
      <point x="693.4" y="752.0" type="curve" smooth="yes"/>
      <point x="838.2" y="752.0"/>
      <point x="945.0" y="638.0"/>
      <point x="943.8" y="490.2" type="curve" smooth="yes"/>
      <point x="945.0" y="341.4"/>
      <point x="835.8" y="227.0"/>
    </contour>
  </outline>
</glyph>
<glyph name="seven" format="2">
  <advance height="2479.0" width="1218.2"/>
  <unicode hex="0037"/>
  <outline>
    <contour>
      <point x="180.0" y="0.0" type="line"/>
      <point x="505.2" y="0.0" type="line"/>
      <point x="1122.6" y="1228.6" type="line"/>
      <point x="1122.6" y="1489.0" type="line"/>
      <point x="78.0" y="1489.0" type="line"/>
      <point x="78.0" y="1231.8" type="line"/>
      <point x="797.4" y="1231.8" type="line"/>
      <point x="797.4" y="1222.0" type="line"/>
    </contour>
  </outline>
</glyph>
<glyph name="eight" format="2">
  <advance height="2479.0" width="1353.6"/>
  <unicode hex="0038"/>
  <outline>
    <contour>
      <point x="676.6" y="-20.0" type="curve" smooth="yes"/>
      <point x="1012.4" y="-20.0"/>
      <point x="1253.6" y="159.0"/>
      <point x="1254.0" y="400.8" type="curve" smooth="yes"/>
      <point x="1253.6" y="586.4"/>
      <point x="1110.2" y="739.2"/>
      <point x="931.2" y="768.6" type="curve"/>
      <point x="931.2" y="779.4" type="line"/>
      <point x="1087.4" y="811.2"/>
      <point x="1198.6" y="945.8"/>
      <point x="1199.0" y="1108.6" type="curve" smooth="yes"/>
      <point x="1198.6" y="1339.2"/>
      <point x="977.6" y="1510.0"/>
      <point x="676.6" y="1510.0" type="curve" smooth="yes"/>
      <point x="374.4" y="1510.0"/>
      <point x="153.8" y="1339.8"/>
      <point x="154.2" y="1108.6" type="curve" smooth="yes"/>
      <point x="153.8" y="946.4"/>
      <point x="263.2" y="811.2"/>
      <point x="422.0" y="779.4" type="curve"/>
      <point x="422.0" y="768.6" type="line"/>
      <point x="239.4" y="739.2"/>
      <point x="98.2" y="586.4"/>
      <point x="98.6" y="400.8" type="curve" smooth="yes"/>
      <point x="98.2" y="159.0"/>
      <point x="340.0" y="-20.0"/>
    </contour>
    <contour>
      <point x="676.6" y="211.39999999999998" type="curve" smooth="yes"/>
      <point x="526.6" y="211.39999999999998"/>
      <point x="425.8" y="299.2"/>
      <point x="426.6" y="425.0" type="curve" smooth="yes"/>
      <point x="425.8" y="554.6"/>
      <point x="531.8" y="647.0"/>
      <point x="676.6" y="647.0" type="curve" smooth="yes"/>
      <point x="820.6" y="647.0"/>
      <point x="926.6" y="554.0"/>
      <point x="927.0" y="425.0" type="curve" smooth="yes"/>
      <point x="926.6" y="298.6"/>
      <point x="825.8" y="211.39999999999998"/>
    </contour>
    <contour>
      <point x="676.6" y="876.4" type="curve" smooth="yes"/>
      <point x="550.8" y="876.4"/>
      <point x="460.4" y="958.8"/>
      <point x="461.2" y="1076.6" type="curve" smooth="yes"/>
      <point x="460.4" y="1192.8"/>
      <point x="549.2" y="1272.6"/>
      <point x="676.6" y="1272.6" type="curve" smooth="yes"/>
      <point x="803.2" y="1272.6"/>
      <point x="891.0" y="1192.2"/>
      <point x="891.8" y="1076.6" type="curve" smooth="yes"/>
      <point x="891.0" y="958.2"/>
      <point x="801.2" y="876.4"/>
    </contour>
  </outline>
</glyph>
<glyph name="nine" format="2">
  <advance height="2479.0" width="1352.0"/>
  <unicode hex="0039"/>
  <outline>
    <contour>
      <point x="659.8" y="1510.0" type="curve" smooth="yes"/>
      <point x="326.6" y="1511.2"/>
      <point x="102.2" y="1292.6"/>
      <point x="102.8" y="992.8" type="curve" smooth="yes"/>
      <point x="104.0" y="715.6"/>
      <point x="296.8" y="514.4"/>
      <point x="560.6" y="514.4" type="curve" smooth="yes"/>
      <point x="724.2" y="514.4"/>
      <point x="869.6" y="593.0"/>
      <point x="936.0" y="724.4" type="curve"/>
      <point x="945.8" y="724.4" type="line"/>
      <point x="945.2" y="429.4"/>
      <point x="842.8" y="249.8"/>
      <point x="648.8" y="249.8" type="curve" smooth="yes"/>
      <point x="534.4" y="249.8"/>
      <point x="452.2" y="312.2"/>
      <point x="428.0" y="420.6" type="curve"/>
      <point x="118.4" y="420.6" type="line"/>
      <point x="147.0" y="169.4"/>
      <point x="350.8" y="-20.0"/>
      <point x="648.8" y="-20.0" type="curve" smooth="yes"/>
      <point x="1017.4" y="-20.0"/>
      <point x="1255.2" y="277.8"/>
      <point x="1254.6" y="783.2" type="curve" smooth="yes"/>
      <point x="1253.4" y="1323.0"/>
      <point x="966.0" y="1508.8"/>
    </contour>
    <contour>
      <point x="661.6" y="1262.4" type="curve" smooth="yes"/>
      <point x="806.6" y="1262.4"/>
      <point x="913.8" y="1144.4"/>
      <point x="914.4" y="1003.0" type="curve" smooth="yes"/>
      <point x="915.6" y="860.8"/>
      <point x="803.0" y="742.2"/>
      <point x="659.6" y="742.2" type="curve" smooth="yes"/>
      <point x="513.4" y="742.2"/>
      <point x="409.4" y="856.0"/>
      <point x="408.2" y="1001.8" type="curve" smooth="yes"/>
      <point x="407.6" y="1148.0"/>
      <point x="515.8" y="1262.4"/>
    </contour>
  </outline>
</glyph>
<glyph name="less" format="2">
  <advance height="2479.0" width="1392.0"/>
  <unicode hex="003C"/>
  <outline>
    <contour>
      <point x="184.2" y="468.2" type="line"/>
      <point x="1207.8" y="17.0" type="line"/>
      <point x="1207.8" y="311.6" type="line"/>
      <point x="506.6" y="592.8" type="line"/>
      <point x="516.2" y="577.8" type="line"/>
      <point x="516.2" y="613.4" type="line"/>
      <point x="506.6" y="598.8" type="line"/>
      <point x="1207.8" y="880.6" type="line"/>
      <point x="1207.8" y="1174.6" type="line"/>
      <point x="184.2" y="724.0" type="line"/>
    </contour>
  </outline>
</glyph>
<glyph name="equal" format="2">
  <advance height="2479.0" width="1392.0"/>
  <unicode hex="003D"/>
  <outline>
    <contour>
      <point x="194.0" y="708.2" type="line"/>
      <point x="1198.0" y="708.2" type="line"/>
      <point x="1198.0" y="966.6" type="line"/>
      <point x="194.0" y="966.6" type="line"/>
    </contour>
    <contour>
      <point x="194.0" y="225.0" type="line"/>
      <point x="1198.0" y="225.0" type="line"/>
      <point x="1198.0" y="483.4" type="line"/>
      <point x="194.0" y="483.4" type="line"/>
    </contour>
  </outline>
</glyph>
<glyph name="greater" format="2">
  <advance height="2479.0" width="1392.0"/>
  <unicode hex="003E"/>
  <outline>
    <contour>
      <point x="1207.8" y="468.2" type="line"/>
      <point x="1207.8" y="724.0" type="line"/>
      <point x="184.2" y="1174.6" type="line"/>
      <point x="184.2" y="880.6" type="line"/>
      <point x="884.8" y="598.8" type="line"/>
      <point x="875.8" y="613.4" type="line"/>
      <point x="875.8" y="577.8" type="line"/>
      <point x="884.8" y="592.8" type="line"/>
      <point x="184.2" y="311.6" type="line"/>
      <point x="184.2" y="17.0" type="line"/>
    </contour>
  </outline>
</glyph>
<glyph name="question" format="2">
  <advance height="2479.0" width="1152.4"/>
  <unicode hex="003F"/>
  <outline>
    <contour>
      <point x="390.0" y="446.6" type="line"/>
      <point x="665.8" y="446.6" type="line"/>
      <point x="665.8" y="471.2" type="line" smooth="yes"/>
      <point x="667.0" y="612.8"/>
      <point x="717.8" y="679.2"/>
      <point x="832.6" y="748.4" type="curve" smooth="yes"/>
      <point x="969.0" y="829.0"/>
      <point x="1057.0" y="936.2"/>
      <point x="1057.0" y="1106.8" type="curve" smooth="yes"/>
      <point x="1057.0" y="1361.4"/>
      <point x="852.6" y="1510.0"/>
      <point x="563.6" y="1510.0" type="curve" smooth="yes"/>
      <point x="299.4" y="1510.0"/>
      <point x="84.2" y="1371.2"/>
      <point x="78.0" y="1080.4" type="curve"/>
      <point x="374.8" y="1080.4" type="line"/>
      <point x="379.2" y="1199.6"/>
      <point x="467.4" y="1263.0"/>
      <point x="561.8" y="1263.0" type="curve" smooth="yes"/>
      <point x="660.4" y="1263.0"/>
      <point x="739.2" y="1196.6"/>
      <point x="739.2" y="1096.0" type="curve" smooth="yes"/>
      <point x="739.2" y="1001.0"/>
      <point x="670.8" y="937.8"/>
      <point x="581.0" y="880.8" type="curve" smooth="yes"/>
      <point x="459.0" y="804.0"/>
      <point x="390.8" y="726.0"/>
      <point x="390.0" y="471.2" type="curve" smooth="yes"/>
    </contour>
    <component base="period" xOffset="228.6"/>
  </outline>
</glyph>
<glyph name="at" format="2">
  <advance height="2479.0" width="2110.8"/>
  <unicode hex="0040"/>
  <outline>
    <contour>
      <point x="1099.0" y="-429.6" type="curve" smooth="yes"/>
      <point x="1306.2" y="-429.6"/>
      <point x="1509.0" y="-380.2"/>
      <point x="1600.2" y="-328.4" type="curve"/>
      <point x="1528.0" y="-118.2" type="line"/>
      <point x="1450.2" y="-149.4"/>
      <point x="1283.0" y="-191.8"/>
      <point x="1115.2" y="-191.8" type="curve" smooth="yes"/>
      <point x="641.6" y="-191.8"/>
      <point x="383.8" y="59.0"/>
      <point x="382.6" y="519.2" type="curve" smooth="yes"/>
      <point x="383.8" y="935.0"/>
      <point x="620.8" y="1248.4"/>
      <point x="1104.8" y="1248.4" type="curve" smooth="yes"/>
      <point x="1455.0" y="1248.4"/>
      <point x="1779.8" y="1081.8"/>
      <point x="1778.6" y="625.0" type="curve" smooth="yes"/>
      <point x="1779.8" y="340.4"/>
      <point x="1727.4" y="211.0"/>
      <point x="1626.8" y="211.0" type="curve" smooth="yes"/>
      <point x="1576.6" y="211.0"/>
      <point x="1546.2" y="249.2"/>
      <point x="1545.6" y="316.4" type="curve" smooth="yes"/>
      <point x="1545.6" y="1026.2" type="line"/>
      <point x="1317.8" y="1026.2" type="line"/>
      <point x="1317.8" y="944.6" type="line"/>
      <point x="1307.6" y="944.6" type="line"/>
      <point x="1282.8" y="1008.6"/>
      <point x="1129.2" y="1069.0"/>
      <point x="965.6" y="1044.2" type="curve" smooth="yes"/>
      <point x="770.6" y="1015.4"/>
      <point x="561.2" y="856.4"/>
      <point x="560.6" y="519.4" type="curve" smooth="yes"/>
      <point x="561.2" y="176.8"/>
      <point x="757.0" y="1.3999999999999986"/>
      <point x="986.6" y="-11.199999999999996" type="curve" smooth="yes"/>
      <point x="1151.0" y="-20.199999999999996"/>
      <point x="1299.6" y="48.8"/>
      <point x="1333.4" y="136.8" type="curve"/>
      <point x="1342.0" y="136.8" type="line"/>
      <point x="1358.8" y="36.4"/>
      <point x="1425.2" y="-32.199999999999996"/>
      <point x="1594.4" y="-19.6" type="curve" smooth="yes"/>
      <point x="1908.4" y="-2.1999999999999993"/>
      <point x="2028.6" y="250.60000000000002"/>
      <point x="2027.4" y="608.2" type="curve" smooth="yes"/>
      <point x="2028.6" y="1125.0"/>
      <point x="1686.6" y="1483.2"/>
      <point x="1108.4" y="1483.2" type="curve" smooth="yes"/>
      <point x="482.8" y="1483.2"/>
      <point x="124.2" y="1095.8"/>
      <point x="123.6" y="510.8" type="curve" smooth="yes"/>
      <point x="124.2" y="-83.8"/>
      <point x="480.2" y="-429.6"/>
    </contour>
    <contour>
      <point x="1065.4" y="228.0" type="curve" smooth="yes"/>
      <point x="875.2" y="228.0"/>
      <point x="811.8" y="373.6"/>
      <point x="811.2" y="528.4" type="curve" smooth="yes"/>
      <point x="811.8" y="693.8"/>
      <point x="903.0" y="802.2"/>
      <point x="1064.2" y="802.2" type="curve" smooth="yes"/>
      <point x="1248.4" y="802.2"/>
      <point x="1303.0" y="704.6"/>
      <point x="1303.6" y="530.2" type="curve" smooth="yes"/>
      <point x="1306.6" y="332.4"/>
      <point x="1243.6" y="228.0"/>
    </contour>
  </outline>
</glyph>
<glyph name="A" format="2">
  <advance height="2479.0" width="1531.4"/>
  <unicode hex="0041"/>
  <anchor x="765.8" y="0.0" name="bottom"/>
  <anchor x="1482.6" y="0.0" name="ogonek"/>
  <anchor x="474.0" y="1489.0" name="tonos"/>
  <anchor x="765.8" y="1676.0" name="top"/>
  <outline>
    <contour>
      <point x="386.2" y="0.0" type="line"/>
      <point x="760.2" y="1149.0" type="line"/>
      <point x="771.2" y="1149.0" type="line"/>
      <point x="1144.8" y="0.0" type="line"/>
      <point x="1482.6" y="0.0" type="line"/>
      <point x="968.6" y="1489.0" type="line"/>
      <point x="562.4" y="1489.0" type="line"/>
      <point x="49.0" y="0.0" type="line"/>
    </contour>
    <contour>
      <point x="365.0" y="585.6" type="line"/>
      <point x="365.0" y="339.8" type="line"/>
      <point x="1162.4" y="339.8" type="line"/>
      <point x="1162.4" y="585.6" type="line"/>
    </contour>
  </outline>
</glyph>
<glyph name="B" format="2">
  <advance height="2479.0" width="1353.0"/>
  <unicode hex="0042"/>
  <anchor x="656.2" y="0.0" name="bottom"/>
  <anchor x="654.4" y="1676.0" name="top"/>
  <outline>
    <contour>
      <point x="129.6" y="0.0" type="line"/>
      <point x="765.8" y="0.0" type="line" smooth="yes"/>
      <point x="1101.0" y="0.0"/>
      <point x="1279.0" y="175.0"/>
      <point x="1279.0" y="411.6" type="curve" smooth="yes"/>
      <point x="1279.0" y="631.6"/>
      <point x="1120.8" y="765.0"/>
      <point x="951.4" y="773.4" type="curve"/>
      <point x="951.4" y="787.8" type="line"/>
      <point x="1105.8" y="821.8"/>
      <point x="1221.0" y="932.6"/>
      <point x="1221.0" y="1107.8" type="curve" smooth="yes"/>
      <point x="1221.0" y="1331.2"/>
      <point x="1054.0" y="1489.0"/>
      <point x="725.6" y="1489.0" type="curve" smooth="yes"/>
      <point x="129.6" y="1489.0" type="line"/>
    </contour>
    <contour>
      <point x="444.4" y="257.8" type="line"/>
      <point x="444.4" y="653.4" type="line"/>
      <point x="707.8" y="653.4" type="line" smooth="yes"/>
      <point x="859.6" y="653.4"/>
      <point x="953.4" y="566.2"/>
      <point x="953.4" y="442.8" type="curve" smooth="yes"/>
      <point x="953.4" y="331.0"/>
      <point x="876.6" y="257.8"/>
      <point x="701.0" y="257.8" type="curve" smooth="yes"/>
    </contour>
    <contour>
      <point x="444.4" y="866.2" type="line"/>
      <point x="444.4" y="1234.8" type="line"/>
      <point x="683.6" y="1234.8" type="line" smooth="yes"/>
      <point x="822.8" y="1234.8"/>
      <point x="902.6" y="1162.6"/>
      <point x="902.6" y="1055.6" type="curve" smooth="yes"/>
      <point x="902.6" y="937.6"/>
      <point x="806.4" y="866.2"/>
      <point x="677.6" y="866.2" type="curve" smooth="yes"/>
    </contour>
  </outline>
</glyph>
<glyph name="C" format="2">
  <advance height="2479.0" width="1540.0"/>
  <unicode hex="0043"/>
  <anchor x="792.0" y="-1.200000000000001" name="cedilla"/>
  <anchor x="797.4" y="1676.0" name="top"/>
  <outline>
    <contour>
      <point x="1443.8" y="968.2" type="line"/>
      <point x="1402.6" y="1311.6"/>
      <point x="1142.0" y="1510.0"/>
      <point x="797.4" y="1510.0" type="curve" smooth="yes"/>
      <point x="403.8" y="1510.0"/>
      <point x="102.8" y="1231.6"/>
      <point x="102.8" y="745.0" type="curve"/>
      <point x="102.8" y="258.6"/>
      <point x="399.0" y="-20.0"/>
      <point x="797.4" y="-20.0" type="curve" smooth="yes"/>
      <point x="1178.6" y="-20.0"/>
      <point x="1409.2" y="233.2"/>
      <point x="1443.8" y="507.0" type="curve"/>
      <point x="1125.2" y="508.8" type="line"/>
      <point x="1095.6" y="350.2"/>
      <point x="970.4" y="258.4"/>
      <point x="802.2" y="258.4" type="curve" smooth="yes"/>
      <point x="575.6" y="258.4"/>
      <point x="422.4" y="425.8"/>
      <point x="422.4" y="745.0" type="curve"/>
      <point x="422.4" y="1055.2"/>
      <point x="573.8" y="1231.2"/>
      <point x="804.0" y="1231.2" type="curve" smooth="yes"/>
      <point x="976.4" y="1231.2"/>
      <point x="1101.0" y="1132.0"/>
      <point x="1125.2" y="968.2" type="curve"/>
    </contour>
  </outline>
</glyph>
<glyph name="D" format="2">
  <advance height="2479.0" width="1489.4"/>
  <unicode hex="0044"/>
  <anchor x="654.2" y="0.0" name="bottom"/>
  <anchor x="286.6" y="780.0" name="cross"/>
  <anchor x="602.6" y="1676.0" name="top"/>
  <outline>
    <contour>
      <point x="657.4" y="0.0" type="line" smooth="yes"/>
      <point x="1111.4" y="0.0"/>
      <point x="1386.6" y="280.2"/>
      <point x="1386.6" y="746.2" type="curve" smooth="yes"/>
      <point x="1386.6" y="1210.0"/>
      <point x="1111.4" y="1489.0"/>
      <point x="661.8" y="1489.0" type="curve" smooth="yes"/>
      <point x="262.8" y="1489.0" type="line"/>
      <point x="262.8" y="1219.2" type="line"/>
      <point x="645.4" y="1219.2" type="line" smooth="yes"/>
      <point x="924.8" y="1219.2"/>
      <point x="1072.4" y="1076.8"/>
      <point x="1072.4" y="746.2" type="curve" smooth="yes"/>
      <point x="1072.4" y="413.4"/>
      <point x="924.8" y="269.8"/>
      <point x="644.2" y="269.8" type="curve" smooth="yes"/>
      <point x="270.0" y="269.8" type="line"/>
      <point x="270.0" y="0.0" type="line"/>
    </contour>
    <contour>
      <point x="444.4" y="1489.0" type="line"/>
      <point x="129.6" y="1489.0" type="line"/>
      <point x="129.6" y="0.0" type="line"/>
      <point x="444.4" y="0.0" type="line"/>
    </contour>
  </outline>
</glyph>
<glyph name="E" format="2">
  <advance height="2479.0" width="1254.4"/>
  <unicode hex="0045"/>
  <anchor x="627.8" y="0.0" name="bottom"/>
  <anchor x="630.8" y="0.0" name="cedilla"/>
  <anchor x="1136.6" y="0.0" name="ogonek"/>
  <anchor x="86.6" y="1489.0" name="tonos"/>
  <anchor x="633.4" y="1676.0" name="top"/>
  <outline>
    <contour>
      <point x="129.6" y="0.0" type="line"/>
      <point x="1136.6" y="0.0" type="line"/>
      <point x="1136.6" y="259.6" type="line"/>
      <point x="444.4" y="259.6" type="line"/>
      <point x="444.4" y="615.6" type="line"/>
      <point x="1081.6" y="615.6" type="line"/>
      <point x="1081.6" y="875.2" type="line"/>
      <point x="444.4" y="875.2" type="line"/>
      <point x="444.4" y="1230.0" type="line"/>
      <point x="1133.0" y="1230.0" type="line"/>
      <point x="1133.0" y="1489.0" type="line"/>
      <point x="129.6" y="1489.0" type="line"/>
    </contour>
  </outline>
</glyph>
<glyph name="F" format="2">
  <advance height="2479.0" width="1198.0"/>
  <unicode hex="0046"/>
  <anchor x="609.4" y="12.0" name="bottom"/>
  <anchor x="286.6" y="289.6" name="cross"/>
  <anchor x="632.2" y="1676.0" name="top"/>
  <outline>
    <contour>
      <point x="129.6" y="0.0" type="line"/>
      <point x="444.4" y="0.0" type="line"/>
      <point x="444.4" y="615.6" type="line"/>
      <point x="1050.2" y="615.6" type="line"/>
      <point x="1050.2" y="875.2" type="line"/>
      <point x="444.4" y="875.2" type="line"/>
      <point x="444.4" y="1230.0" type="line"/>
      <point x="1115.0" y="1230.0" type="line"/>
      <point x="1115.0" y="1489.0" type="line"/>
      <point x="129.6" y="1489.0" type="line"/>
    </contour>
  </outline>
</glyph>
<glyph name="G" format="2">
  <advance height="2479.0" width="1558.2"/>
  <unicode hex="0047"/>
  <anchor x="790.2" y="3.5999999999999996" name="bottom"/>
  <anchor x="793.2" y="1676.0" name="top"/>
  <outline>
    <contour>
      <point x="1117.4" y="1008.4" type="curve"/>
      <point x="1437.2" y="1008.4" type="line"/>
      <point x="1396.2" y="1303.0"/>
      <point x="1136.6" y="1510.0"/>
      <point x="799.8" y="1510.0" type="curve" smooth="yes"/>
      <point x="406.4" y="1510.0"/>
      <point x="102.8" y="1226.2"/>
      <point x="102.8" y="743.2" type="curve" smooth="yes"/>
      <point x="102.8" y="271.8"/>
      <point x="387.0" y="-20.0"/>
      <point x="806.0" y="-20.0" type="curve" smooth="yes"/>
      <point x="1182.0" y="-20.0"/>
      <point x="1450.6" y="217.2"/>
      <point x="1450.6" y="609.0" type="curve" smooth="yes"/>
      <point x="1450.6" y="797.2" type="line"/>
      <point x="827.8" y="797.2" type="line"/>
      <point x="827.8" y="560.4" type="line"/>
      <point x="1211.0" y="560.4" type="line"/>
      <point x="1147.6" y="569.0" type="line"/>
      <point x="1147.6" y="379.0"/>
      <point x="1021.2" y="258.4"/>
      <point x="807.8" y="258.4" type="curve" smooth="yes"/>
      <point x="572.0" y="258.4"/>
      <point x="422.4" y="434.8"/>
      <point x="422.4" y="746.8" type="curve" smooth="yes"/>
      <point x="422.4" y="1056.4"/>
      <point x="577.4" y="1231.2"/>
      <point x="805.2" y="1231.2" type="curve" smooth="yes"/>
      <point x="967.4" y="1231.2"/>
      <point x="1077.4" y="1148.0"/>
    </contour>
  </outline>
</glyph>
<glyph name="H" format="2">
  <advance height="2479.0" width="1528.0"/>
  <unicode hex="0048"/>
  <anchor x="763.2" y="0.0" name="bottom"/>
  <anchor x="290.4" y="-1.2000000000000002" name="cedilla"/>
  <anchor x="1540.0" y="123.4" name="cyrtic"/>
  <anchor x="1398.0" y="0.0" name="right"/>
  <anchor x="94.6" y="1489.0" name="tonos"/>
  <anchor x="766.8" y="1677.2" name="top"/>
  <outline>
    <contour>
      <point x="129.6" y="0.0" type="line"/>
      <point x="444.4" y="0.0" type="line"/>
      <point x="444.4" y="615.6" type="line"/>
      <point x="1083.6" y="615.6" type="line"/>
      <point x="1083.6" y="0.0" type="line"/>
      <point x="1398.0" y="0.0" type="line"/>
      <point x="1398.0" y="1489.0" type="line"/>
      <point x="1083.6" y="1489.0" type="line"/>
      <point x="1083.6" y="875.2" type="line"/>
      <point x="444.4" y="875.2" type="line"/>
      <point x="444.4" y="1489.0" type="line"/>
      <point x="129.6" y="1489.0" type="line"/>
    </contour>
  </outline>
</glyph>
<glyph name="J" format="2">
  <advance height="2479.0" width="1167.2"/>
  <unicode hex="004A"/>
  <anchor x="879.4" y="884.0" name="cross"/>
  <anchor x="881.2" y="1676.0" name="top"/>
  <outline>
    <contour>
      <point x="726.4" y="1489.0" type="line"/>
      <point x="726.4" y="450.8" type="line"/>
      <point x="725.2" y="307.4"/>
      <point x="660.8" y="232.39999999999998"/>
      <point x="544.4" y="232.39999999999998" type="curve" smooth="yes"/>
      <point x="434.2" y="232.39999999999998"/>
      <point x="364.0" y="301.0"/>
      <point x="361.6" y="418.6" type="curve"/>
      <point x="47.4" y="418.6" type="line"/>
      <point x="46.800000000000004" y="121.2"/>
      <point x="259.0" y="-20.0"/>
      <point x="528.8" y="-20.0" type="curve" smooth="yes"/>
      <point x="830.4" y="-20.0"/>
      <point x="1036.6" y="161.8"/>
      <point x="1037.2" y="450.8" type="curve"/>
      <point x="1037.2" y="1489.0" type="line"/>
    </contour>
  </outline>
</glyph>
<glyph name="K" format="2">
  <advance height="2479.0" width="1411.8"/>
  <unicode hex="004B"/>
  <anchor x="700.2" y="1.7999999999999998" name="bottom"/>
  <anchor x="704.4" y="1676.0" name="top"/>
  <outline>
    <contour>
      <point x="129.6" y="0.0" type="line"/>
      <point x="444.4" y="0.0" type="line"/>
      <point x="444.4" y="423.6" type="line"/>
      <point x="599.2" y="612.2" type="line"/>
      <point x="1007.4" y="0.0" type="line"/>
      <point x="1384.4" y="0.0" type="line"/>
      <point x="825.0" y="822.4" type="line"/>
      <point x="1377.2" y="1489.0" type="line"/>
      <point x="1000.2" y="1489.0" type="line"/>
      <point x="463.8" y="832.6" type="line"/>
      <point x="444.4" y="832.6" type="line"/>
      <point x="444.4" y="1489.0" type="line"/>
      <point x="129.6" y="1489.0" type="line"/>
    </contour>
  </outline>
</glyph>
<glyph name="L" format="2">
  <advance height="2479.0" width="1162.2"/>
  <unicode hex="004C"/>
  <anchor x="606.2" y="0.0" name="bottom"/>
  <anchor x="286.6" y="780.0" name="cross"/>
  <anchor x="605.0" y="841.4" name="dot"/>
  <anchor x="668.0" y="1489.0" name="raccent"/>
  <anchor x="284.8" y="1676.0" name="top"/>
  <outline>
    <contour>
      <point x="129.6" y="0.0" type="line"/>
      <point x="1083.0" y="0.0" type="line"/>
      <point x="1083.0" y="259.6" type="line"/>
      <point x="444.4" y="259.6" type="line"/>
      <point x="444.4" y="1489.0" type="line"/>
      <point x="129.6" y="1489.0" type="line"/>
    </contour>
  </outline>
</glyph>
<glyph name="M" format="2">
  <advance height="2479.0" width="1873.6"/>
  <unicode hex="004D"/>
  <anchor x="936.8" y="0.0" name="bottom"/>
  <anchor x="1743.6" y="0.0" name="right"/>
  <anchor x="936.8" y="1676.0" name="top"/>
  <outline>
    <contour>
      <point x="129.6" y="1489.0" type="line"/>
      <point x="129.6" y="0.0" type="line"/>
      <point x="434.8" y="0.0" type="line"/>
      <point x="434.8" y="973.0" type="line"/>
      <point x="447.4" y="973.0" type="line"/>
      <point x="832.6" y="0.0" type="line"/>
      <point x="1040.6" y="0.0" type="line"/>
      <point x="1425.8" y="969.4" type="line"/>
      <point x="1439.0" y="969.4" type="line"/>
      <point x="1439.0" y="0.0" type="line"/>
      <point x="1743.6" y="0.0" type="line"/>
      <point x="1743.6" y="1489.0" type="line"/>
      <point x="1355.4" y="1489.0" type="line"/>
      <point x="945.4" y="488.79999999999995" type="line"/>
      <point x="927.8" y="488.79999999999995" type="line"/>
      <point x="517.8" y="1489.0" type="line"/>
    </contour>
  </outline>
</glyph>
<glyph name="N" format="2">
  <advance height="2479.0" width="1505.4"/>
  <unicode hex="004E"/>
  <anchor x="753.6" y="0.0" name="bottom"/>
  <anchor x="1416.6" y="0.0" name="right"/>
  <anchor x="753.6" y="1676.0" name="top"/>
  <outline>
    <contour>
      <point x="1375.4" y="1489.0" type="line"/>
      <point x="1061.6" y="1489.0" type="line"/>
      <point x="1061.6" y="552.8" type="line"/>
      <point x="1049.0" y="552.8" type="line"/>
      <point x="405.4" y="1489.0" type="line"/>
      <point x="129.6" y="1489.0" type="line"/>
      <point x="129.6" y="0.0" type="line"/>
      <point x="444.4" y="0.0" type="line"/>
      <point x="444.4" y="937.4" type="line"/>
      <point x="455.4" y="937.4" type="line"/>
      <point x="1103.0" y="0.0" type="line"/>
      <point x="1375.4" y="0.0" type="line"/>
    </contour>
  </outline>
</glyph>
<glyph name="O" format="2">
  <advance height="2479.0" width="1601.0"/>
  <unicode hex="004F"/>
  <anchor x="801.0" y="0.0" name="bottom"/>
  <anchor x="981.4" y="1.1999999999999993" name="ogonek"/>
  <anchor x="182.4" y="1489.0" name="tonos"/>
  <anchor x="801.0" y="1676.0" name="top"/>
  <outline>
    <contour>
      <point x="1498.2" y="745.0" type="curve"/>
      <point x="1498.2" y="1231.6"/>
      <point x="1195.8" y="1510.0"/>
      <point x="801.0" y="1510.0" type="curve" smooth="yes"/>
      <point x="403.8" y="1510.0"/>
      <point x="102.8" y="1231.6"/>
      <point x="102.8" y="745.0" type="curve"/>
      <point x="102.8" y="259.2"/>
      <point x="403.8" y="-20.0"/>
      <point x="801.0" y="-20.0" type="curve" smooth="yes"/>
      <point x="1195.8" y="-20.0"/>
      <point x="1498.2" y="257.4"/>
    </contour>
    <contour>
      <point x="1179.0" y="745.0" type="curve"/>
      <point x="1179.0" y="429.4"/>
      <point x="1029.0" y="258.4"/>
      <point x="801.0" y="258.4" type="curve" smooth="yes"/>
      <point x="572.0" y="258.4"/>
      <point x="422.4" y="429.4"/>
      <point x="422.4" y="745.0" type="curve"/>
      <point x="422.4" y="1060.0"/>
      <point x="572.0" y="1231.2"/>
      <point x="801.0" y="1231.2" type="curve" smooth="yes"/>
      <point x="1029.0" y="1231.2"/>
      <point x="1179.0" y="1060.0"/>
    </contour>
  </outline>
</glyph>
<glyph name="P" format="2">
  <advance height="2479.0" width="1326.4"/>
  <unicode hex="0050"/>
  <anchor x="103.6" y="1489.0" name="tonos"/>
  <anchor x="653.8" y="1676.0" name="top"/>
  <outline>
    <contour>
      <point x="129.6" y="0.0" type="line"/>
      <point x="444.4" y="0.0" type="line"/>
      <point x="444.4" y="1231.8" type="line"/>
      <point x="657.0" y="1231.8" type="line" smooth="yes"/>
      <point x="839.0" y="1231.8"/>
      <point x="926.8" y="1133.4"/>
      <point x="926.8" y="985.0" type="curve" smooth="yes"/>
      <point x="926.8" y="837.2"/>
      <point x="839.0" y="735.2"/>
      <point x="658.2" y="735.2" type="curve" smooth="yes"/>
      <point x="334.4" y="735.2" type="line"/>
      <point x="334.4" y="482.8" type="line"/>
      <point x="709.2" y="482.8" type="line" smooth="yes"/>
      <point x="1051.6" y="482.8"/>
      <point x="1251.2" y="687.2"/>
      <point x="1251.2" y="985.0" type="curve" smooth="yes"/>
      <point x="1251.2" y="1280.4"/>
      <point x="1055.2" y="1489.0"/>
      <point x="717.0" y="1489.0" type="curve" smooth="yes"/>
      <point x="129.6" y="1489.0" type="line"/>
    </contour>
  </outline>
</glyph>
<glyph name="Q" format="2">
  <advance height="2479.0" width="1602.8"/>
  <unicode hex="0051"/>
  <anchor x="801.0" y="0.0" name="bottom"/>
  <anchor x="981.4" y="1.1999999999999993" name="ogonek"/>
  <anchor x="182.4" y="1489.0" name="tonos"/>
  <anchor x="801.0" y="1676.0" name="top"/>
  <outline>
    <contour>
      <point x="691.6" y="517.8" type="line"/>
      <point x="922.2" y="214.39999999999998" type="line"/>
      <point x="1010.2" y="89.2" type="line"/>
      <point x="1181.6" y="-122.6" type="line"/>
      <point x="1475.6" y="-122.6" type="line"/>
      <point x="1226.8" y="190.8" type="line"/>
      <point x="1094.0" y="344.8" type="line"/>
      <point x="959.2" y="517.8" type="line"/>
    </contour>
    <component base="O"/>
  </outline>
</glyph>
<glyph name="R" format="2">
  <advance height="2479.0" width="1343.8"/>
  <unicode hex="0052"/>
  <anchor x="687.6" y="0.0" name="bottom"/>
  <anchor x="663.4" y="1676.0" name="top"/>
  <outline>
    <contour>
      <point x="129.6" y="0.0" type="line"/>
      <point x="444.4" y="0.0" type="line"/>
      <point x="444.4" y="1231.8" type="line"/>
      <point x="657.0" y="1231.8" type="line" smooth="yes"/>
      <point x="838.6" y="1231.8"/>
      <point x="926.8" y="1151.4"/>
      <point x="926.8" y="1003.0" type="curve" smooth="yes"/>
      <point x="926.8" y="855.2"/>
      <point x="838.6" y="781.6"/>
      <point x="658.2" y="781.6" type="curve" smooth="yes"/>
      <point x="315.6" y="781.6" type="line"/>
      <point x="315.6" y="528.0" type="line"/>
      <point x="709.2" y="528.0" type="line" smooth="yes"/>
      <point x="1051.6" y="528.0"/>
      <point x="1251.2" y="705.4"/>
      <point x="1251.2" y="1003.0" type="curve" smooth="yes"/>
      <point x="1251.2" y="1298.4"/>
      <point x="1055.2" y="1489.0"/>
      <point x="717.0" y="1489.0" type="curve" smooth="yes"/>
      <point x="129.6" y="1489.0" type="line"/>
    </contour>
    <contour>
      <point x="933.8" y="678.0" type="line"/>
      <point x="594.0" y="678.0" type="line"/>
      <point x="956.8" y="0.0" type="line"/>
      <point x="1303.8" y="0.0" type="line"/>
    </contour>
  </outline>
</glyph>
<glyph name="S" format="2">
  <advance height="2479.0" width="1340.8"/>
  <unicode hex="0053"/>
  <anchor x="675.4" y="-10.4" name="bottom"/>
  <anchor x="674.2" y="0.0" name="cedilla"/>
  <anchor x="671.2" y="1676.0" name="top"/>
  <outline>
    <contour>
      <point x="937.4" y="1061.2" type="curve"/>
      <point x="1239.2" y="1061.2" type="line"/>
      <point x="1234.8" y="1326.4"/>
      <point x="1017.0" y="1510.0"/>
      <point x="685.2" y="1510.0" type="curve" smooth="yes"/>
      <point x="358.8" y="1510.0"/>
      <point x="119.2" y="1329.0"/>
      <point x="120.4" y="1059.2" type="curve" smooth="yes"/>
      <point x="119.80000000000001" y="839.0"/>
      <point x="275.4" y="713.4"/>
      <point x="526.6" y="653.0" type="curve" smooth="yes"/>
      <point x="689.0" y="613.0" type="line" smooth="yes"/>
      <point x="851.4" y="573.2"/>
      <point x="941.2" y="526.6"/>
      <point x="941.8" y="426.2" type="curve" smooth="yes"/>
      <point x="941.2" y="317.2"/>
      <point x="838.2" y="243.2"/>
      <point x="677.8" y="243.2" type="curve" smooth="yes"/>
      <point x="513.6" y="243.2"/>
      <point x="396.2" y="318.2"/>
      <point x="386.4" y="468.0" type="curve"/>
      <point x="81.2" y="468.0" type="line"/>
      <point x="89.6" y="146.0"/>
      <point x="320.6" y="-20.6"/>
      <point x="681.4" y="-20.6" type="curve" smooth="yes"/>
      <point x="1045.4" y="-20.6"/>
      <point x="1259.0" y="152.2"/>
      <point x="1259.6" y="425.0" type="curve" smooth="yes"/>
      <point x="1259.0" y="673.2"/>
      <point x="1071.4" y="804.6"/>
      <point x="813.0" y="863.6" type="curve" smooth="yes"/>
      <point x="679.4" y="895.2" type="line" smooth="yes"/>
      <point x="549.8" y="924.8"/>
      <point x="441.2" y="973.0"/>
      <point x="443.6" y="1080.2" type="curve" smooth="yes"/>
      <point x="444.2" y="1176.0"/>
      <point x="529.0" y="1246.8"/>
      <point x="682.8" y="1246.8" type="curve" smooth="yes"/>
      <point x="833.8" y="1246.8"/>
      <point x="925.4" y="1178.2"/>
    </contour>
  </outline>
</glyph>
<glyph name="T" format="2">
  <advance height="2479.0" width="1369.0"/>
  <unicode hex="0054"/>
  <anchor x="683.4" y="0.0" name="bottom"/>
  <anchor x="689.4" y="0.0" name="cedilla"/>
  <anchor x="683.4" y="706.8" name="cross"/>
  <anchor x="977.2" y="123.4" name="cyrtic"/>
  <anchor x="792.2" y="0.0" name="right"/>
  <anchor x="685.2" y="1676.0" name="top"/>
  <outline>
    <contour>
      <point x="72.6" y="1230.0" type="line"/>
      <point x="528.6" y="1230.0" type="line"/>
      <point x="528.6" y="0.0" type="line"/>
      <point x="840.4" y="0.0" type="line"/>
      <point x="840.4" y="1230.0" type="line"/>
      <point x="1296.4" y="1230.0" type="line"/>
      <point x="1296.4" y="1489.0" type="line"/>
      <point x="72.6" y="1489.0" type="line"/>
    </contour>
  </outline>
</glyph>
<glyph name="U" format="2">
  <advance height="2479.0" width="1494.4"/>
  <unicode hex="0055"/>
  <anchor x="747.0" y="-2.6000000000000014" name="bottom"/>
  <anchor x="936.8" y="6.0" name="ogonek"/>
  <anchor x="857.8" y="0.0" name="right"/>
  <anchor x="747.0" y="1676.0" name="top"/>
  <outline>
    <contour>
      <point x="1049.4" y="1489.0" type="line"/>
      <point x="1049.4" y="549.2" type="line" smooth="yes"/>
      <point x="1049.4" y="378.6"/>
      <point x="930.0" y="256.4"/>
      <point x="747.0" y="256.4" type="curve" smooth="yes"/>
      <point x="564.4" y="256.4"/>
      <point x="444.4" y="378.6"/>
      <point x="444.4" y="549.2" type="curve" smooth="yes"/>
      <point x="444.4" y="1489.0" type="line"/>
      <point x="129.6" y="1489.0" type="line"/>
      <point x="129.6" y="522.2" type="line" smooth="yes"/>
      <point x="129.6" y="196.2"/>
      <point x="375.4" y="-20.6"/>
      <point x="747.0" y="-20.6" type="curve" smooth="yes"/>
      <point x="1116.6" y="-20.6"/>
      <point x="1364.4" y="196.2"/>
      <point x="1364.4" y="522.2" type="curve" smooth="yes"/>
      <point x="1364.4" y="1489.0" type="line"/>
    </contour>
  </outline>
</glyph>
<glyph name="V" format="2">
  <advance height="2479.0" width="1531.4"/>
  <unicode hex="0056"/>
  <anchor x="765.8" y="0.0" name="bottom"/>
  <anchor x="765.8" y="1676.0" name="top"/>
  <outline>
    <contour>
      <point x="398.2" y="1489.0" type="line"/>
      <point x="49.0" y="1489.0" type="line"/>
      <point x="562.4" y="0.0" type="line"/>
      <point x="968.6" y="0.0" type="line"/>
      <point x="1482.6" y="1489.0" type="line"/>
      <point x="1132.8" y="1489.0" type="line"/>
      <point x="772.4" y="357.8" type="line"/>
      <point x="759.0" y="357.8" type="line"/>
    </contour>
  </outline>
</glyph>
<glyph name="W" format="2">
  <advance height="2479.0" width="2115.8"/>
  <unicode hex="0057"/>
  <anchor x="1058.4" y="4.800000000000001" name="bottom"/>
  <anchor x="1058.4" y="1676.0" name="top"/>
  <outline>
    <contour>
      <point x="462.4" y="0.0" type="line"/>
      <point x="769.0" y="0.0" type="line"/>
      <point x="1052.4" y="974.0" type="line"/>
      <point x="1064.0" y="974.0" type="line"/>
      <point x="1347.4" y="0.0" type="line"/>
      <point x="1654.0" y="0.0" type="line"/>
      <point x="2080.6" y="1489.0" type="line"/>
      <point x="1736.4" y="1489.0" type="line"/>
      <point x="1490.2" y="452.4" type="line"/>
      <point x="1477.4" y="452.4" type="line"/>
      <point x="1205.0" y="1489.0" type="line"/>
      <point x="911.4" y="1489.0" type="line"/>
      <point x="639.4" y="454.2" type="line"/>
      <point x="626.2" y="454.2" type="line"/>
      <point x="380.0" y="1489.0" type="line"/>
      <point x="36.2" y="1489.0" type="line"/>
    </contour>
  </outline>
</glyph>
<glyph name="X" format="2">
  <advance height="2479.0" width="1463.2"/>
  <unicode hex="0058"/>
  <anchor x="730.8" y="1.200000000000001" name="bottom"/>
  <anchor x="730.8" y="745.0" name="cross"/>
  <anchor x="1346.2" y="123.4" name="cyrtic"/>
  <anchor x="1226.8" y="0.0" name="right"/>
  <anchor x="730.8" y="1676.0" name="top"/>
  <outline>
    <contour>
      <point x="424.6" y="1489.0" type="line"/>
      <point x="67.6" y="1489.0" type="line"/>
      <point x="524.8" y="745.0" type="line"/>
      <point x="58.6" y="0.0" type="line"/>
      <point x="419.79999999999995" y="0.0" type="line"/>
      <point x="725.2" y="508.4" type="line"/>
      <point x="736.2" y="508.4" type="line"/>
      <point x="1042.2" y="0.0" type="line"/>
      <point x="1404.6" y="0.0" type="line"/>
      <point x="939.8" y="745.0" type="line"/>
      <point x="1394.4" y="1489.0" type="line"/>
      <point x="1038.6" y="1489.0" type="line"/>
      <point x="736.2" y="981.6" type="line"/>
      <point x="725.2" y="981.6" type="line"/>
    </contour>
  </outline>
</glyph>
<glyph name="Y" format="2">
  <advance height="2479.0" width="1483.4"/>
  <unicode hex="0059"/>
  <anchor x="742.2" y="0.0" name="bottom"/>
  <anchor x="742.2" y="570.8" name="cross"/>
  <anchor x="898.2" y="0.0" name="ogonek"/>
  <anchor x="-43.199999999999996" y="1489.0" name="tonos"/>
  <anchor x="742.2" y="1676.0" name="top"/>
  <outline>
    <contour>
      <point x="41.8" y="1489.0" type="line"/>
      <point x="585.6" y="526.4" type="line"/>
      <point x="585.6" y="0.0" type="line"/>
      <point x="898.2" y="0.0" type="line"/>
      <point x="898.2" y="526.4" type="line"/>
      <point x="1441.6" y="1489.0" type="line"/>
      <point x="1088.6" y="1489.0" type="line"/>
      <point x="748.4" y="848.0" type="line"/>
      <point x="735.0" y="848.0" type="line"/>
      <point x="395.2" y="1489.0" type="line"/>
    </contour>
  </outline>
</glyph>
<glyph name="Z" format="2">
  <advance height="2479.0" width="1365.8"/>
  <unicode hex="005A"/>
  <anchor x="681.4" y="0.0" name="bottom"/>
  <anchor x="707.2" y="780.0" name="cross"/>
  <anchor x="685.6" y="1676.0" name="top"/>
  <outline>
    <contour>
      <point x="113.6" y="0.0" type="line"/>
      <point x="1254.0" y="0.0" type="line"/>
      <point x="1254.0" y="259.6" type="line"/>
      <point x="508.6" y="259.6" type="line"/>
      <point x="1252.2" y="1302.6" type="line"/>
      <point x="1252.2" y="1489.0" type="line"/>
      <point x="111.8" y="1489.0" type="line"/>
      <point x="111.8" y="1230.0" type="line"/>
      <point x="857.2" y="1230.0" type="line"/>
      <point x="113.6" y="186.8" type="line"/>
    </contour>
  </outline>
</glyph>
<glyph name="bracketleft" format="2">
  <advance height="2479.0" width="838.0"/>
  <unicode hex="005B"/>
  <outline>
    <contour>
      <point x="217.0" y="-323.4" type="line"/>
      <point x="790.8" y="-323.4" type="line"/>
      <point x="790.8" y="-92.2" type="line"/>
      <point x="516.2" y="-92.2" type="line"/>
      <point x="516.2" y="1286.2" type="line"/>
      <point x="790.8" y="1286.2" type="line"/>
      <point x="790.8" y="1517.0" type="line"/>
      <point x="217.0" y="1517.0" type="line"/>
    </contour>
  </outline>
</glyph>
<glyph name="backslash" format="2">
  <advance height="2479.0" width="798.4"/>
  <unicode hex="005C"/>
  <outline>
    <contour>
      <point x="505.6" y="-224.0" type="line"/>
      <point x="772.4" y="-224.0" type="line"/>
      <point x="292.4" y="1559.0" type="line"/>
      <point x="25.6" y="1559.0" type="line"/>
    </contour>
  </outline>
</glyph>
<glyph name="asciicircum" format="2">
  <advance height="2479.0" width="998.4"/>
  <unicode hex="005E"/>
  <outline>
    <contour>
      <point x="473.2" y="1328.0" type="line"/>
      <point x="473.2" y="1248.8" type="line"/>
      <point x="525.2" y="1248.8" type="line"/>
      <point x="525.2" y="1328.0" type="line"/>
    </contour>
    <contour>
      <point x="67.2" y="815.0" type="line"/>
      <point x="303.4" y="815.0" type="line"/>
      <point x="506.4" y="1277.8" type="line"/>
      <point x="492.0" y="1277.8" type="line"/>
      <point x="696.2" y="815.0" type="line"/>
      <point x="931.2" y="815.0" type="line"/>
      <point x="624.6" y="1456.8" type="line"/>
      <point x="373.8" y="1456.8" type="line"/>
    </contour>
  </outline>
</glyph>
<glyph name="underscore" format="2">
  <advance height="2479.0" width="975.4"/>
  <unicode hex="005F"/>
  <anchor x="487.6" y="137.8" name="_bottom"/>
  <outline>
    <contour>
      <point x="976.6" y="0.0" type="line"/>
      <point x="-1.2000000000000002" y="0.0" type="line"/>
      <point x="-1.2000000000000002" y="-235.0" type="line"/>
      <point x="976.6" y="-235.0" type="line"/>
    </contour>
  </outline>
</glyph>
<glyph name="grave" format="2">
  <advance height="2479.0" width="1018.0"/>
  <unicode hex="0060"/>
  <anchor x="618.2" y="1303.0" name="_top"/>
  <anchor x="608.6" y="1676.0" name="top"/>
  <outline>
    <contour>
      <point x="510.4" y="1261.4" type="line"/>
      <point x="729.8" y="1261.4" type="line"/>
      <point x="575.0" y="1592.2" type="line"/>
      <point x="288.8" y="1592.2" type="line"/>
    </contour>
  </outline>
</glyph>
<glyph name="a" format="2">
  <advance height="2479.0" width="1188.0"/>
  <unicode hex="0061"/>
  <anchor x="596.4" y="0.0" name="bottom"/>
  <anchor x="1071.2" y="0.0" name="ogonek"/>
  <anchor x="609.0" y="1303.0" name="rhalfring"/>
  <anchor x="608.6" y="1303.0" name="top"/>
  <outline>
    <contour>
      <point x="442.2" y="-23.8" type="curve" smooth="yes"/>
      <point x="607.8" y="-23.8"/>
      <point x="714.0" y="50.8"/>
      <point x="768.4" y="154.6" type="curve"/>
      <point x="777.4" y="154.6" type="line"/>
      <point x="777.4" y="0.0" type="line"/>
      <point x="1071.2" y="0.0" type="line"/>
      <point x="1071.2" y="753.4" type="line" smooth="yes"/>
      <point x="1071.2" y="1019.6"/>
      <point x="845.2" y="1132.0"/>
      <point x="597.0" y="1132.0" type="curve" smooth="yes"/>
      <point x="329.0" y="1132.0"/>
      <point x="153.8" y="1003.4"/>
      <point x="110.6" y="799.8" type="curve"/>
      <point x="397.8" y="776.6" type="line"/>
      <point x="418.0" y="851.0"/>
      <point x="484.6" y="905.0"/>
      <point x="595.8" y="905.0" type="curve" smooth="yes"/>
      <point x="700.6" y="905.0"/>
      <point x="761.8" y="852.6"/>
      <point x="761.8" y="760.2" type="curve" smooth="yes"/>
      <point x="761.8" y="756.4" type="line" smooth="yes"/>
      <point x="761.8" y="684.2"/>
      <point x="685.0" y="675.0"/>
      <point x="491.2" y="656.2" type="curve" smooth="yes"/>
      <point x="269.8" y="635.8"/>
      <point x="71.4" y="561.0"/>
      <point x="71.4" y="311.6" type="curve" smooth="yes"/>
      <point x="71.4" y="91.2"/>
      <point x="228.6" y="-23.8"/>
    </contour>
    <contour>
      <point x="531.2" y="189.6" type="curve" smooth="yes"/>
      <point x="435.6" y="189.6"/>
      <point x="367.2" y="237.0"/>
      <point x="367.2" y="322.4" type="curve" smooth="yes"/>
      <point x="367.2" y="409.0"/>
      <point x="439.2" y="451.8"/>
      <point x="548.2" y="467.6" type="curve" smooth="yes"/>
      <point x="615.8" y="477.2"/>
      <point x="726.2" y="493.4"/>
      <point x="763.0" y="517.8" type="curve"/>
      <point x="763.0" y="399.2" type="line" smooth="yes"/>
      <point x="763.0" y="282.4"/>
      <point x="667.4" y="189.6"/>
    </contour>
  </outline>
</glyph>
<glyph name="b" format="2">
  <advance height="2479.0" width="1301.0"/>
  <unicode hex="0062"/>
  <anchor x="654.2" y="0.0" name="bottom"/>
  <anchor x="283.6" y="1280.0" name="cross"/>
  <anchor x="774.0" y="1303.0" name="top"/>
  <outline>
    <contour>
      <point x="129.6" y="0.0" type="line"/>
      <point x="435.4" y="0.0" type="line"/>
      <point x="435.4" y="178.6" type="line"/>
      <point x="448.6" y="178.6" type="line"/>
      <point x="491.6" y="86.4"/>
      <point x="585.0" y="-18.2"/>
      <point x="765.8" y="-18.2" type="curve" smooth="yes"/>
      <point x="1020.6" y="-18.2"/>
      <point x="1219.2" y="183.6"/>
      <point x="1219.2" y="557.8" type="curve" smooth="yes"/>
      <point x="1219.2" y="941.0"/>
      <point x="1012.2" y="1132.0"/>
      <point x="765.8" y="1132.0" type="curve" smooth="yes"/>
      <point x="579.6" y="1132.0"/>
      <point x="489.8" y="1020.8"/>
      <point x="448.6" y="929.2" type="curve"/>
      <point x="439.0" y="929.2" type="line"/>
      <point x="439.0" y="1489.0" type="line"/>
      <point x="129.6" y="1489.0" type="line"/>
    </contour>
    <contour>
      <point x="433.0" y="559.0" type="curve" smooth="yes"/>
      <point x="433.0" y="758.0"/>
      <point x="517.6" y="884.6"/>
      <point x="667.2" y="884.6" type="curve" smooth="yes"/>
      <point x="821.0" y="884.6"/>
      <point x="902.6" y="752.0"/>
      <point x="902.6" y="559.0" type="curve" smooth="yes"/>
      <point x="902.6" y="363.8"/>
      <point x="819.8" y="228.8"/>
      <point x="667.2" y="228.8" type="curve" smooth="yes"/>
      <point x="518.8" y="228.8"/>
      <point x="433.0" y="359.6"/>
    </contour>
  </outline>
</glyph>
<glyph name="c" format="2">
  <advance height="2479.0" width="1202.4"/>
  <unicode hex="0063"/>
  <anchor x="627.8" y="0.0" name="cedilla"/>
  <anchor x="627.8" y="1303.0" name="top"/>
  <outline>
    <contour>
      <point x="628.4" y="-21.2" type="curve" smooth="yes"/>
      <point x="925.8" y="-21.2"/>
      <point x="1112.8" y="152.6"/>
      <point x="1126.8" y="409.4" type="curve"/>
      <point x="835.2" y="409.4" type="line"/>
      <point x="817.0" y="290.4"/>
      <point x="738.4" y="223.39999999999998"/>
      <point x="632.0" y="223.39999999999998" type="curve" smooth="yes"/>
      <point x="486.8" y="223.39999999999998"/>
      <point x="393.0" y="345.0"/>
      <point x="393.0" y="559.0" type="curve" smooth="yes"/>
      <point x="393.0" y="770.0"/>
      <point x="488.0" y="890.0"/>
      <point x="632.0" y="890.0" type="curve" smooth="yes"/>
      <point x="745.8" y="890.0"/>
      <point x="817.8" y="815.0"/>
      <point x="835.2" y="704.4" type="curve"/>
      <point x="1126.8" y="704.4" type="line"/>
      <point x="1114.0" y="962.6"/>
      <point x="919.0" y="1132.0"/>
      <point x="627.2" y="1132.0" type="curve" smooth="yes"/>
      <point x="287.6" y="1132.0"/>
      <point x="78.6" y="896.6"/>
      <point x="78.6" y="554.8" type="curve" smooth="yes"/>
      <point x="78.6" y="214.4"/>
      <point x="284.4" y="-21.2"/>
    </contour>
  </outline>
</glyph>
<glyph name="e" format="2">
  <advance height="2479.0" width="1224.2"/>
  <unicode hex="0065"/>
  <anchor x="613.4" y="0.0" name="bottom"/>
  <anchor x="617.6" y="0.0" name="cedilla"/>
  <anchor x="881.4" y="29.4" name="ogonek"/>
  <anchor x="613.4" y="1303.0" name="top"/>
  <outline>
    <contour>
      <point x="632.2" y="-21.2" type="curve"/>
      <point x="909.0" y="-21.2"/>
      <point x="1094.8" y="112.8"/>
      <point x="1138.8" y="320.2" type="curve"/>
      <point x="852.2" y="338.6" type="line"/>
      <point x="820.8" y="253.8"/>
      <point x="740.8" y="209.6"/>
      <point x="637.6" y="209.6" type="curve" smooth="yes"/>
      <point x="483.0" y="209.6"/>
      <point x="384.6" y="312.0"/>
      <point x="384.6" y="478.4" type="curve" smooth="yes"/>
      <point x="384.6" y="661.4" type="line" smooth="yes"/>
      <point x="385.8" y="792.6"/>
      <point x="484.2" y="900.2"/>
      <point x="625.4" y="900.2" type="curve"/>
      <point x="759.8" y="900.2"/>
      <point x="852.4" y="805.0"/>
      <point x="854.2" y="671.8" type="curve"/>
      <point x="202.4" y="671.8" type="line"/>
      <point x="202.4" y="479.0" type="line"/>
      <point x="1145.6" y="479.0" type="line"/>
      <point x="1145.6" y="564.6" type="line" smooth="yes"/>
      <point x="1145.6" y="944.0"/>
      <point x="916.0" y="1132.0"/>
      <point x="620.0" y="1132.0" type="curve" smooth="yes"/>
      <point x="291.2" y="1132.0"/>
      <point x="78.6" y="898.4"/>
      <point x="78.6" y="553.6" type="curve" smooth="yes"/>
      <point x="78.6" y="199.2"/>
      <point x="288.6" y="-21.2"/>
    </contour>
  </outline>
</glyph>
<glyph name="f" format="2">
  <advance height="2479.0" width="789.4"/>
  <unicode hex="0066"/>
  <anchor x="346.4" y="0.0" name="bottom"/>
  <anchor x="347.8" y="625.6" name="cross"/>
  <anchor x="453.6" y="1676.0" name="top"/>
  <outline>
    <contour>
      <point x="724.6" y="1117.0" type="line"/>
      <point x="34.6" y="1117.0" type="line"/>
      <point x="34.6" y="884.4" type="line"/>
      <point x="724.6" y="884.4" type="line"/>
    </contour>
    <component base="_part.f_base" xOffset="-10.2"/>
  </outline>
</glyph>
<glyph name="g" format="2">
  <advance height="2479.0" width="1297.2"/>
  <unicode hex="0067"/>
  <anchor x="633.2" y="-426.4" name="bottom"/>
  <anchor x="1018.0" y="565.8" name="cross"/>
  <anchor x="634.0" y="1303.0" name="top"/>
  <outline>
    <contour>
      <point x="627.2" y="-442.0" type="curve" smooth="yes"/>
      <point x="946.2" y="-442.0"/>
      <point x="1173.2" y="-296.6"/>
      <point x="1173.2" y="-11.0" type="curve" smooth="yes"/>
      <point x="1173.2" y="1117.0" type="line"/>
      <point x="865.6" y="1117.0" type="line"/>
      <point x="865.6" y="929.2" type="line"/>
      <point x="853.4" y="929.2" type="line"/>
      <point x="812.4" y="1020.8"/>
      <point x="721.4" y="1132.0"/>
      <point x="534.6" y="1132.0" type="curve" smooth="yes"/>
      <point x="289.2" y="1132.0"/>
      <point x="82.2" y="941.0"/>
      <point x="82.2" y="561.0" type="curve" smooth="yes"/>
      <point x="82.2" y="189.2"/>
      <point x="284.0" y="15.8"/>
      <point x="535.2" y="15.8" type="curve" smooth="yes"/>
      <point x="713.0" y="15.8"/>
      <point x="813.0" y="105.4"/>
      <point x="854.0" y="198.0" type="curve"/>
      <point x="866.8" y="198.0" type="line"/>
      <point x="866.8" y="-6.200000000000001" type="line" smooth="yes"/>
      <point x="866.8" y="-160.2"/>
      <point x="768.8" y="-219.60000000000002"/>
      <point x="634.4" y="-219.60000000000002" type="curve" smooth="yes"/>
      <point x="497.4" y="-219.60000000000002"/>
      <point x="428.8" y="-160.0"/>
      <point x="403.2" y="-92.6" type="curve"/>
      <point x="116.2" y="-131.0" type="line"/>
      <point x="153.2" y="-306.8"/>
      <point x="326.0" y="-442.0"/>
    </contour>
    <contour>
      <point x="633.8" y="248.8" type="curve" smooth="yes"/>
      <point x="481.2" y="248.8"/>
      <point x="398.4" y="369.8"/>
      <point x="398.4" y="562.2" type="curve" smooth="yes"/>
      <point x="398.4" y="752.0"/>
      <point x="480.0" y="884.6"/>
      <point x="633.8" y="884.6" type="curve" smooth="yes"/>
      <point x="783.8" y="884.6"/>
      <point x="868.0" y="758.0"/>
      <point x="868.0" y="562.2" type="curve" smooth="yes"/>
      <point x="868.0" y="365.6"/>
      <point x="782.6" y="248.8"/>
    </contour>
  </outline>
</glyph>
<glyph name="h" format="2">
  <advance height="2479.0" width="1278.4"/>
  <unicode hex="0068"/>
  <anchor x="638.6" y="0.0" name="bottom"/>
  <anchor x="281.2" y="0.0" name="cedilla"/>
  <anchor x="274.0" y="1283.8" name="cross"/>
  <anchor x="275.8" y="1676.0" name="top"/>
  <outline>
    <contour>
      <point x="433.4" y="645.6" type="line" smooth="yes"/>
      <point x="434.0" y="790.2"/>
      <point x="522.0" y="874.4"/>
      <point x="648.8" y="874.4" type="curve" smooth="yes"/>
      <point x="775.0" y="874.4"/>
      <point x="848.6" y="793.8"/>
      <point x="848.0" y="656.0" type="curve" smooth="yes"/>
      <point x="848.0" y="0.0" type="line"/>
      <point x="1158.0" y="0.0" type="line"/>
      <point x="1158.0" y="711.8" type="line" smooth="yes"/>
      <point x="1158.0" y="973.0"/>
      <point x="1004.4" y="1132.0"/>
      <point x="771.6" y="1132.0" type="curve" smooth="yes"/>
      <point x="602.2" y="1132.0"/>
      <point x="489.0" y="1051.4"/>
      <point x="437.2" y="920.2" type="curve"/>
      <point x="425.0" y="920.2" type="line"/>
      <point x="425.0" y="1489.0" type="line"/>
      <point x="124.0" y="1489.0" type="line"/>
      <point x="124.0" y="0.0" type="line"/>
      <point x="433.4" y="0.0" type="line"/>
    </contour>
  </outline>
</glyph>
<glyph name="m" format="2">
  <advance height="2479.0" width="1867.6"/>
  <unicode hex="006D"/>
  <anchor x="935.6" y="0.0" name="bottom"/>
  <anchor x="935.6" y="1303.0" name="top"/>
  <outline>
    <contour>
      <point x="124.0" y="0.0" type="line"/>
      <point x="433.4" y="0.0" type="line"/>
      <point x="433.4" y="670.4" type="line" smooth="yes"/>
      <point x="433.4" y="794.2"/>
      <point x="511.6" y="876.2"/>
      <point x="615.0" y="876.2" type="curve" smooth="yes"/>
      <point x="716.8" y="876.2"/>
      <point x="785.6" y="806.2"/>
      <point x="785.6" y="697.2" type="curve" smooth="yes"/>
      <point x="785.6" y="0.0" type="line"/>
      <point x="1085.6" y="0.0" type="line"/>
      <point x="1085.6" y="682.0" type="line" smooth="yes"/>
      <point x="1085.6" y="797.8"/>
      <point x="1152.6" y="876.2"/>
      <point x="1265.2" y="876.2" type="curve" smooth="yes"/>
      <point x="1363.8" y="876.2"/>
      <point x="1437.6" y="814.6"/>
      <point x="1437.6" y="690.4" type="curve" smooth="yes"/>
      <point x="1437.6" y="0.0" type="line"/>
      <point x="1747.2" y="0.0" type="line"/>
      <point x="1747.2" y="751.0" type="line" smooth="yes"/>
      <point x="1747.2" y="993.8"/>
      <point x="1602.6" y="1132.0"/>
      <point x="1394.6" y="1132.0" type="curve" smooth="yes"/>
      <point x="1231.0" y="1132.0"/>
      <point x="1103.8" y="1047.8"/>
      <point x="1058.4" y="920.2" type="curve"/>
      <point x="1046.8" y="920.2" type="line"/>
      <point x="1010.6" y="1049.4"/>
      <point x="896.8" y="1132.0"/>
      <point x="743.8" y="1132.0" type="curve" smooth="yes"/>
      <point x="592.8" y="1132.0"/>
      <point x="478.2" y="1051.2"/>
      <point x="431.8" y="920.2" type="curve"/>
      <point x="419.0" y="920.2" type="line"/>
      <point x="419.0" y="1117.0" type="line"/>
      <point x="124.0" y="1117.0" type="line"/>
    </contour>
  </outline>
</glyph>
<glyph name="n" format="2">
  <advance height="2479.0" width="1274.0"/>
  <unicode hex="006E"/>
  <anchor x="637.4" y="0.0" name="bottom"/>
  <anchor x="637.4" y="1303.0" name="top"/>
  <outline>
    <contour>
      <point x="433.4" y="645.6" type="line" smooth="yes"/>
      <point x="434.0" y="790.2"/>
      <point x="519.8" y="874.4"/>
      <point x="645.2" y="874.4" type="curve" smooth="yes"/>
      <point x="769.4" y="874.4"/>
      <point x="844.2" y="792.6"/>
      <point x="843.6" y="656.0" type="curve" smooth="yes"/>
      <point x="843.6" y="0.0" type="line"/>
      <point x="1153.2" y="0.0" type="line"/>
      <point x="1153.2" y="711.8" type="line" smooth="yes"/>
      <point x="1153.2" y="971.6"/>
      <point x="1000.6" y="1132.0"/>
      <point x="768.0" y="1132.0" type="curve" smooth="yes"/>
      <point x="601.8" y="1132.0"/>
      <point x="481.8" y="1050.0"/>
      <point x="431.8" y="920.2" type="curve"/>
      <point x="419.0" y="920.2" type="line"/>
      <point x="419.0" y="1117.0" type="line"/>
      <point x="124.0" y="1117.0" type="line"/>
      <point x="124.0" y="0.0" type="line"/>
      <point x="433.4" y="0.0" type="line"/>
    </contour>
  </outline>
</glyph>
<glyph name="o" format="2">
  <advance height="2479.0" width="1256.8"/>
  <unicode hex="006F"/>
  <anchor x="628.4" y="0.0" name="bottom"/>
  <anchor x="779.2" y="0.0" name="ogonek"/>
  <anchor x="628.4" y="1303.0" name="top"/>
  <outline>
    <contour>
      <point x="628.4" y="-21.2" type="curve" smooth="yes"/>
      <point x="967.6" y="-21.2"/>
      <point x="1178.2" y="210.0"/>
      <point x="1178.2" y="554.8" type="curve" smooth="yes"/>
      <point x="1178.2" y="900.2"/>
      <point x="967.6" y="1132.0"/>
      <point x="628.4" y="1132.0" type="curve" smooth="yes"/>
      <point x="288.8" y="1132.0"/>
      <point x="78.6" y="900.2"/>
      <point x="78.6" y="554.8" type="curve" smooth="yes"/>
      <point x="78.6" y="210.0"/>
      <point x="288.8" y="-21.2"/>
    </contour>
    <contour>
      <point x="630.2" y="218.0" type="curve" smooth="yes"/>
      <point x="473.4" y="218.0"/>
      <point x="393.0" y="361.4"/>
      <point x="393.0" y="556.6" type="curve" smooth="yes"/>
      <point x="393.0" y="751.2"/>
      <point x="473.4" y="895.4"/>
      <point x="630.2" y="895.4" type="curve" smooth="yes"/>
      <point x="783.4" y="895.4"/>
      <point x="863.4" y="751.2"/>
      <point x="863.4" y="556.6" type="curve" smooth="yes"/>
      <point x="863.4" y="361.4"/>
      <point x="783.4" y="218.0"/>
    </contour>
  </outline>
</glyph>
<glyph name="p" format="2">
  <advance height="2479.0" width="1291.8"/>
  <unicode hex="0070"/>
  <anchor x="279.4" y="-408.2" name="bottom"/>
  <anchor x="1327.2" y="-484.2" name="bottom0315"/>
  <anchor x="277.6" y="-163.0" name="cross"/>
  <anchor x="699.0" y="1303.0" name="top"/>
  <outline>
    <contour>
      <point x="124.0" y="-419.0" type="line"/>
      <point x="433.4" y="-419.0" type="line"/>
      <point x="433.4" y="178.6" type="line"/>
      <point x="442.6" y="178.6" type="line"/>
      <point x="486.0" y="86.4"/>
      <point x="579.4" y="-18.2"/>
      <point x="759.6" y="-18.2" type="curve" smooth="yes"/>
      <point x="1014.6" y="-18.2"/>
      <point x="1213.2" y="183.6"/>
      <point x="1213.2" y="557.8" type="curve" smooth="yes"/>
      <point x="1213.2" y="941.0"/>
      <point x="1005.6" y="1132.0"/>
      <point x="760.2" y="1132.0" type="curve" smooth="yes"/>
      <point x="573.4" y="1132.0"/>
      <point x="484.2" y="1020.8"/>
      <point x="442.6" y="929.2" type="curve"/>
      <point x="429.2" y="929.2" type="line"/>
      <point x="429.2" y="1117.0" type="line"/>
      <point x="124.0" y="1117.0" type="line"/>
    </contour>
    <contour>
      <point x="427.4" y="559.0" type="curve" smooth="yes"/>
      <point x="427.4" y="758.0"/>
      <point x="511.0" y="884.6"/>
      <point x="661.6" y="884.6" type="curve" smooth="yes"/>
      <point x="815.4" y="884.6"/>
      <point x="897.0" y="752.0"/>
      <point x="897.0" y="559.0" type="curve" smooth="yes"/>
      <point x="897.0" y="363.8"/>
      <point x="814.2" y="228.8"/>
      <point x="661.6" y="228.8" type="curve" smooth="yes"/>
      <point x="512.2" y="228.8"/>
      <point x="427.4" y="359.6"/>
    </contour>
  </outline>
</glyph>
<glyph name="q" format="2">
  <advance height="2479.0" width="1291.8"/>
  <unicode hex="0071"/>
  <anchor x="1011.8" y="-408.2" name="bottom"/>
  <anchor x="1014.2" y="-163.0" name="cross"/>
  <anchor x="592.2" y="1303.0" name="top"/>
  <outline>
    <contour>
      <point x="857.8" y="-419.0" type="line"/>
      <point x="1167.8" y="-419.0" type="line"/>
      <point x="1167.8" y="1117.0" type="line"/>
      <point x="862.0" y="1117.0" type="line"/>
      <point x="862.0" y="929.2" type="line"/>
      <point x="849.2" y="929.2" type="line"/>
      <point x="807.6" y="1020.8"/>
      <point x="717.8" y="1132.0"/>
      <point x="531.0" y="1132.0" type="curve" smooth="yes"/>
      <point x="285.6" y="1132.0"/>
      <point x="78.6" y="941.0"/>
      <point x="78.6" y="557.8" type="curve" smooth="yes"/>
      <point x="78.6" y="183.6"/>
      <point x="277.2" y="-18.2"/>
      <point x="531.6" y="-18.2" type="curve" smooth="yes"/>
      <point x="711.8" y="-18.2"/>
      <point x="805.8" y="86.4"/>
      <point x="849.2" y="178.6" type="curve"/>
      <point x="857.8" y="178.6" type="line"/>
    </contour>
    <contour>
      <point x="630.2" y="228.8" type="curve" smooth="yes"/>
      <point x="477.6" y="228.8"/>
      <point x="394.8" y="363.8"/>
      <point x="394.8" y="559.0" type="curve" smooth="yes"/>
      <point x="394.8" y="752.0"/>
      <point x="476.4" y="884.6"/>
      <point x="630.2" y="884.6" type="curve" smooth="yes"/>
      <point x="780.2" y="884.6"/>
      <point x="864.4" y="758.0"/>
      <point x="864.4" y="559.0" type="curve" smooth="yes"/>
      <point x="864.4" y="359.6"/>
      <point x="779.0" y="228.8"/>
    </contour>
  </outline>
</glyph>
<glyph name="r" format="2">
  <advance height="2479.0" width="837.0"/>
  <unicode hex="0072"/>
  <anchor x="279.4" y="0.0" name="bottom"/>
  <anchor x="279.4" y="535.0" name="cross"/>
  <anchor x="458.6" y="1303.0" name="top"/>
  <outline>
    <contour>
      <point x="124.0" y="0.0" type="line"/>
      <point x="433.4" y="0.0" type="line"/>
      <point x="433.4" y="632.0" type="line" smooth="yes"/>
      <point x="433.4" y="769.2"/>
      <point x="533.8" y="864.0"/>
      <point x="670.4" y="864.0" type="curve" smooth="yes"/>
      <point x="713.4" y="864.0"/>
      <point x="772.4" y="856.8"/>
      <point x="801.2" y="847.2" type="curve"/>
      <point x="801.2" y="1122.4" type="line"/>
      <point x="774.0" y="1128.8"/>
      <point x="735.0" y="1133.2"/>
      <point x="703.6" y="1133.2" type="curve" smooth="yes"/>
      <point x="579.0" y="1133.2"/>
      <point x="476.4" y="1060.8"/>
      <point x="435.8" y="922.2" type="curve"/>
      <point x="424.4" y="922.2" type="line"/>
      <point x="424.4" y="1117.0" type="line"/>
      <point x="124.0" y="1117.0" type="line"/>
    </contour>
  </outline>
</glyph>
<glyph name="s" format="2">
  <advance height="2479.0" width="1150.8"/>
  <unicode hex="0073"/>
  <anchor x="581.8" y="0.0" name="bottom"/>
  <anchor x="586.0" y="0.0" name="cedilla"/>
  <anchor x="584.2" y="1303.0" name="top"/>
  <outline>
    <contour>
      <point x="1053.0" y="798.6" type="line"/>
      <point x="1025.8" y="1004.0"/>
      <point x="859.2" y="1132.0"/>
      <point x="577.0" y="1132.0" type="curve" smooth="yes"/>
      <point x="291.2" y="1132.0"/>
      <point x="103.4" y="999.8"/>
      <point x="104.6" y="784.4" type="curve" smooth="yes"/>
      <point x="103.4" y="617.2"/>
      <point x="208.2" y="507.8"/>
      <point x="427.0" y="464.6" type="curve" smooth="yes"/>
      <point x="620.2" y="426.4" type="line" smooth="yes"/>
      <point x="717.6" y="406.0"/>
      <point x="762.2" y="371.0"/>
      <point x="763.4" y="315.0" type="curve" smooth="yes"/>
      <point x="762.2" y="248.4"/>
      <point x="689.6" y="201.2"/>
      <point x="581.8" y="201.2" type="curve" smooth="yes"/>
      <point x="471.2" y="201.2"/>
      <point x="397.6" y="248.6"/>
      <point x="379.0" y="339.8" type="curve"/>
      <point x="74.4" y="323.8" type="line"/>
      <point x="103.6" y="110.4"/>
      <point x="284.8" y="-21.2"/>
      <point x="581.2" y="-21.2" type="curve" smooth="yes"/>
      <point x="870.6" y="-21.2"/>
      <point x="1078.2" y="125.6"/>
      <point x="1078.8" y="345.8" type="curve" smooth="yes"/>
      <point x="1078.2" y="507.8"/>
      <point x="972.4" y="604.6"/>
      <point x="756.0" y="648.8" type="curve" smooth="yes"/>
      <point x="553.4" y="689.8" type="line" smooth="yes"/>
      <point x="449.6" y="711.6"/>
      <point x="411.2" y="748.2"/>
      <point x="411.8" y="801.4" type="curve" smooth="yes"/>
      <point x="411.2" y="868.0"/>
      <point x="486.2" y="911.6"/>
      <point x="582.4" y="911.6" type="curve" smooth="yes"/>
      <point x="689.8" y="911.6"/>
      <point x="754.4" y="853.2"/>
      <point x="769.4" y="781.0" type="curve"/>
    </contour>
  </outline>
</glyph>
<glyph name="t" format="2">
  <advance height="2479.0" width="795.4"/>
  <unicode hex="0074"/>
  <anchor x="634.2" y="1562.0" name="raccent"/>
  <anchor x="444.8" y="0.0" name="bottom"/>
  <anchor x="542.0" y="0.0" name="cedilla"/>
  <anchor x="353.0" y="1520.8" name="top"/>
  <outline>
    <contour>
      <point x="718.0" y="1117.0" type="line"/>
      <point x="44.8" y="1117.0" type="line"/>
      <point x="44.8" y="884.4" type="line"/>
      <point x="718.0" y="884.4" type="line"/>
    </contour>
    <component base="_part.t_base"/>
  </outline>
</glyph>
<glyph name="u" format="2">
  <advance height="2479.0" width="1273.4"/>
  <unicode hex="0075"/>
  <anchor x="683.6" y="0.0" name="bottom"/>
  <anchor x="1150.0" y="0.0" name="ogonek"/>
  <anchor x="638.0" y="1303.0" name="top"/>
  <outline>
    <contour>
      <point x="840.0" y="476.2" type="line" smooth="yes"/>
      <point x="840.6" y="325.6"/>
      <point x="738.2" y="247.0"/>
      <point x="627.0" y="247.0" type="curve" smooth="yes"/>
      <point x="509.6" y="247.0"/>
      <point x="434.0" y="329.2"/>
      <point x="433.4" y="461.0" type="curve" smooth="yes"/>
      <point x="433.4" y="1117.0" type="line"/>
      <point x="124.0" y="1117.0" type="line"/>
      <point x="124.0" y="405.2" type="line" smooth="yes"/>
      <point x="124.6" y="144.8"/>
      <point x="277.4" y="-15.0"/>
      <point x="502.4" y="-15.0" type="curve" smooth="yes"/>
      <point x="669.6" y="-15.0"/>
      <point x="790.4" y="72.4"/>
      <point x="840.6" y="202.8" type="curve"/>
      <point x="852.6" y="202.8" type="line"/>
      <point x="852.6" y="0.0" type="line"/>
      <point x="1150.0" y="0.0" type="line"/>
      <point x="1150.0" y="1117.0" type="line"/>
      <point x="840.0" y="1117.0" type="line"/>
    </contour>
  </outline>
</glyph>
<glyph name="w" format="2">
  <advance height="2479.0" width="1740.8"/>
  <unicode hex="0077"/>
  <anchor x="865.0" y="0.0" name="bottom"/>
  <anchor x="870.4" y="1303.0" name="top"/>
  <outline>
    <contour>
      <point x="344.0" y="0.0" type="line"/>
      <point x="671.4" y="0.0" type="line"/>
      <point x="863.2" y="702.6" type="line"/>
      <point x="877.6" y="702.6" type="line"/>
      <point x="1069.4" y="0.0" type="line"/>
      <point x="1396.8" y="0.0" type="line"/>
      <point x="1700.8" y="1117.0" type="line"/>
      <point x="1387.6" y="1117.0" type="line"/>
      <point x="1217.6" y="371.2" type="line"/>
      <point x="1207.8" y="371.2" type="line"/>
      <point x="1024.6" y="1117.0" type="line"/>
      <point x="717.4" y="1117.0" type="line"/>
      <point x="536.6" y="366.4" type="line"/>
      <point x="526.8" y="366.4" type="line"/>
      <point x="353.2" y="1117.0" type="line"/>
      <point x="40.0" y="1117.0" type="line"/>
    </contour>
  </outline>
</glyph>
<glyph name="x" format="2">
  <advance height="2479.0" width="1175.2"/>
  <unicode hex="0078"/>
  <anchor x="587.8" y="0.0" name="bottom"/>
  <anchor x="587.8" y="559.0" name="cross"/>
  <anchor x="1081.4" y="123.4" name="cyrtic"/>
  <anchor x="930.6" y="0.0" name="right"/>
  <anchor x="587.8" y="1303.0" name="top"/>
  <outline>
    <contour>
      <point x="382.8" y="1117.0" type="line"/>
      <point x="63.0" y="1117.0" type="line"/>
      <point x="382.6" y="559.0" type="line"/>
      <point x="50.4" y="0.0" type="line"/>
      <point x="370.8" y="0.0" type="line"/>
      <point x="587.8" y="386.2" type="line"/>
      <point x="808.0" y="0.0" type="line"/>
      <point x="1124.8" y="0.0" type="line"/>
      <point x="791.4" y="559.0" type="line"/>
      <point x="1115.8" y="1117.0" type="line"/>
      <point x="797.8" y="1117.0" type="line"/>
      <point x="587.8" y="726.6" type="line"/>
    </contour>
  </outline>
</glyph>
<glyph name="y" format="2">
  <advance height="2479.0" width="1199.4"/>
  <unicode hex="0079"/>
  <anchor x="945.4" y="-19.6" name="bottom"/>
  <anchor x="775.2" y="-419.0" name="ogonek"/>
  <anchor x="598.2" y="1303.0" name="top"/>
  <outline>
    <contour>
      <point x="314.8" y="-419.0" type="curve" smooth="yes"/>
      <point x="545.4" y="-419.0"/>
      <point x="668.2" y="-301.6"/>
      <point x="730.4" y="-121.0" type="curve" smooth="yes"/>
      <point x="1165.2" y="1117.0" type="line"/>
      <point x="837.2" y="1117.0" type="line"/>
      <point x="604.2" y="296.6" type="line"/>
      <point x="592.2" y="296.6" type="line"/>
      <point x="361.0" y="1117.0" type="line"/>
      <point x="35.2" y="1117.0" type="line"/>
      <point x="435.6" y="-31.8" type="line"/>
      <point x="418.0" y="-79.2" type="line" smooth="yes"/>
      <point x="376.6" y="-184.4"/>
      <point x="299.0" y="-189.0"/>
      <point x="189.6" y="-155.8" type="curve"/>
      <point x="120.2" y="-387.6" type="line"/>
      <point x="164.2" y="-405.2"/>
      <point x="236.0" y="-419.0"/>
    </contour>
  </outline>
</glyph>
<glyph name="z" format="2">
  <advance height="2479.0" width="1171.0"/>
  <unicode hex="007A"/>
  <anchor x="585.4" y="0.0" name="bottom"/>
  <anchor x="582.4" y="559.0" name="cross"/>
  <anchor x="584.2" y="1303.0" name="top"/>
  <outline>
    <contour>
      <point x="117.8" y="0.0" type="line"/>
      <point x="1056.8" y="0.0" type="line"/>
      <point x="1056.8" y="247.0" type="line"/>
      <point x="524.2" y="247.0" type="line"/>
      <point x="524.2" y="255.39999999999998" type="line"/>
      <point x="1037.6" y="915.8" type="line"/>
      <point x="1037.6" y="1117.0" type="line"/>
      <point x="136.6" y="1117.0" type="line"/>
      <point x="136.6" y="870.0" type="line"/>
      <point x="664.8" y="870.0" type="line"/>
      <point x="664.8" y="861.6" type="line"/>
      <point x="117.8" y="185.0" type="line"/>
    </contour>
  </outline>
</glyph>
<glyph name="braceleft" format="2">
  <advance height="2479.0" width="838.0"/>
  <unicode hex="007B"/>
  <outline>
    <contour>
      <point x="63.4" y="590.2" type="line"/>
      <point x="499.2" y="590.2"/>
      <point x="583.6" y="718.6"/>
      <point x="583.6" y="866.4" type="curve" smooth="yes"/>
      <point x="583.6" y="1078.4" type="line" smooth="yes"/>
      <point x="583.6" y="1220.0"/>
      <point x="618.2" y="1286.2"/>
      <point x="790.8" y="1286.2" type="curve"/>
      <point x="790.8" y="1517.0" type="line"/>
      <point x="496.8" y="1517.0"/>
      <point x="286.8" y="1468.2"/>
      <point x="286.8" y="1110.2" type="curve" smooth="yes"/>
      <point x="286.8" y="949.0" type="line" smooth="yes"/>
      <point x="286.8" y="799.8"/>
      <point x="230.2" y="737.0"/>
      <point x="63.4" y="737.0" type="curve"/>
    </contour>
    <contour>
      <point x="790.8" y="-323.4" type="curve"/>
      <point x="790.8" y="-92.2" type="line"/>
      <point x="618.2" y="-92.2"/>
      <point x="583.6" y="-26.0"/>
      <point x="583.6" y="115.2" type="curve" smooth="yes"/>
      <point x="583.6" y="327.6" type="line" smooth="yes"/>
      <point x="583.6" y="475.0"/>
      <point x="499.2" y="603.4"/>
      <point x="63.4" y="603.4" type="curve"/>
      <point x="63.4" y="457.0" type="line"/>
      <point x="230.2" y="457.0"/>
      <point x="286.8" y="393.8"/>
      <point x="286.8" y="245.0" type="curve" smooth="yes"/>
      <point x="286.8" y="83.4" type="line" smooth="yes"/>
      <point x="286.8" y="-274.2"/>
      <point x="496.8" y="-323.4"/>
    </contour>
    <contour>
      <point x="63.4" y="457.0" type="line"/>
      <point x="323.8" y="457.0" type="line"/>
      <point x="323.8" y="737.0" type="line"/>
      <point x="63.4" y="737.0" type="line"/>
    </contour>
  </outline>
</glyph>
<glyph name="bar" format="2">
  <advance height="2479.0" width="765.0"/>
  <unicode hex="007C"/>
  <outline>
    <contour>
      <point x="529.4" y="1969.0" type="line"/>
      <point x="235.6" y="1969.0" type="line"/>
      <point x="235.6" y="-480.0" type="line"/>
      <point x="529.4" y="-480.0" type="line"/>
    </contour>
  </outline>
</glyph>
<glyph name="asciitilde" format="2">
  <advance height="2479.0" width="1392.0"/>
  <unicode hex="007E"/>
  <outline>
    <contour>
      <point x="156.4" y="401.8" type="curve"/>
      <point x="393.8" y="401.8" type="line"/>
      <point x="391.2" y="522.8"/>
      <point x="442.2" y="570.8"/>
      <point x="510.4" y="570.8" type="curve" smooth="yes"/>
      <point x="560.2" y="570.8"/>
      <point x="585.8" y="548.4"/>
      <point x="646.4" y="494.8" type="curve" smooth="yes"/>
      <point x="748.2" y="405.8"/>
      <point x="824.6" y="368.0"/>
      <point x="921.2" y="368.0" type="curve" smooth="yes"/>
      <point x="1113.0" y="368.0"/>
      <point x="1244.4" y="520.2"/>
      <point x="1235.0" y="795.4" type="curve"/>
      <point x="997.6" y="795.4" type="line"/>
      <point x="1000.8" y="678.8"/>
      <point x="950.2" y="626.8"/>
      <point x="881.6" y="626.8" type="curve" smooth="yes"/>
      <point x="830.6" y="626.8"/>
      <point x="799.2" y="653.6"/>
      <point x="743.8" y="702.4" type="curve" smooth="yes"/>
      <point x="637.2" y="796.2"/>
      <point x="562.6" y="829.2"/>
      <point x="470.8" y="829.2" type="curve" smooth="yes"/>
      <point x="273.2" y="829.2"/>
      <point x="147.2" y="677.4"/>
    </contour>
  </outline>
</glyph>
<glyph name="cent" format="2">
  <advance height="2479.0" width="1202.4"/>
  <unicode hex="00A2"/>
  <anchor x="627.8" y="189.8" name="cedilla"/>
  <anchor x="627.8" y="1492.8" name="top"/>
  <outline>
    <contour>
      <point x="567.4" y="0.0" type="line"/>
      <point x="686.4" y="0.0" type="line"/>
      <point x="686.4" y="1489.0" type="line"/>
      <point x="567.4" y="1489.0" type="line"/>
    </contour>
    <component base="c" yOffset="189.8"/>
  </outline>
</glyph>
<glyph name="sterling" format="2">
  <advance height="2479.0" width="1375.4"/>
  <unicode hex="00A3"/>
  <outline>
    <contour>
      <point x="1226.2" y="0.0" type="line"/>
      <point x="1226.2" y="259.6" type="line"/>
      <point x="144.2" y="259.6" type="line"/>
      <point x="144.2" y="0.0" type="line"/>
    </contour>
    <contour>
      <point x="938.6" y="592.8" type="line"/>
      <point x="938.6" y="841.0" type="line"/>
      <point x="140.0" y="841.0" type="line"/>
      <point x="140.0" y="592.8" type="line"/>
    </contour>
    <contour>
      <point x="602.2" y="1068.4" type="line"/>
      <point x="601.0" y="1196.4"/>
      <point x="672.6" y="1257.6"/>
      <point x="763.6" y="1257.6" type="curve" smooth="yes"/>
      <point x="857.4" y="1257.6"/>
      <point x="938.0" y="1211.0"/>
      <point x="934.2" y="1088.2" type="curve"/>
      <point x="1229.2" y="1080.0" type="line"/>
      <point x="1239.8" y="1331.0"/>
      <point x="1062.2" y="1510.0"/>
      <point x="758.6" y="1510.0" type="curve" smooth="yes"/>
      <point x="487.2" y="1510.0"/>
      <point x="281.2" y="1352.4"/>
      <point x="292.2" y="1068.4" type="curve" smooth="yes"/>
      <point x="314.4" y="431.6" type="line" smooth="yes"/>
      <point x="316.2" y="354.8"/>
      <point x="303.0" y="273.4"/>
      <point x="239.4" y="259.6" type="curve"/>
      <point x="436.8" y="170.0" type="line"/>
      <point x="577.6" y="232.6"/>
      <point x="630.6" y="316.2"/>
      <point x="625.2" y="449.0" type="curve" smooth="yes"/>
    </contour>
  </outline>
</glyph>
<glyph name="currency" format="2">
  <advance height="2479.0" width="1566.2"/>
  <unicode hex="00A4"/>
  <outline>
    <contour>
      <point x="783.4" y="-20.0" type="curve" smooth="yes"/>
      <point x="1117.8" y="-20.0"/>
      <point x="1394.4" y="253.0"/>
      <point x="1395.0" y="608.0" type="curve" smooth="yes"/>
      <point x="1394.4" y="963.0"/>
      <point x="1117.8" y="1233.0"/>
      <point x="783.4" y="1233.0" type="curve" smooth="yes"/>
      <point x="444.8" y="1233.0"/>
      <point x="170.0" y="963.0"/>
      <point x="170.6" y="608.0" type="curve"/>
      <point x="170.0" y="253.0"/>
      <point x="444.8" y="-20.0"/>
    </contour>
    <contour>
      <point x="783.4" y="169.4" type="curve" smooth="yes"/>
      <point x="543.8" y="169.4"/>
      <point x="355.8" y="362.2"/>
      <point x="357.0" y="608.0" type="curve"/>
      <point x="355.8" y="856.2"/>
      <point x="543.8" y="1046.6"/>
      <point x="783.4" y="1046.6" type="curve" smooth="yes"/>
      <point x="1017.6" y="1046.6"/>
      <point x="1207.8" y="856.2"/>
      <point x="1208.4" y="608.0" type="curve" smooth="yes"/>
      <point x="1207.8" y="362.2"/>
      <point x="1017.6" y="169.4"/>
    </contour>
    <contour>
      <point x="1225.8" y="914.8" type="line"/>
      <point x="1434.8" y="1121.2" type="line"/>
      <point x="1293.0" y="1264.2" type="line"/>
      <point x="1086.6" y="1057.8" type="line"/>
    </contour>
    <contour>
      <point x="1293.0" y="-25.2" type="line"/>
      <point x="1434.8" y="118.2" type="line"/>
      <point x="1225.8" y="321.8" type="line"/>
      <point x="1086.6" y="181.8" type="line"/>
    </contour>
    <contour>
      <point x="276.2" y="-25.2" type="line"/>
      <point x="484.6" y="181.8" type="line"/>
      <point x="342.8" y="321.8" type="line"/>
      <point x="136.4" y="118.2" type="line"/>
    </contour>
    <contour>
      <point x="342.8" y="914.8" type="line"/>
      <point x="484.6" y="1057.8" type="line"/>
      <point x="276.2" y="1264.2" type="line"/>
      <point x="136.4" y="1121.2" type="line"/>
    </contour>
  </outline>
</glyph>
<glyph name="yen" format="2">
  <advance height="2479.0" width="1171.6"/>
  <unicode hex="00A5"/>
  <outline>
    <contour>
      <point x="351.8" y="1489.0" type="line"/>
      <point x="29.0" y="1489.0" type="line"/>
      <point x="447.0" y="577.4" type="line"/>
      <point x="659.6" y="738.6" type="line"/>
    </contour>
    <contour>
      <point x="515.6" y="745.8" type="line"/>
      <point x="723.4" y="577.4" type="line"/>
      <point x="1142.6" y="1489.0" type="line"/>
      <point x="819.8" y="1489.0" type="line"/>
    </contour>
    <contour>
      <point x="737.2" y="784.2" type="line"/>
      <point x="426.0" y="784.2" type="line"/>
      <point x="426.0" y="0.0" type="line"/>
      <point x="737.2" y="0.0" type="line"/>
    </contour>
    <contour>
      <point x="1031.6" y="767.8" type="line"/>
      <point x="108.4" y="767.8" type="line"/>
      <point x="108.4" y="588.2" type="line"/>
      <point x="1031.6" y="588.2" type="line"/>
    </contour>
    <contour>
      <point x="1031.6" y="479.8" type="line"/>
      <point x="108.4" y="479.8" type="line"/>
      <point x="108.4" y="300.2" type="line"/>
      <point x="1031.6" y="300.2" type="line"/>
    </contour>
  </outline>
</glyph>
<glyph name="brokenbar" format="2">
  <advance height="2479.0" width="706.6"/>
  <unicode hex="00A6"/>
  <outline>
    <contour>
      <point x="214.8" y="415.4" type="line"/>
      <point x="214.8" y="-279.0" type="line"/>
      <point x="491.79999999999995" y="-279.0" type="line"/>
      <point x="491.79999999999995" y="415.4" type="line"/>
    </contour>
    <contour>
      <point x="491.79999999999995" y="1489.0" type="line"/>
      <point x="214.8" y="1489.0" type="line"/>
      <point x="214.8" y="797.6" type="line"/>
      <point x="491.79999999999995" y="797.6" type="line"/>
    </contour>
  </outline>
</glyph>
<glyph name="section" format="2">
  <advance height="2479.0" width="1214.2"/>
  <unicode hex="00A7"/>
  <outline>
    <contour>
      <point x="1021.0" y="1119.6" type="line"/>
      <point x="1020.4" y="1345.2"/>
      <point x="851.0" y="1510.0"/>
      <point x="596.4" y="1510.0" type="curve" smooth="yes"/>
      <point x="350.8" y="1510.0"/>
      <point x="178.2" y="1356.2"/>
      <point x="178.8" y="1148.0" type="curve" smooth="yes"/>
      <point x="178.2" y="1035.4"/>
      <point x="227.8" y="949.6"/>
      <point x="301.4" y="877.8" type="curve"/>
      <point x="301.4" y="875.4" type="line"/>
      <point x="226.8" y="854.8"/>
      <point x="127.2" y="794.0"/>
      <point x="117.0" y="672.2" type="curve" smooth="yes"/>
      <point x="99.0" y="458.6"/>
      <point x="268.6" y="368.6"/>
      <point x="348.2" y="333.0" type="curve" smooth="yes"/>
      <point x="627.2" y="207.2" type="line" smooth="yes"/>
      <point x="681.0" y="180.4"/>
      <point x="760.8" y="137.6"/>
      <point x="761.4" y="62.4" type="curve" smooth="yes"/>
      <point x="760.8" y="-9.0"/>
      <point x="684.0" y="-38.2"/>
      <point x="610.6" y="-40.0" type="curve" smooth="yes"/>
      <point x="496.4" y="-45.400000000000006"/>
      <point x="426.8" y="6.799999999999997"/>
      <point x="427.4" y="98.8" type="curve"/>
      <point x="153.4" y="98.8" type="line"/>
      <point x="153.4" y="-144.4"/>
      <point x="338.0" y="-301.2"/>
      <point x="607.0" y="-301.2" type="curve" smooth="yes"/>
      <point x="850.6" y="-301.2"/>
      <point x="1036.6" y="-167.4"/>
      <point x="1037.2" y="62.4" type="curve" smooth="yes"/>
      <point x="1036.6" y="172.8"/>
      <point x="994.4" y="261.0"/>
      <point x="913.0" y="332.8" type="curve"/>
      <point x="916.0" y="335.8" type="line"/>
      <point x="981.4" y="354.6"/>
      <point x="1088.2" y="416.6"/>
      <point x="1099.0" y="538.4" type="curve" smooth="yes"/>
      <point x="1117.6" y="749.6"/>
      <point x="945.8" y="839.0"/>
      <point x="869.6" y="874.0" type="curve" smooth="yes"/>
      <point x="590.2" y="1003.4" type="line" smooth="yes"/>
      <point x="532.6" y="1026.4"/>
      <point x="451.8" y="1078.0"/>
      <point x="452.4" y="1148.0" type="curve" smooth="yes"/>
      <point x="451.8" y="1217.0"/>
      <point x="519.2" y="1251.0"/>
      <point x="596.4" y="1251.0" type="curve" smooth="yes"/>
      <point x="697.4" y="1251.0"/>
      <point x="748.2" y="1194.6"/>
      <point x="748.8" y="1119.6" type="curve"/>
    </contour>
    <contour>
      <point x="844.8" y="522.2" type="curve"/>
      <point x="837.6" y="460.8"/>
      <point x="775.6" y="425.6"/>
      <point x="730.8" y="446.8" type="curve" smooth="yes"/>
      <point x="488.0" y="555.2" type="line" smooth="yes"/>
      <point x="406.4" y="590.2"/>
      <point x="362.2" y="636.2"/>
      <point x="369.4" y="687.8" type="curve" smooth="yes"/>
      <point x="376.0" y="748.6"/>
      <point x="432.0" y="788.0"/>
      <point x="484.0" y="763.8" type="curve" smooth="yes"/>
      <point x="727.0" y="654.2" type="line" smooth="yes"/>
      <point x="810.8" y="618.6"/>
      <point x="851.4" y="572.0"/>
    </contour>
  </outline>
</glyph>
<glyph name="dieresis" format="2">
  <advance height="2479.0" width="1094.8"/>
  <unicode hex="00A8"/>
  <anchor x="547.4" y="1303.0" name="_top"/>
  <anchor x="547.4" y="1676.0" name="top"/>
  <outline>
    <contour>
      <point x="325.8" y="1270.0" type="curve" smooth="yes"/>
      <point x="410.2" y="1270.0"/>
      <point x="477.2" y="1338.0"/>
      <point x="477.2" y="1418.2" type="curve" smooth="yes"/>
      <point x="477.2" y="1500.8"/>
      <point x="410.2" y="1565.4"/>
      <point x="325.8" y="1565.4" type="curve" smooth="yes"/>
      <point x="242.0" y="1565.4"/>
      <point x="172.8" y="1500.8"/>
      <point x="172.8" y="1418.2" type="curve" smooth="yes"/>
      <point x="172.8" y="1338.0"/>
      <point x="242.0" y="1270.0"/>
    </contour>
    <contour>
      <point x="771.2" y="1270.0" type="curve" smooth="yes"/>
      <point x="855.2" y="1270.0"/>
      <point x="922.0" y="1338.0"/>
      <point x="922.0" y="1418.2" type="curve" smooth="yes"/>
      <point x="922.0" y="1500.8"/>
      <point x="855.2" y="1565.4"/>
      <point x="771.2" y="1565.4" type="curve" smooth="yes"/>
      <point x="687.0" y="1565.4"/>
      <point x="617.6" y="1500.8"/>
      <point x="617.6" y="1418.2" type="curve" smooth="yes"/>
      <point x="617.6" y="1338.0"/>
      <point x="687.0" y="1270.0"/>
    </contour>
  </outline>
</glyph>
<glyph name="copyright" format="2">
  <advance height="2479.0" width="1873.0"/>
  <unicode hex="00A9"/>
  <outline>
    <contour>
      <point x="531.8" y="745.0" type="curve" smooth="yes"/>
      <point x="531.8" y="518.6"/>
      <point x="715.8" y="334.6"/>
      <point x="942.2" y="334.6" type="curve" smooth="yes"/>
      <point x="1141.4" y="334.6"/>
      <point x="1301.8" y="477.2"/>
      <point x="1324.4" y="665.8" type="curve"/>
      <point x="1108.2" y="665.8" type="line"/>
      <point x="1093.2" y="592.8"/>
      <point x="1026.0" y="541.6"/>
      <point x="942.2" y="541.6" type="curve" smooth="yes"/>
      <point x="830.8" y="541.6"/>
      <point x="739.2" y="633.2"/>
      <point x="739.2" y="745.6" type="curve" smooth="yes"/>
      <point x="739.2" y="857.6"/>
      <point x="830.8" y="948.0"/>
      <point x="942.2" y="948.0" type="curve" smooth="yes"/>
      <point x="1026.0" y="948.0"/>
      <point x="1099.6" y="896.8"/>
      <point x="1113.8" y="824.2" type="curve"/>
      <point x="1330.0" y="824.2" type="line"/>
      <point x="1307.8" y="1011.8"/>
      <point x="1141.4" y="1154.8"/>
      <point x="942.2" y="1154.8" type="curve" smooth="yes"/>
      <point x="715.8" y="1154.8"/>
      <point x="531.8" y="971.0"/>
    </contour>
    <component base="whiteCircle"/>
  </outline>
</glyph>
<glyph name="ordfeminine" format="2">
  <advance height="2479.0" width="997.6"/>
  <unicode hex="00AA"/>
  <outline>
    <contour>
      <point x="624.0" y="861.0" type="line"/>
      <point x="624.0" y="805.4"/>
      <point x="634.2" y="750.0"/>
      <point x="648.8" y="705.2" type="curve"/>
      <point x="831.6" y="705.2" type="line"/>
      <point x="807.6" y="768.6"/>
      <point x="803.4" y="830.2"/>
      <point x="803.4" y="887.0" type="curve" smooth="yes"/>
      <point x="803.4" y="1201.0" type="line"/>
      <point x="803.4" y="1385.0"/>
      <point x="683.8" y="1478.0"/>
      <point x="503.4" y="1478.0" type="curve" smooth="yes"/>
      <point x="311.4" y="1478.0"/>
      <point x="184.0" y="1379.0"/>
      <point x="184.0" y="1243.2" type="curve"/>
      <point x="362.6" y="1231.0" type="line"/>
      <point x="362.6" y="1295.0"/>
      <point x="414.6" y="1329.0"/>
      <point x="503.4" y="1329.0" type="curve" smooth="yes"/>
      <point x="586.0" y="1329.0"/>
      <point x="624.0" y="1282.4"/>
      <point x="624.0" y="1201.0" type="curve"/>
    </contour>
    <contour>
      <point x="668.8" y="1150.2" type="line"/>
      <point x="520.2" y="1150.2" type="line"/>
      <point x="283.0" y="1150.2"/>
      <point x="168.2" y="1068.0"/>
      <point x="168.2" y="919.0" type="curve" smooth="yes"/>
      <point x="168.2" y="783.0"/>
      <point x="260.0" y="692.0"/>
      <point x="423.6" y="692.0" type="curve" smooth="yes"/>
      <point x="564.2" y="692.0"/>
      <point x="641.0" y="767.4"/>
      <point x="671.8" y="833.2" type="curve"/>
      <point x="654.8" y="951.0" type="line"/>
      <point x="654.8" y="902.0"/>
      <point x="552.2" y="836.2"/>
      <point x="469.4" y="836.2" type="curve" smooth="yes"/>
      <point x="385.6" y="836.2"/>
      <point x="348.8" y="870.0"/>
      <point x="348.8" y="923.2" type="curve" smooth="yes"/>
      <point x="348.8" y="981.2"/>
      <point x="402.4" y="1034.2"/>
      <point x="520.2" y="1034.2" type="curve"/>
      <point x="668.8" y="1034.2" type="line"/>
    </contour>
  </outline>
</glyph>
<glyph name="logicalnot" format="2">
  <advance height="2479.0" width="1187.2"/>
  <unicode hex="00AC"/>
  <outline>
    <contour>
      <point x="1026.0" y="806.0" type="line"/>
      <point x="166.4" y="806.0" type="line"/>
      <point x="166.4" y="634.0" type="line"/>
      <point x="1026.0" y="634.0" type="line"/>
    </contour>
    <contour>
      <point x="1026.0" y="727.0" type="line"/>
      <point x="819.6" y="727.0" type="line"/>
      <point x="819.6" y="375.0" type="line"/>
      <point x="1026.0" y="375.0" type="line"/>
    </contour>
  </outline>
</glyph>
<glyph name="registered" format="2">
  <advance height="2479.0" width="1359.2"/>
  <unicode hex="00AE"/>
  <outline>
    <contour>
      <point x="469.2" y="666.0" type="line"/>
      <point x="608.8" y="666.0" type="line"/>
      <point x="608.8" y="1099.8" type="line"/>
      <point x="697.4" y="1099.8" type="line" smooth="yes"/>
      <point x="735.8" y="1099.8"/>
      <point x="770.8" y="1078.4"/>
      <point x="770.8" y="1025.0" type="curve" smooth="yes"/>
      <point x="770.8" y="973.6"/>
      <point x="736.6" y="947.6"/>
      <point x="696.2" y="947.6" type="curve" smooth="yes"/>
      <point x="545.8" y="947.6" type="line"/>
      <point x="545.8" y="846.2" type="line"/>
      <point x="725.0" y="846.2" type="line" smooth="yes"/>
      <point x="830.2" y="846.2"/>
      <point x="917.2" y="910.6"/>
      <point x="917.2" y="1025.0" type="curve" smooth="yes"/>
      <point x="917.2" y="1138.4"/>
      <point x="833.2" y="1203.0"/>
      <point x="731.6" y="1203.0" type="curve" smooth="yes"/>
      <point x="469.2" y="1203.0" type="line"/>
    </contour>
    <contour>
      <point x="811.8" y="914.2" type="line"/>
      <point x="666.6" y="914.2" type="line"/>
      <point x="781.4" y="666.0" type="line"/>
      <point x="933.8" y="666.0" type="line"/>
    </contour>
    <contour>
      <point x="679.8" y="346.0" type="curve" smooth="yes"/>
      <point x="1001.4" y="346.0"/>
      <point x="1261.4" y="607.0"/>
      <point x="1261.4" y="928.0" type="curve" smooth="yes"/>
      <point x="1261.4" y="1249.0"/>
      <point x="1000.8" y="1510.0"/>
      <point x="679.8" y="1510.0" type="curve" smooth="yes"/>
      <point x="357.8" y="1510.0"/>
      <point x="97.8" y="1249.0"/>
      <point x="97.8" y="928.0" type="curve" smooth="yes"/>
      <point x="97.8" y="607.0"/>
      <point x="357.8" y="346.0"/>
    </contour>
    <contour>
      <point x="679.8" y="499.8" type="curve" smooth="yes"/>
      <point x="443.2" y="499.8"/>
      <point x="251.2" y="691.8"/>
      <point x="251.2" y="928.0" type="curve" smooth="yes"/>
      <point x="251.2" y="1164.2"/>
      <point x="443.2" y="1356.2"/>
      <point x="679.8" y="1356.2" type="curve" smooth="yes"/>
      <point x="916.0" y="1356.2"/>
      <point x="1108.0" y="1164.2"/>
      <point x="1108.0" y="928.0" type="curve" smooth="yes"/>
      <point x="1108.0" y="691.2"/>
      <point x="916.6" y="499.8"/>
    </contour>
  </outline>
</glyph>
<glyph name="macron" format="2">
  <advance height="2479.0" width="1156.6"/>
  <unicode hex="00AF"/>
  <anchor x="578.2" y="1303.0" name="_top"/>
  <outline>
    <contour>
      <point x="932.6" y="1489.0" type="line"/>
      <point x="224.0" y="1489.0" type="line"/>
      <point x="224.0" y="1321.2" type="line"/>
      <point x="932.6" y="1321.2" type="line"/>
    </contour>
  </outline>
</glyph>
<glyph name="degree" format="2">
  <advance height="2479.0" width="941.2"/>
  <unicode hex="00B0"/>
  <outline>
    <contour>
      <point x="470.4" y="784.6" type="curve" smooth="yes"/>
      <point x="668.0" y="784.6"/>
      <point x="828.2" y="944.8"/>
      <point x="828.2" y="1142.4" type="curve" smooth="yes"/>
      <point x="828.2" y="1339.6"/>
      <point x="668.0" y="1499.2"/>
      <point x="470.4" y="1499.2" type="curve" smooth="yes"/>
      <point x="273.2" y="1499.2"/>
      <point x="113.6" y="1339.6"/>
      <point x="113.6" y="1142.4" type="curve" smooth="yes"/>
      <point x="113.6" y="944.8"/>
      <point x="273.2" y="784.6"/>
    </contour>
    <contour>
      <point x="470.4" y="991.4" type="curve" smooth="yes"/>
      <point x="387.4" y="991.4"/>
      <point x="319.8" y="1059.0"/>
      <point x="319.8" y="1142.4" type="curve" smooth="yes"/>
      <point x="319.8" y="1225.4"/>
      <point x="387.4" y="1293.0"/>
      <point x="470.4" y="1293.0" type="curve" smooth="yes"/>
      <point x="553.8" y="1293.0"/>
      <point x="621.4" y="1225.4"/>
      <point x="621.4" y="1142.4" type="curve" smooth="yes"/>
      <point x="621.4" y="1059.0"/>
      <point x="553.8" y="991.4"/>
    </contour>
  </outline>
</glyph>
<glyph name="plusminus" format="2">
  <advance height="2479.0" width="1392.0"/>
  <unicode hex="00B1"/>
  <outline>
    <contour>
      <point x="184.2" y="56.2" type="line"/>
      <point x="1207.8" y="56.2" type="line"/>
      <point x="1207.8" y="302.6" type="line"/>
      <point x="184.2" y="302.6" type="line"/>
    </contour>
    <contour>
      <point x="184.2" y="660.6" type="line"/>
      <point x="1207.8" y="660.6" type="line"/>
      <point x="1207.8" y="900.4" type="line"/>
      <point x="184.2" y="900.4" type="line"/>
    </contour>
    <contour>
      <point x="565.4" y="409.6" type="line"/>
      <point x="826.2" y="409.6" type="line"/>
      <point x="826.2" y="1151.8" type="line"/>
      <point x="565.4" y="1151.8" type="line"/>
    </contour>
  </outline>
</glyph>
<glyph name="twosuperior" format="2">
  <advance height="2479.0" width="868.2"/>
  <unicode hex="00B2"/>
  <anchor x="600.0" y="1231.0" name="cross"/>
  <outline>
    <contour>
      <point x="89.4" y="745.0" type="line"/>
      <point x="799.8" y="745.0" type="line"/>
      <point x="799.8" y="927.0" type="line"/>
      <point x="410.6" y="927.0" type="line"/>
      <point x="410.6" y="934.8" type="line"/>
      <point x="540.8" y="1030.2" type="line" smooth="yes"/>
      <point x="712.8" y="1145.6"/>
      <point x="789.4" y="1239.2"/>
      <point x="789.4" y="1367.6" type="curve" smooth="yes"/>
      <point x="789.4" y="1525.8"/>
      <point x="650.0" y="1649.0"/>
      <point x="433.4" y="1649.0" type="curve" smooth="yes"/>
      <point x="222.2" y="1649.0"/>
      <point x="71.4" y="1537.2"/>
      <point x="71.4" y="1350.2" type="curve"/>
      <point x="285.4" y="1350.2" type="line"/>
      <point x="285.4" y="1430.0"/>
      <point x="343.4" y="1473.6"/>
      <point x="430.4" y="1473.6" type="curve" smooth="yes"/>
      <point x="512.0" y="1473.6"/>
      <point x="576.8" y="1434.2"/>
      <point x="576.8" y="1364.6" type="curve" smooth="yes"/>
      <point x="576.8" y="1297.6"/>
      <point x="524.8" y="1254.6"/>
      <point x="443.8" y="1188.6" type="curve" smooth="yes"/>
      <point x="89.4" y="905.4" type="line"/>
    </contour>
  </outline>
</glyph>
<glyph name="threesuperior" format="2">
  <advance height="2479.0" width="905.6"/>
  <unicode hex="00B3"/>
  <outline>
    <contour>
      <point x="449.8" y="733.0" type="curve" smooth="yes"/>
      <point x="674.8" y="733.0"/>
      <point x="839.0" y="844.0"/>
      <point x="839.0" y="1001.0" type="curve" smooth="yes"/>
      <point x="839.0" y="1113.8"/>
      <point x="757.4" y="1189.4"/>
      <point x="616.2" y="1202.2" type="curve"/>
      <point x="616.2" y="1210.0" type="line"/>
      <point x="717.6" y="1224.4"/>
      <point x="800.4" y="1288.6"/>
      <point x="800.4" y="1393.6" type="curve" smooth="yes"/>
      <point x="800.4" y="1536.0"/>
      <point x="662.8" y="1649.0"/>
      <point x="454.6" y="1649.0" type="curve" smooth="yes"/>
      <point x="248.8" y="1649.0"/>
      <point x="90.0" y="1541.4"/>
      <point x="87.0" y="1383.8" type="curve"/>
      <point x="301.0" y="1383.8" type="line"/>
      <point x="304.0" y="1437.2"/>
      <point x="369.4" y="1473.6"/>
      <point x="452.8" y="1473.6" type="curve" smooth="yes"/>
      <point x="530.8" y="1473.6"/>
      <point x="583.4" y="1436.0"/>
      <point x="583.4" y="1379.2" type="curve" smooth="yes"/>
      <point x="583.4" y="1322.2"/>
      <point x="523.4" y="1282.2"/>
      <point x="432.8" y="1282.2" type="curve" smooth="yes"/>
      <point x="330.4" y="1282.2" type="line"/>
      <point x="330.4" y="1117.2" type="line"/>
      <point x="432.8" y="1117.2" type="line" smooth="yes"/>
      <point x="541.0" y="1117.2"/>
      <point x="606.4" y="1074.8"/>
      <point x="606.4" y="1016.0" type="curve" smooth="yes"/>
      <point x="606.4" y="953.8"/>
      <point x="537.4" y="918.0"/>
      <point x="449.8" y="918.0" type="curve" smooth="yes"/>
      <point x="365.0" y="918.0"/>
      <point x="299.2" y="949.6"/>
      <point x="294.4" y="1003.4" type="curve"/>
      <point x="66.0" y="1003.4" type="line"/>
      <point x="70.8" y="842.8"/>
      <point x="230.0" y="733.0"/>
    </contour>
  </outline>
</glyph>
<glyph name="acute" format="2">
  <advance height="2479.0" width="1018.0"/>
  <unicode hex="00B4"/>
  <anchor x="499.8" y="1303.0" name="_top"/>
  <anchor x="509.0" y="1676.0" name="top"/>
  <outline>
    <contour>
      <point x="387.8" y="1261.4" type="line"/>
      <point x="607.6" y="1261.4" type="line"/>
      <point x="828.8" y="1592.2" type="line"/>
      <point x="543.0" y="1592.2" type="line"/>
    </contour>
  </outline>
</glyph>
<glyph name="micro" format="2">
  <advance height="2479.0" width="1364.6"/>
  <unicode hex="00B5"/>
  <outline>
    <contour>
      <point x="124.0" y="-405.2" type="line"/>
      <point x="421.4" y="-405.2" type="line"/>
      <point x="421.4" y="158.8" type="line"/>
      <point x="430.0" y="158.8" type="line"/>
      <point x="475.2" y="61.8"/>
      <point x="570.6" y="6.0"/>
      <point x="682.6" y="6.0" type="curve" smooth="yes"/>
      <point x="794.0" y="6.0"/>
      <point x="890.4" y="61.8"/>
      <point x="935.2" y="158.8" type="curve"/>
      <point x="943.8" y="158.8" type="line"/>
      <point x="943.8" y="0.0" type="line"/>
      <point x="1241.2" y="0.0" type="line"/>
      <point x="1241.2" y="1117.0" type="line"/>
      <point x="931.2" y="1117.0" type="line"/>
      <point x="931.2" y="476.2" type="line" smooth="yes"/>
      <point x="931.8" y="341.4"/>
      <point x="830.8" y="247.0"/>
      <point x="682.6" y="247.0" type="curve" smooth="yes"/>
      <point x="535.0" y="247.0"/>
      <point x="434.0" y="341.0"/>
      <point x="433.4" y="476.2" type="curve" smooth="yes"/>
      <point x="433.4" y="1117.0" type="line"/>
      <point x="124.0" y="1117.0" type="line"/>
    </contour>
  </outline>
</glyph>
<glyph name="paragraph" format="2">
  <advance height="2479.0" width="1249.0"/>
  <unicode hex="00B6"/>
  <outline>
    <contour>
      <point x="982.8" y="1251.0" type="line"/>
      <point x="982.8" y="1489.0" type="line"/>
      <point x="605.6" y="1489.0" type="line" smooth="yes"/>
      <point x="277.8" y="1489.0"/>
      <point x="100.2" y="1289.0"/>
      <point x="100.2" y="1021.0" type="curve" smooth="yes"/>
      <point x="100.2" y="751.0"/>
      <point x="277.8" y="553.0"/>
      <point x="605.6" y="553.0" type="curve" smooth="yes"/>
      <point x="691.8" y="553.0" type="line"/>
      <point x="691.8" y="1251.0" type="line"/>
    </contour>
    <contour>
      <point x="872.4" y="0.0" type="line"/>
      <point x="1119.0" y="0.0" type="line"/>
      <point x="1119.0" y="1489.0" type="line"/>
      <point x="872.4" y="1489.0" type="line"/>
    </contour>
  </outline>
</glyph>
<glyph name="cedilla" format="2">
  <advance height="2479.0" width="766.6"/>
  <unicode hex="00B8"/>
  <anchor x="385.8" y="0.0" name="_cedilla"/>
  <outline>
    <contour>
      <point x="313.8" y="6.0" type="line"/>
      <point x="281.2" y="-141.8" type="line"/>
      <point x="381.6" y="-154.0"/>
      <point x="428.0" y="-182.8"/>
      <point x="426.2" y="-242.0" type="curve" smooth="yes"/>
      <point x="423.8" y="-304.2"/>
      <point x="350.8" y="-333.2"/>
      <point x="229.0" y="-333.2" type="curve"/>
      <point x="231.0" y="-471.4" type="line"/>
      <point x="474.6" y="-471.4"/>
      <point x="616.2" y="-379.0"/>
      <point x="615.0" y="-234.2" type="curve" smooth="yes"/>
      <point x="614.4" y="-132.6"/>
      <point x="543.8" y="-73.0"/>
      <point x="444.8" y="-57.4" type="curve"/>
      <point x="455.8" y="6.0" type="line"/>
    </contour>
  </outline>
</glyph>
<glyph name="onesuperior" format="2">
  <advance height="2479.0" width="657.2"/>
  <unicode hex="00B9"/>
  <outline>
    <contour>
      <point x="294.4" y="745.0" type="line"/>
      <point x="506.6" y="745.0" type="line"/>
      <point x="506.6" y="1638.0" type="line"/>
      <point x="306.4" y="1638.0" type="line"/>
      <point x="74.4" y="1491.2" type="line"/>
      <point x="74.4" y="1300.6" type="line"/>
      <point x="288.2" y="1434.6" type="line"/>
      <point x="294.4" y="1434.6" type="line"/>
    </contour>
  </outline>
</glyph>
<glyph name="ordmasculine" format="2">
  <advance height="2479.0" width="992.2"/>
  <unicode hex="00BA"/>
  <outline>
    <contour>
      <point x="139.4" y="1044.0" type="line"/>
      <point x="139.4" y="838.0"/>
      <point x="277.0" y="690.2"/>
      <point x="499.6" y="690.2" type="curve" smooth="yes"/>
      <point x="718.8" y="690.2"/>
      <point x="852.8" y="838.0"/>
      <point x="852.8" y="1044.0" type="curve"/>
      <point x="852.8" y="1121.2" type="line"/>
      <point x="852.8" y="1329.0"/>
      <point x="717.0" y="1478.0"/>
      <point x="496.6" y="1478.0" type="curve" smooth="yes"/>
      <point x="278.8" y="1478.0"/>
      <point x="139.4" y="1329.0"/>
      <point x="139.4" y="1121.2" type="curve"/>
    </contour>
    <contour>
      <point x="319.2" y="1121.2" type="line"/>
      <point x="319.2" y="1237.2"/>
      <point x="379.0" y="1329.0"/>
      <point x="496.6" y="1329.0" type="curve" smooth="yes"/>
      <point x="616.2" y="1329.0"/>
      <point x="673.0" y="1237.2"/>
      <point x="673.0" y="1121.2" type="curve"/>
      <point x="673.0" y="1044.0" type="line"/>
      <point x="673.0" y="925.0"/>
      <point x="616.2" y="838.0"/>
      <point x="499.6" y="838.0" type="curve" smooth="yes"/>
      <point x="379.0" y="838.0"/>
      <point x="319.2" y="925.0"/>
      <point x="319.2" y="1044.0" type="curve"/>
    </contour>
  </outline>
</glyph>
<glyph name="AE" format="2">
  <advance height="2479.0" width="2110.2"/>
  <unicode hex="00C6"/>
  <anchor x="1341.4" y="1676.0" name="top"/>
  <outline>
    <contour>
      <point x="49.0" y="0.0" type="line"/>
      <point x="395.2" y="0.0" type="line"/>
      <point x="880.8" y="1179.0" type="line"/>
      <point x="984.8" y="1179.0" type="line"/>
      <point x="984.8" y="0.0" type="line"/>
      <point x="1991.8" y="0.0" type="line"/>
      <point x="1991.8" y="259.6" type="line"/>
      <point x="1300.2" y="259.6" type="line"/>
      <point x="1300.2" y="615.6" type="line"/>
      <point x="1936.8" y="615.6" type="line"/>
      <point x="1936.8" y="875.2" type="line"/>
      <point x="1300.2" y="875.2" type="line"/>
      <point x="1300.2" y="1230.0" type="line"/>
      <point x="1988.8" y="1230.0" type="line"/>
      <point x="1988.8" y="1489.0" type="line"/>
      <point x="686.4" y="1489.0" type="line"/>
    </contour>
    <contour>
      <point x="390.0" y="339.8" type="line"/>
      <point x="1164.2" y="339.8" type="line"/>
      <point x="1164.2" y="585.6" type="line"/>
      <point x="390.0" y="585.6" type="line"/>
    </contour>
  </outline>
</glyph>
<glyph name="multiply" format="2">
  <advance height="2479.0" width="1392.0"/>
  <unicode hex="00D7"/>
  <outline>
    <contour>
      <point x="1035.4" y="65.6" type="line"/>
      <point x="1225.8" y="256.4" type="line"/>
      <point x="356.6" y="1125.6" type="line"/>
      <point x="165.8" y="933.4" type="line"/>
    </contour>
    <contour>
      <point x="356.6" y="65.6" type="line"/>
      <point x="1225.8" y="933.4" type="line"/>
      <point x="1035.4" y="1125.6" type="line"/>
      <point x="165.8" y="256.4" type="line"/>
    </contour>
  </outline>
</glyph>
<glyph name="Oslash" format="2">
  <advance height="2479.0" width="1601.0"/>
  <unicode hex="00D8"/>
  <anchor x="801.0" y="0.0" name="bottom"/>
  <anchor x="981.4" y="1.1999999999999993" name="ogonek"/>
  <anchor x="182.4" y="1489.0" name="tonos"/>
  <anchor x="801.0" y="1676.0" name="top"/>
  <outline>
    <contour>
      <point x="336.8" y="-71.8" type="line"/>
      <point x="1404.0" y="1461.8" type="line"/>
      <point x="1261.8" y="1558.2" type="line"/>
      <point x="195.0" y="25.2" type="line"/>
    </contour>
    <component base="O"/>
  </outline>
</glyph>
<glyph name="Thorn" format="2">
  <advance height="2479.0" width="1373.6"/>
  <unicode hex="00DE"/>
  <outline>
    <contour>
      <point x="127.0" y="1489.0" type="line"/>
      <point x="127.0" y="0.0" type="line"/>
      <point x="441.4" y="0.0" type="line"/>
      <point x="441.4" y="1489.0" type="line"/>
    </contour>
    <contour>
      <point x="272.2" y="1215.8" type="line"/>
      <point x="272.2" y="972.4" type="line"/>
      <point x="659.8" y="972.4" type="line" smooth="yes"/>
      <point x="838.6" y="972.4"/>
      <point x="915.0" y="874.0"/>
      <point x="915.0" y="757.6" type="curve" smooth="yes"/>
      <point x="915.0" y="643.2"/>
      <point x="838.6" y="549.0"/>
      <point x="659.8" y="549.0" type="curve" smooth="yes"/>
      <point x="272.2" y="549.0" type="line"/>
      <point x="272.2" y="306.8" type="line"/>
      <point x="659.8" y="306.8" type="line" smooth="yes"/>
      <point x="1018.8" y="306.8"/>
      <point x="1216.0" y="498.8"/>
      <point x="1216.0" y="760.2" type="curve" smooth="yes"/>
      <point x="1216.0" y="1022.0"/>
      <point x="1018.8" y="1215.8"/>
      <point x="659.8" y="1215.8" type="curve" smooth="yes"/>
    </contour>
  </outline>
</glyph>
<glyph name="germandbls" format="2">
  <advance height="2479.0" width="1348.8"/>
  <unicode hex="00DF"/>
  <outline>
    <contour>
      <point x="129.6" y="0.0" type="line"/>
      <point x="439.0" y="0.0" type="line"/>
      <point x="439.0" y="1050.4" type="line" smooth="yes"/>
      <point x="439.0" y="1171.8"/>
      <point x="524.8" y="1250.4"/>
      <point x="652.4" y="1250.4" type="curve" smooth="yes"/>
      <point x="780.6" y="1250.4"/>
      <point x="858.0" y="1170.0"/>
      <point x="857.4" y="1061.6" type="curve" smooth="yes"/>
      <point x="856.2" y="959.6"/>
      <point x="788.2" y="874.6"/>
      <point x="683.2" y="874.6" type="curve" smooth="yes"/>
      <point x="605.8" y="874.6" type="line"/>
      <point x="605.8" y="633.0" type="line"/>
      <point x="720.6" y="633.0" type="line" smooth="yes"/>
      <point x="868.8" y="633.0"/>
      <point x="960.6" y="556.8"/>
      <point x="961.8" y="440.0" type="curve" smooth="yes"/>
      <point x="962.4" y="327.0"/>
      <point x="877.6" y="252.39999999999998"/>
      <point x="746.6" y="252.39999999999998" type="curve" smooth="yes"/>
      <point x="599.8" y="252.39999999999998" type="line"/>
      <point x="599.8" y="0.0" type="line"/>
      <point x="795.8" y="0.0" type="line" smooth="yes"/>
      <point x="1078.8" y="0.0"/>
      <point x="1273.6" y="149.2"/>
      <point x="1274.8" y="410.0" type="curve" smooth="yes"/>
      <point x="1276.0" y="618.8"/>
      <point x="1152.2" y="769.4"/>
      <point x="959.0" y="782.4" type="curve"/>
      <point x="959.0" y="798.8" type="line"/>
      <point x="1092.0" y="836.4"/>
      <point x="1173.6" y="953.0"/>
      <point x="1173.6" y="1106.8" type="curve" smooth="yes"/>
      <point x="1173.6" y="1371.8"/>
      <point x="931.8" y="1510.0"/>
      <point x="642.2" y="1510.0" type="curve" smooth="yes"/>
      <point x="332.2" y="1510.0"/>
      <point x="129.6" y="1353.4"/>
      <point x="129.6" y="1096.0" type="curve" smooth="yes"/>
    </contour>
  </outline>
</glyph>
<glyph name="ae" format="2">
  <advance height="2479.0" width="1871.2"/>
  <unicode hex="00E6"/>
  <anchor x="914.8" y="1303.0" name="top"/>
  <outline>
    <contour>
      <point x="1298.8" y="-21.2" type="curve"/>
      <point x="1551.8" y="-21.2"/>
      <point x="1741.8" y="112.8"/>
      <point x="1785.8" y="320.2" type="curve"/>
      <point x="1499.2" y="338.6" type="line"/>
      <point x="1467.8" y="253.8"/>
      <point x="1387.8" y="209.6"/>
      <point x="1285.0" y="209.6" type="curve" smooth="yes"/>
      <point x="1130.2" y="209.6"/>
      <point x="1031.6" y="312.4"/>
      <point x="1031.6" y="478.4" type="curve" smooth="yes"/>
      <point x="1031.6" y="661.4" type="line" smooth="yes"/>
      <point x="1033.4" y="792.2"/>
      <point x="1130.6" y="900.2"/>
      <point x="1272.4" y="900.2" type="curve"/>
      <point x="1406.2" y="900.2"/>
      <point x="1499.8" y="805.0"/>
      <point x="1501.0" y="671.8" type="curve"/>
      <point x="872.2" y="671.8" type="line"/>
      <point x="872.2" y="479.0" type="line"/>
      <point x="1792.6" y="479.0" type="line"/>
      <point x="1792.6" y="564.6" type="line" smooth="yes"/>
      <point x="1792.6" y="944.0"/>
      <point x="1563.0" y="1132.0"/>
      <point x="1267.0" y="1132.0" type="curve" smooth="yes"/>
      <point x="1085.2" y="1132.0"/>
      <point x="949.2" y="1057.6"/>
      <point x="857.0" y="895.8" type="curve"/>
      <point x="867.0" y="239.0" type="line"/>
      <point x="924.2" y="72.6"/>
      <point x="1091.0" y="-21.2"/>
    </contour>
    <contour>
      <point x="531.2" y="192.8" type="curve" smooth="yes"/>
      <point x="435.6" y="192.8"/>
      <point x="367.2" y="237.0"/>
      <point x="367.2" y="322.4" type="curve" smooth="yes"/>
      <point x="367.2" y="409.0"/>
      <point x="439.2" y="451.8"/>
      <point x="548.2" y="467.6" type="curve" smooth="yes"/>
      <point x="615.8" y="477.2"/>
      <point x="726.2" y="493.4"/>
      <point x="763.0" y="517.8" type="curve"/>
      <point x="763.0" y="399.2" type="line" smooth="yes"/>
      <point x="763.0" y="282.4"/>
      <point x="667.4" y="192.8"/>
    </contour>
    <contour>
      <point x="459.6" y="-20.6" type="curve" smooth="yes"/>
      <point x="649.8" y="-20.6"/>
      <point x="824.4" y="58.0"/>
      <point x="884.0" y="183.0" type="curve"/>
      <point x="903.8" y="183.0" type="line"/>
      <point x="940.4" y="944.6" type="line"/>
      <point x="884.6" y="1086.8"/>
      <point x="738.8" y="1132.0"/>
      <point x="602.4" y="1132.0" type="curve" smooth="yes"/>
      <point x="327.2" y="1132.0"/>
      <point x="154.4" y="1003.4"/>
      <point x="110.6" y="799.8" type="curve"/>
      <point x="397.8" y="776.6" type="line"/>
      <point x="417.4" y="851.0"/>
      <point x="485.6" y="905.0"/>
      <point x="595.8" y="905.0" type="curve" smooth="yes"/>
      <point x="701.2" y="905.0"/>
      <point x="761.8" y="852.8"/>
      <point x="761.8" y="760.2" type="curve" smooth="yes"/>
      <point x="761.8" y="756.4" type="line" smooth="yes"/>
      <point x="761.8" y="685.2"/>
      <point x="686.2" y="675.6"/>
      <point x="491.2" y="656.2" type="curve" smooth="yes"/>
      <point x="270.8" y="635.6"/>
      <point x="71.4" y="561.0"/>
      <point x="71.4" y="311.6" type="curve" smooth="yes"/>
      <point x="71.4" y="91.8"/>
      <point x="228.6" y="-20.6"/>
    </contour>
  </outline>
</glyph>
<glyph name="eth" format="2">
  <advance height="2479.0" width="1227.8"/>
  <unicode hex="00F0"/>
  <outline>
    <contour>
      <point x="952.2" y="1402.6" type="line"/>
      <point x="932.2" y="1543.2" type="line"/>
      <point x="250.4" y="1195.8" type="line"/>
      <point x="270.0" y="1055.8" type="line"/>
    </contour>
    <contour>
      <point x="609.2" y="-23.0" type="curve" smooth="yes"/>
      <point x="942.2" y="-23.0"/>
      <point x="1149.2" y="209.4"/>
      <point x="1149.2" y="573.4" type="curve" smooth="yes"/>
      <point x="1149.2" y="1103.4"/>
      <point x="728.2" y="1463.2"/>
      <point x="285.2" y="1571.6" type="curve"/>
      <point x="255.2" y="1406.0" type="line"/>
      <point x="514.8" y="1299.8"/>
      <point x="742.6" y="1108.0"/>
      <point x="837.2" y="901.8" type="curve"/>
      <point x="822.0" y="901.8" type="line"/>
      <point x="764.2" y="971.4"/>
      <point x="668.0" y="1033.8"/>
      <point x="532.6" y="1033.8" type="curve" smooth="yes"/>
      <point x="262.8" y="1033.8"/>
      <point x="78.6" y="808.0"/>
      <point x="78.6" y="512.0" type="curve" smooth="yes"/>
      <point x="78.6" y="193.8"/>
      <point x="289.8" y="-23.0"/>
    </contour>
    <contour>
      <point x="617.0" y="213.8" type="curve" smooth="yes"/>
      <point x="456.6" y="213.8"/>
      <point x="373.8" y="348.2"/>
      <point x="373.8" y="530.6" type="curve" smooth="yes"/>
      <point x="373.8" y="710.2"/>
      <point x="454.8" y="840.2"/>
      <point x="617.0" y="840.2" type="curve" smooth="yes"/>
      <point x="784.6" y="840.2"/>
      <point x="862.0" y="698.0"/>
      <point x="862.0" y="525.8" type="curve" smooth="yes"/>
      <point x="862.0" y="339.0"/>
      <point x="771.8" y="213.8"/>
    </contour>
  </outline>
</glyph>
<glyph name="divide" format="2">
  <advance height="2479.0" width="1392.0"/>
  <unicode hex="00F7"/>
  <outline>
    <contour>
      <point x="1204.8" y="718.8" type="line"/>
      <point x="186.8" y="718.8" type="line"/>
      <point x="186.8" y="472.4" type="line"/>
      <point x="1204.8" y="472.4" type="line"/>
    </contour>
    <contour>
      <point x="696.0" y="16.6" type="curve" smooth="yes"/>
      <point x="791.2" y="16.6"/>
      <point x="869.0" y="94.4"/>
      <point x="869.0" y="192.6" type="curve" smooth="yes"/>
      <point x="869.0" y="287.4"/>
      <point x="791.2" y="366.2"/>
      <point x="696.0" y="366.2" type="curve" smooth="yes"/>
      <point x="597.8" y="366.2"/>
      <point x="519.4" y="287.4"/>
      <point x="519.4" y="192.6" type="curve" smooth="yes"/>
      <point x="519.4" y="94.4"/>
      <point x="597.8" y="16.6"/>
    </contour>
    <contour>
      <point x="696.0" y="825.4" type="curve" smooth="yes"/>
      <point x="791.8" y="825.4"/>
      <point x="869.0" y="904.4"/>
      <point x="869.0" y="1002.0" type="curve" smooth="yes"/>
      <point x="869.0" y="1097.8"/>
      <point x="791.8" y="1175.0"/>
      <point x="696.0" y="1175.0" type="curve" smooth="yes"/>
      <point x="598.4" y="1175.0"/>
      <point x="519.4" y="1097.8"/>
      <point x="519.4" y="1002.0" type="curve" smooth="yes"/>
      <point x="519.4" y="904.4"/>
      <point x="598.4" y="825.4"/>
    </contour>
  </outline>
</glyph>
<glyph name="oslash" format="2">
  <advance height="2479.0" width="1256.8"/>
  <unicode hex="00F8"/>
  <anchor x="628.4" y="-1.7999999999999998" name="bottom"/>
  <anchor x="779.2" y="-1.7999999999999998" name="ogonek"/>
  <anchor x="628.4" y="1301.2" name="top"/>
  <outline>
    <contour>
      <point x="297.0" y="-71.8" type="line"/>
      <point x="1101.6" y="1083.2" type="line"/>
      <point x="957.6" y="1179.8" type="line"/>
      <point x="155.2" y="25.2" type="line"/>
    </contour>
    <component base="o" yOffset="-1.7999999999999998"/>
  </outline>
</glyph>
<glyph name="thorn" format="2">
  <advance height="2479.0" width="1255.2"/>
  <unicode hex="00FE"/>
  <outline>
    <contour>
      <point x="124.0" y="1489.0" type="line"/>
      <point x="124.0" y="-419.0" type="line"/>
      <point x="433.4" y="-419.0" type="line"/>
      <point x="433.4" y="219.8" type="line"/>
      <point x="325.2" y="545.4" type="line"/>
      <point x="433.4" y="913.2" type="line"/>
      <point x="433.4" y="1489.0" type="line"/>
    </contour>
    <contour>
      <point x="309.4" y="988.6" type="line"/>
      <point x="309.4" y="122.80000000000001" type="line"/>
      <point x="446.2" y="122.80000000000001" type="line"/>
      <point x="486.0" y="42.60000000000001"/>
      <point x="578.2" y="-18.2"/>
      <point x="719.4" y="-18.2" type="curve" smooth="yes"/>
      <point x="971.4" y="-18.2"/>
      <point x="1173.0" y="181.8"/>
      <point x="1173.0" y="557.8" type="curve" smooth="yes"/>
      <point x="1173.0" y="941.0"/>
      <point x="962.4" y="1132.0"/>
      <point x="720.0" y="1132.0" type="curve" smooth="yes"/>
      <point x="572.2" y="1132.0"/>
      <point x="484.2" y="1065.8"/>
      <point x="446.2" y="988.6" type="curve"/>
    </contour>
    <contour>
      <point x="879.0" y="559.0" type="curve" smooth="yes"/>
      <point x="879.6" y="356.6"/>
      <point x="796.8" y="228.8"/>
      <point x="633.4" y="228.8" type="curve" smooth="yes"/>
      <point x="462.4" y="228.8"/>
      <point x="403.4" y="377.0"/>
      <point x="402.8" y="559.0" type="curve" smooth="yes"/>
      <point x="403.4" y="742.4"/>
      <point x="464.8" y="884.6"/>
      <point x="633.4" y="884.6" type="curve" smooth="yes"/>
      <point x="798.0" y="884.6"/>
      <point x="879.6" y="759.2"/>
    </contour>
  </outline>
</glyph>
<glyph name="dcroat" format="2">
  <advance height="2479.0" width="1301.4"/>
  <unicode hex="0111"/>
  <anchor x="642.0" y="0.0" name="bottom"/>
  <anchor x="1016.4" y="1280.0" name="cross"/>
  <anchor x="1297.8" y="1489.0" name="raccent"/>
  <anchor x="567.8" y="1489.0" name="top"/>
  <outline>
    <contour>
      <point x="572.6" y="1194.2" type="line"/>
      <point x="1298.4" y="1194.2" type="line"/>
      <point x="1298.4" y="1376.4" type="line"/>
      <point x="572.6" y="1376.4" type="line"/>
    </contour>
    <component base="d"/>
  </outline>
</glyph>
<glyph name="Hbar" format="2">
  <advance height="2479.0" width="1658.8"/>
  <unicode hex="0126"/>
  <anchor x="828.8" y="0.0" name="bottom"/>
  <anchor x="356.0" y="-1.2000000000000002" name="cedilla"/>
  <anchor x="1605.6" y="123.4" name="cyrtic"/>
  <anchor x="1463.6" y="0.0" name="right"/>
  <anchor x="160.2" y="1489.0" name="tonos"/>
  <anchor x="832.4" y="1677.2" name="top"/>
  <outline>
    <contour>
      <point x="1586.2" y="1230.8" type="line"/>
      <point x="72.6" y="1230.8" type="line"/>
      <point x="72.6" y="1055.2" type="line"/>
      <point x="1586.2" y="1055.2" type="line"/>
    </contour>
    <component base="H" xOffset="65.6"/>
  </outline>
</glyph>
<glyph name="kgreenlandic" format="2">
  <advance height="2479.0" width="1190.8"/>
  <unicode hex="0138"/>
  <outline>
    <contour>
      <point x="404.6" y="321.8" type="line"/>
      <point x="609.2" y="555.6" type="line"/>
      <point x="682.6" y="555.6" type="line"/>
      <point x="1163.4" y="1117.0" type="line"/>
      <point x="808.0" y="1117.0" type="line"/>
      <point x="450.4" y="693.2" type="line"/>
      <point x="404.6" y="693.2" type="line"/>
    </contour>
    <contour>
      <point x="124.0" y="0.0" type="line"/>
      <point x="433.4" y="0.0" type="line"/>
      <point x="433.4" y="1117.0" type="line"/>
      <point x="124.0" y="1117.0" type="line"/>
    </contour>
    <contour>
      <point x="821.4" y="0.0" type="line"/>
      <point x="1184.6" y="0.0" type="line"/>
      <point x="699.4" y="705.0" type="line"/>
      <point x="493.4" y="486.4" type="line"/>
    </contour>
  </outline>
</glyph>
<glyph name="Lslash" format="2">
  <advance height="2479.0" width="1199.4"/>
  <unicode hex="0141"/>
  <anchor x="669.2" y="0.0" name="bottom"/>
  <anchor x="349.6" y="780.0" name="cross"/>
  <anchor x="668.0" y="841.4" name="dot"/>
  <anchor x="731.0" y="1489.0" name="raccent"/>
  <anchor x="347.8" y="1676.0" name="top"/>
  <outline>
    <contour>
      <point x="704.2" y="962.2" type="line"/>
      <point x="29.6" y="774.4" type="line"/>
      <point x="29.6" y="603.2" type="line"/>
      <point x="704.2" y="789.8" type="line"/>
    </contour>
    <component base="L" xOffset="63.0"/>
  </outline>
</glyph>
<glyph name="lslash" format="2">
  <advance height="2479.0" width="557.4"/>
  <unicode hex="0142"/>
  <anchor x="279.0" y="0.0" name="bottom"/>
  <anchor x="279.0" y="768.0" name="cross"/>
  <anchor x="560.4" y="1489.0" name="raccent"/>
  <anchor x="278.2" y="1676.0" name="top"/>
  <outline>
    <contour>
      <point x="572.4" y="969.4" type="line"/>
      <point x="-15.0" y="781.6" type="line"/>
      <point x="-15.0" y="609.8" type="line"/>
      <point x="572.4" y="797.6" type="line"/>
    </contour>
    <component base="l"/>
  </outline>
</glyph>
<glyph name="Eng" format="2">
  <advance height="2479.0" width="1505.4"/>
  <unicode hex="014A"/>
  <anchor x="753.6" y="0.0" name="bottom"/>
  <anchor x="1416.6" y="0.0" name="right"/>
  <anchor x="753.6" y="1676.0" name="top"/>
  <outline>
    <contour>
      <point x="1103.0" y="0.0" type="line"/>
      <point x="1103.0" y="-63.800000000000004" type="line" smooth="yes"/>
      <point x="1103.0" y="-159.8"/>
      <point x="1034.2" y="-203.2"/>
      <point x="932.2" y="-203.2" type="curve" smooth="yes"/>
      <point x="894.2" y="-203.2"/>
      <point x="853.4" y="-198.4"/>
      <point x="824.4" y="-191.8" type="curve"/>
      <point x="824.4" y="-425.6" type="line"/>
      <point x="858.2" y="-437.0"/>
      <point x="901.6" y="-441.8"/>
      <point x="937.2" y="-441.8" type="curve" smooth="yes"/>
      <point x="1201.0" y="-441.8"/>
      <point x="1375.4" y="-342.8"/>
      <point x="1375.4" y="-59.6" type="curve" smooth="yes"/>
      <point x="1375.4" y="0.0" type="line"/>
    </contour>
    <component base="N"/>
  </outline>
</glyph>
<glyph name="eng" format="2">
  <advance height="2479.0" width="1277.2"/>
  <unicode hex="014B"/>
  <anchor x="637.4" y="0.0" name="bottom"/>
  <anchor x="637.4" y="1303.0" name="top"/>
  <outline>
    <contour>
      <point x="843.6" y="13.799999999999999" type="line"/>
      <point x="843.6" y="-47.60000000000001" type="line" smooth="yes"/>
      <point x="843.6" y="-132.2"/>
      <point x="793.4" y="-166.0"/>
      <point x="710.6" y="-166.0" type="curve" smooth="yes"/>
      <point x="675.0" y="-166.0"/>
      <point x="645.6" y="-161.2"/>
      <point x="618.4" y="-154.60000000000002" type="curve"/>
      <point x="597.4" y="-406.4" type="line"/>
      <point x="648.6" y="-417.2"/>
      <point x="700.4" y="-419.0"/>
      <point x="754.0" y="-419.0" type="curve" smooth="yes"/>
      <point x="992.2" y="-419.0"/>
      <point x="1153.2" y="-294.2"/>
      <point x="1153.2" y="-47.60000000000001" type="curve" smooth="yes"/>
      <point x="1153.2" y="13.799999999999999" type="line"/>
    </contour>
    <component base="n"/>
  </outline>
</glyph>
<glyph name="OE" format="2">
  <advance height="2479.0" width="2084.6"/>
  <unicode hex="0152"/>
  <anchor x="1458.0" y="0.0" name="bottom"/>
  <anchor x="1461.0" y="0.0" name="cedilla"/>
  <anchor x="1966.8" y="0.0" name="ogonek"/>
  <anchor x="916.8" y="1489.0" name="tonos"/>
  <anchor x="1463.6" y="1676.0" name="top"/>
  <outline>
    <contour>
      <point x="780.0" y="0.0" type="curve" smooth="yes"/>
      <point x="1079.6" y="0.0" type="line"/>
      <point x="1079.6" y="259.6" type="line"/>
      <point x="780.0" y="259.6" type="line" smooth="yes"/>
      <point x="568.2" y="259.6"/>
      <point x="418.8" y="406.2"/>
      <point x="418.8" y="743.2" type="curve" smooth="yes"/>
      <point x="418.8" y="1079.6"/>
      <point x="568.2" y="1230.0"/>
      <point x="780.0" y="1230.0" type="curve" smooth="yes"/>
      <point x="1079.6" y="1230.0" type="line"/>
      <point x="1079.6" y="1489.0" type="line"/>
      <point x="780.0" y="1489.0" type="line" smooth="yes"/>
      <point x="391.8" y="1489.0"/>
      <point x="102.2" y="1227.8"/>
      <point x="102.8" y="743.2" type="curve" smooth="yes"/>
      <point x="102.2" y="261.6"/>
      <point x="391.8" y="0.0"/>
    </contour>
    <component base="E" xOffset="830.2"/>
  </outline>
</glyph>
<glyph name="tbar" format="2">
  <advance height="2479.0" width="795.4"/>
  <unicode hex="0167"/>
  <anchor x="444.8" y="0.0" name="bottom"/>
  <anchor x="542.0" y="0.0" name="cedilla"/>
  <anchor x="634.2" y="1562.0" name="raccent"/>
  <anchor x="353.0" y="1520.8" name="top"/>
  <outline>
    <contour>
      <point x="44.8" y="560.6" type="line"/>
      <point x="718.0" y="560.6" type="line"/>
      <point x="718.0" y="708.4" type="line"/>
      <point x="44.8" y="708.4" type="line"/>
    </contour>
    <component base="t"/>
  </outline>
</glyph>
<glyph name="Bhook" format="2">
  <advance height="2479.0" width="1774.4"/>
  <unicode hex="0181"/>
  <anchor x="1077.6" y="0.0" name="bottom"/>
  <anchor x="1075.8" y="1676.0" name="top"/>
  <outline>
    <contour>
      <point x="715.6" y="1231.8" type="line"/>
      <point x="715.6" y="1489.0" type="line"/>
      <point x="498.6" y="1489.0" type="line" smooth="yes"/>
      <point x="234.6" y="1489.0"/>
      <point x="72.0" y="1339.8"/>
      <point x="72.6" y="1105.4" type="curve" smooth="yes"/>
      <point x="72.6" y="959.6" type="line"/>
      <point x="353.2" y="959.6" type="line"/>
      <point x="353.2" y="1045.8" type="line" smooth="yes"/>
      <point x="352.6" y="1135.8"/>
      <point x="379.2" y="1231.8"/>
      <point x="499.8" y="1231.8" type="curve" smooth="yes"/>
    </contour>
    <component base="B" xOffset="421.4"/>
  </outline>
</glyph>
<glyph name="btopbar" format="2">
  <advance height="2479.0" width="1301.0"/>
  <unicode hex="0183"/>
  <anchor x="654.2" y="0.0" name="bottom"/>
  <anchor x="283.6" y="1280.0" name="cross"/>
  <anchor x="774.0" y="1303.0" name="top"/>
  <outline>
    <contour>
      <point x="1060.0" y="1489.0" type="line"/>
      <point x="311.6" y="1489.0" type="line"/>
      <point x="311.6" y="1266.6" type="line"/>
      <point x="1060.0" y="1266.6" type="line"/>
    </contour>
    <component base="b"/>
  </outline>
</glyph>
<glyph name="Tonesix" format="2">
  <advance height="2479.0" width="1606.4"/>
  <unicode hex="0184"/>
  <outline>
    <contour>
      <point x="647.8" y="1489.0" type="line"/>
      <point x="25.4" y="1489.0" type="line"/>
      <point x="25.4" y="1230.0" type="line"/>
      <point x="647.8" y="1230.0" type="line"/>
    </contour>
    <contour>
      <point x="587.0" y="939.0" type="line"/>
      <point x="587.0" y="690.2" type="line"/>
      <point x="941.8" y="690.2" type="line"/>
      <point x="1111.0" y="690.2"/>
      <point x="1203.0" y="597.0"/>
      <point x="1203.0" y="478.6" type="curve"/>
      <point x="1203.0" y="356.4"/>
      <point x="1111.0" y="253.0"/>
      <point x="941.8" y="253.0" type="curve"/>
      <point x="700.0" y="253.0" type="line"/>
      <point x="700.0" y="1489.0" type="line"/>
      <point x="385.2" y="1489.0" type="line"/>
      <point x="385.2" y="0.0" type="line"/>
      <point x="941.8" y="0.0" type="line"/>
      <point x="1295.4" y="0.0"/>
      <point x="1515.4" y="194.4"/>
      <point x="1515.4" y="475.6" type="curve"/>
      <point x="1515.4" y="757.4"/>
      <point x="1295.4" y="939.0"/>
      <point x="941.8" y="939.0" type="curve"/>
    </contour>
  </outline>
</glyph>
<glyph name="tonesix" format="2">
  <advance height="2479.0" width="1415.0"/>
  <unicode hex="0185"/>
  <outline>
    <contour>
      <point x="951.4" y="-23.0" type="curve" smooth="yes"/>
      <point x="1188.8" y="-23.0"/>
      <point x="1333.8" y="141.4"/>
      <point x="1333.2" y="416.6" type="curve" smooth="yes"/>
      <point x="1333.2" y="693.4"/>
      <point x="1187.0" y="850.2"/>
      <point x="967.0" y="849.8" type="curve" smooth="yes"/>
      <point x="838.4" y="850.2"/>
      <point x="747.2" y="797.2"/>
      <point x="694.6" y="722.6" type="curve"/>
      <point x="687.4" y="722.6" type="line"/>
      <point x="688.6" y="1117.0" type="line"/>
      <point x="381.4" y="1117.0" type="line"/>
      <point x="381.4" y="935.4" type="line"/>
      <point x="377.2" y="935.4" type="line"/>
      <point x="377.2" y="0.6" type="line"/>
      <point x="684.8" y="0.6" type="line"/>
      <point x="684.8" y="89.0" type="line"/>
      <point x="694.6" y="89.0" type="line"/>
      <point x="737.8" y="17.6"/>
      <point x="832.4" y="-23.0"/>
    </contour>
    <contour>
      <point x="855.2" y="215.0" type="curve" smooth="yes"/>
      <point x="749.2" y="215.0"/>
      <point x="687.4" y="292.8"/>
      <point x="687.4" y="415.8" type="curve" smooth="yes"/>
      <point x="687.4" y="537.8"/>
      <point x="749.2" y="609.8"/>
      <point x="856.0" y="609.8" type="curve" smooth="yes"/>
      <point x="962.6" y="609.8"/>
      <point x="1023.6" y="536.2"/>
      <point x="1024.2" y="415.4" type="curve" smooth="yes"/>
      <point x="1024.8" y="295.2"/>
      <point x="963.2" y="215.0"/>
    </contour>
    <contour>
      <point x="258.8" y="633.4" type="line"/>
      <point x="563.0" y="935.4" type="line"/>
      <point x="381.4" y="1117.0" type="line"/>
      <point x="76.6" y="814.4" type="line"/>
    </contour>
  </outline>
</glyph>
<glyph name="Chook" format="2">
  <advance height="2479.0" width="1716.2"/>
  <unicode hex="0187"/>
  <anchor x="792.0" y="-1.200000000000001" name="cedilla"/>
  <anchor x="797.4" y="1676.0" name="top"/>
  <outline>
    <contour>
      <point x="1443.8" y="968.2" type="line"/>
      <point x="1443.8" y="1093.0" type="line" smooth="yes"/>
      <point x="1443.8" y="1234.0"/>
      <point x="1551.6" y="1279.4"/>
      <point x="1644.6" y="1279.4" type="curve" smooth="yes"/>
      <point x="1668.8" y="1279.4"/>
      <point x="1710.2" y="1276.8"/>
      <point x="1733.2" y="1275.6" type="curve"/>
      <point x="1733.2" y="1525.6" type="line"/>
      <point x="1680.8" y="1534.6"/>
      <point x="1636.2" y="1534.6"/>
      <point x="1585.6" y="1534.6" type="curve" smooth="yes"/>
      <point x="1347.6" y="1534.6"/>
      <point x="1141.0" y="1393.6"/>
      <point x="1141.0" y="1133.2" type="curve" smooth="yes"/>
      <point x="1141.0" y="968.2" type="line"/>
    </contour>
    <component base="C"/>
  </outline>
</glyph>
<glyph name="chook" format="2">
  <advance height="2479.0" width="1317.0"/>
  <unicode hex="0188"/>
  <anchor x="627.8" y="0.0" name="cedilla"/>
  <anchor x="627.8" y="1303.0" name="top"/>
  <outline>
    <contour>
      <point x="1130.4" y="704.4" type="line"/>
      <point x="1130.4" y="872.2" type="line" smooth="yes"/>
      <point x="1130.4" y="974.4"/>
      <point x="1174.6" y="1013.0"/>
      <point x="1262.2" y="1013.0" type="curve" smooth="yes"/>
      <point x="1289.4" y="1013.0"/>
      <point x="1313.4" y="1008.2"/>
      <point x="1338.2" y="1005.2" type="curve"/>
      <point x="1338.2" y="1208.2" type="line"/>
      <point x="1294.8" y="1220.8"/>
      <point x="1252.0" y="1226.2"/>
      <point x="1209.2" y="1226.2" type="curve" smooth="yes"/>
      <point x="1002.2" y="1226.2"/>
      <point x="843.6" y="1099.0"/>
      <point x="843.6" y="874.0" type="curve" smooth="yes"/>
      <point x="843.6" y="704.4" type="line"/>
    </contour>
    <component base="c"/>
  </outline>
</glyph>
<glyph name="Dtopbar" format="2">
  <advance height="2479.0" width="1333.4"/>
  <unicode hex="018B"/>
  <outline>
    <contour>
      <point x="647.0" y="0.0" type="curve" smooth="yes"/>
      <point x="1203.8" y="0.0" type="line"/>
      <point x="1203.8" y="1489.0" type="line"/>
      <point x="215.8" y="1489.0" type="line"/>
      <point x="215.8" y="1230.0" type="line"/>
      <point x="888.8" y="1230.0" type="line"/>
      <point x="888.8" y="939.0" type="line"/>
      <point x="647.0" y="939.0" type="line" smooth="yes"/>
      <point x="294.0" y="939.0"/>
      <point x="74.0" y="757.4"/>
      <point x="74.0" y="475.6" type="curve" smooth="yes"/>
      <point x="74.0" y="194.4"/>
      <point x="294.0" y="0.0"/>
    </contour>
    <contour>
      <point x="647.0" y="253.0" type="line" smooth="yes"/>
      <point x="478.4" y="253.0"/>
      <point x="385.8" y="356.4"/>
      <point x="385.8" y="478.6" type="curve" smooth="yes"/>
      <point x="385.8" y="597.0"/>
      <point x="478.4" y="690.2"/>
      <point x="647.0" y="690.2" type="curve" smooth="yes"/>
      <point x="888.8" y="690.2" type="line"/>
      <point x="888.8" y="253.0" type="line"/>
    </contour>
  </outline>
</glyph>
<glyph name="dtopbar" format="2">
  <advance height="2479.0" width="1301.4"/>
  <unicode hex="018C"/>
  <anchor x="646.2" y="0.0" name="bottom"/>
  <anchor x="1017.8" y="1280.0" name="cross"/>
  <anchor x="527.4" y="1303.0" name="top"/>
  <outline>
    <contour>
      <point x="241.0" y="1489.0" type="line"/>
      <point x="241.0" y="1266.6" type="line"/>
      <point x="989.8" y="1266.6" type="line"/>
      <point x="989.8" y="1489.0" type="line"/>
    </contour>
    <contour>
      <point x="1171.4" y="0.0" type="line"/>
      <point x="1171.4" y="1489.0" type="line"/>
      <point x="861.4" y="1489.0" type="line"/>
      <point x="861.4" y="929.2" type="line"/>
      <point x="852.2" y="929.2" type="line"/>
      <point x="811.2" y="1020.8"/>
      <point x="721.4" y="1132.0"/>
      <point x="534.6" y="1132.0" type="curve" smooth="yes"/>
      <point x="289.2" y="1132.0"/>
      <point x="82.2" y="941.0"/>
      <point x="82.2" y="557.8" type="curve" smooth="yes"/>
      <point x="82.2" y="183.6"/>
      <point x="280.8" y="-18.2"/>
      <point x="535.2" y="-18.2" type="curve" smooth="yes"/>
      <point x="715.4" y="-18.2"/>
      <point x="809.4" y="86.4"/>
      <point x="852.2" y="178.6" type="curve"/>
      <point x="865.6" y="178.6" type="line"/>
      <point x="865.6" y="0.0" type="line"/>
    </contour>
    <contour>
      <point x="868.0" y="559.0" type="curve" smooth="yes"/>
      <point x="868.0" y="359.6"/>
      <point x="782.6" y="228.8"/>
      <point x="633.8" y="228.8" type="curve" smooth="yes"/>
      <point x="481.2" y="228.8"/>
      <point x="398.4" y="363.8"/>
      <point x="398.4" y="559.0" type="curve" smooth="yes"/>
      <point x="398.4" y="752.0"/>
      <point x="480.0" y="884.6"/>
      <point x="633.8" y="884.6" type="curve" smooth="yes"/>
      <point x="783.8" y="884.6"/>
      <point x="868.0" y="758.0"/>
    </contour>
  </outline>
</glyph>
<glyph name="deltaturned" format="2">
  <advance height="2479.0" width="1218.2"/>
  <unicode hex="018D"/>
  <outline>
    <contour>
      <point x="593.4" y="-449.2" type="curve" smooth="yes"/>
      <point x="846.8" y="-449.2"/>
      <point x="1014.6" y="-328.6"/>
      <point x="1014.0" y="-147.2" type="curve" smooth="yes"/>
      <point x="1013.4" y="-33.4"/>
      <point x="945.4" y="61.2"/>
      <point x="820.0" y="127.6" type="curve"/>
      <point x="820.0" y="133.0" type="line"/>
      <point x="1013.6" y="181.6"/>
      <point x="1139.6" y="366.6"/>
      <point x="1139.6" y="608.2" type="curve" smooth="yes"/>
      <point x="1139.6" y="926.8"/>
      <point x="918.8" y="1131.2"/>
      <point x="610.6" y="1131.2" type="curve" smooth="yes"/>
      <point x="285.6" y="1131.2"/>
      <point x="78.6" y="905.2"/>
      <point x="78.6" y="588.8" type="curve" smooth="yes"/>
      <point x="78.6" y="281.4"/>
      <point x="273.8" y="92.2"/>
      <point x="526.2" y="6.600000000000001" type="curve" smooth="yes"/>
      <point x="650.8" y="-36.2"/>
      <point x="705.0" y="-86.6"/>
      <point x="705.0" y="-136.4" type="curve" smooth="yes"/>
      <point x="705.0" y="-188.6"/>
      <point x="648.2" y="-222.0"/>
      <point x="556.0" y="-222.0" type="curve" smooth="yes"/>
      <point x="488.8" y="-222.0"/>
      <point x="396.0" y="-204.2"/>
      <point x="319.2" y="-173.0" type="curve"/>
      <point x="319.2" y="-403.8" type="line"/>
      <point x="410.4" y="-433.6"/>
      <point x="503.4" y="-449.2"/>
    </contour>
    <contour>
      <point x="607.2" y="238.0" type="curve"/>
      <point x="460.0" y="266.8"/>
      <point x="393.0" y="406.8"/>
      <point x="393.0" y="604.0" type="curve" smooth="yes"/>
      <point x="393.0" y="728.8"/>
      <point x="445.0" y="893.2"/>
      <point x="607.8" y="893.2" type="curve" smooth="yes"/>
      <point x="769.2" y="893.2"/>
      <point x="825.2" y="733.6"/>
      <point x="825.2" y="573.0" type="curve" smooth="yes"/>
      <point x="825.2" y="374.8"/>
      <point x="760.8" y="238.0"/>
    </contour>
  </outline>
</glyph>
<glyph name="Schwa" format="2">
  <advance height="2479.0" width="1558.2"/>
  <unicode hex="018F"/>
  <outline>
    <contour>
      <point x="752.2" y="-20.0" type="curve" smooth="yes"/>
      <point x="1171.6" y="-20.0"/>
      <point x="1455.4" y="271.8"/>
      <point x="1455.4" y="743.2" type="curve" smooth="yes"/>
      <point x="1455.4" y="1226.2"/>
      <point x="1152.4" y="1510.0"/>
      <point x="758.8" y="1510.0" type="curve" smooth="yes"/>
      <point x="421.6" y="1510.0"/>
      <point x="162.6" y="1303.0"/>
      <point x="122.0" y="1008.4" type="curve"/>
      <point x="441.2" y="1008.4" type="line"/>
      <point x="481.4" y="1148.0"/>
      <point x="591.4" y="1231.2"/>
      <point x="753.4" y="1231.2" type="curve" smooth="yes"/>
      <point x="981.4" y="1231.2"/>
      <point x="1136.2" y="1056.4"/>
      <point x="1136.2" y="746.8" type="curve" smooth="yes"/>
      <point x="1136.2" y="434.8"/>
      <point x="986.8" y="258.4"/>
      <point x="750.4" y="258.4" type="curve" smooth="yes"/>
      <point x="537.6" y="258.4"/>
      <point x="411.6" y="379.0"/>
      <point x="411.6" y="569.0" type="curve"/>
      <point x="347.2" y="560.4" type="line"/>
      <point x="1295.2" y="560.4" type="line"/>
      <point x="1295.2" y="797.2" type="line"/>
      <point x="107.6" y="797.2" type="line"/>
      <point x="107.6" y="609.0" type="line" smooth="yes"/>
      <point x="107.6" y="217.2"/>
      <point x="376.2" y="-20.0"/>
    </contour>
  </outline>
</glyph>
<glyph name="Eopen" format="2">
  <advance height="2479.0" width="1373.6"/>
  <unicode hex="0190"/>
  <outline>
    <contour>
      <point x="672.8" y="-23.0" type="curve" smooth="yes"/>
      <point x="1012.0" y="-23.0"/>
      <point x="1256.6" y="135.0"/>
      <point x="1257.8" y="404.0" type="curve"/>
      <point x="938.6" y="404.0" type="line"/>
      <point x="938.0" y="318.4"/>
      <point x="841.4" y="255.39999999999998"/>
      <point x="690.8" y="255.39999999999998" type="curve" smooth="yes"/>
      <point x="543.2" y="255.39999999999998"/>
      <point x="434.4" y="311.6"/>
      <point x="434.4" y="439.4" type="curve" smooth="yes"/>
      <point x="434.4" y="559.8"/>
      <point x="530.8" y="626.2"/>
      <point x="684.4" y="626.2" type="curve" smooth="yes"/>
      <point x="866.6" y="626.2" type="line"/>
      <point x="866.6" y="802.8" type="line"/>
      <point x="638.2" y="802.8" type="line"/>
      <point x="308.6" y="802.8"/>
      <point x="114.8" y="663.0"/>
      <point x="114.8" y="405.8" type="curve" smooth="yes"/>
      <point x="114.8" y="124.2"/>
      <point x="346.0" y="-23.0"/>
    </contour>
    <contour>
      <point x="638.2" y="709.2" type="curve"/>
      <point x="866.6" y="709.2" type="line"/>
      <point x="866.6" y="889.4" type="line"/>
      <point x="684.4" y="889.4" type="line" smooth="yes"/>
      <point x="537.8" y="889.4"/>
      <point x="459.79999999999995" y="966.4"/>
      <point x="459.79999999999995" y="1063.4" type="curve" smooth="yes"/>
      <point x="459.79999999999995" y="1167.8"/>
      <point x="549.2" y="1231.2"/>
      <point x="694.6" y="1231.2" type="curve" smooth="yes"/>
      <point x="825.8" y="1231.2"/>
      <point x="913.8" y="1177.2"/>
      <point x="914.4" y="1096.0" type="curve"/>
      <point x="1236.0" y="1096.0" type="line"/>
      <point x="1234.8" y="1341.6"/>
      <point x="1008.8" y="1510.0"/>
      <point x="678.4" y="1510.0" type="curve" smooth="yes"/>
      <point x="357.8" y="1510.0"/>
      <point x="138.2" y="1352.2"/>
      <point x="138.2" y="1098.2" type="curve" smooth="yes"/>
      <point x="138.2" y="855.2"/>
      <point x="340.6" y="709.6"/>
    </contour>
  </outline>
</glyph>
<glyph name="Fhook" format="2">
  <advance height="2479.0" width="1243.6"/>
  <unicode hex="0191"/>
  <anchor x="655.0" y="12.0" name="bottom"/>
  <anchor x="332.2" y="289.6" name="cross"/>
  <anchor x="677.8" y="1676.0" name="top"/>
  <outline>
    <contour>
      <point x="175.2" y="0.0" type="line"/>
      <point x="175.2" y="-67.4" type="line" smooth="yes"/>
      <point x="175.2" y="-154.4"/>
      <point x="102.2" y="-176.8"/>
      <point x="20.0" y="-176.8" type="curve" smooth="yes"/>
      <point x="2.4" y="-176.8"/>
      <point x="-23.0" y="-177.4"/>
      <point x="-42.2" y="-174.4" type="curve"/>
      <point x="-42.2" y="-411.8" type="line"/>
      <point x="1.2000000000000002" y="-419.0"/>
      <point x="57.0" y="-419.0"/>
      <point x="84.8" y="-419.0" type="curve" smooth="yes"/>
      <point x="301.0" y="-419.0"/>
      <point x="490.0" y="-356.6"/>
      <point x="490.0" y="-68.6" type="curve" smooth="yes"/>
      <point x="490.0" y="0.0" type="line"/>
    </contour>
    <component base="F" xOffset="45.6"/>
  </outline>
</glyph>
<glyph name="florin" format="2">
  <advance height="2479.0" width="960.2"/>
  <unicode hex="0192"/>
  <outline>
    <contour>
      <point x="822.0" y="1082.0" type="line"/>
      <point x="604.6" y="1082.0" type="line"/>
      <point x="604.6" y="1173.8" type="line" smooth="yes"/>
      <point x="605.8" y="1265.2"/>
      <point x="661.4" y="1311.8"/>
      <point x="754.0" y="1311.8" type="curve" smooth="yes"/>
      <point x="802.2" y="1311.8"/>
      <point x="828.2" y="1307.6"/>
      <point x="854.6" y="1301.6" type="curve"/>
      <point x="884.4" y="1535.4" type="line"/>
      <point x="835.0" y="1546.8"/>
      <point x="774.4" y="1556.0"/>
      <point x="711.0" y="1556.0" type="curve" smooth="yes"/>
      <point x="459.8" y="1556.0"/>
      <point x="304.2" y="1423.2"/>
      <point x="303.6" y="1173.8" type="curve" smooth="yes"/>
      <point x="303.6" y="1082.0" type="line"/>
      <point x="135.6" y="1082.0" type="line"/>
      <point x="135.6" y="862.6" type="line"/>
      <point x="303.6" y="862.6" type="line"/>
      <point x="303.6" y="-25.6" type="line" smooth="yes"/>
      <point x="303.6" y="-117.60000000000001"/>
      <point x="278.0" y="-175.0"/>
      <point x="186.2" y="-175.0" type="curve" smooth="yes"/>
      <point x="161.0" y="-175.0"/>
      <point x="113.8" y="-170.2"/>
      <point x="90.8" y="-163.60000000000002" type="curve"/>
      <point x="76.4" y="-404.0" type="line"/>
      <point x="130.6" y="-416.0"/>
      <point x="175.8" y="-419.0"/>
      <point x="226.39999999999998" y="-419.0" type="curve" smooth="yes"/>
      <point x="465.4" y="-419.0"/>
      <point x="604.6" y="-281.4"/>
      <point x="604.6" y="-25.6" type="curve" smooth="yes"/>
      <point x="604.6" y="862.6" type="line"/>
      <point x="822.0" y="862.6" type="line"/>
    </contour>
  </outline>
</glyph>
<glyph name="Ghook" format="2">
  <advance height="2479.0" width="1708.4"/>
  <unicode hex="0193"/>
  <anchor x="790.2" y="3.5999999999999996" name="bottom"/>
  <anchor x="793.2" y="1676.0" name="top"/>
  <outline>
    <contour>
      <point x="1436.0" y="1008.4" type="line"/>
      <point x="1436.0" y="1235.0" type="line" smooth="yes"/>
      <point x="1436.0" y="1356.4"/>
      <point x="1527.0" y="1381.2"/>
      <point x="1628.4" y="1381.2" type="curve" smooth="yes"/>
      <point x="1657.4" y="1381.2"/>
      <point x="1686.4" y="1376.4"/>
      <point x="1715.2" y="1373.8" type="curve"/>
      <point x="1715.2" y="1620.2" type="line"/>
      <point x="1664.6" y="1632.8"/>
      <point x="1618.2" y="1638.2"/>
      <point x="1569.4" y="1638.2" type="curve" smooth="yes"/>
      <point x="1325.2" y="1638.2"/>
      <point x="1119.4" y="1495.4"/>
      <point x="1116.4" y="1235.0" type="curve" smooth="yes"/>
      <point x="1115.0" y="1008.4" type="line"/>
    </contour>
    <component base="G"/>
  </outline>
</glyph>
<glyph name="Gamma-latin" format="2">
  <advance height="2479.0" width="1525.4"/>
  <unicode hex="0194"/>
  <outline>
    <contour>
      <point x="67.4" y="1489.0" type="line"/>
      <point x="728.6" y="146.6" type="line" smooth="yes"/>
      <point x="786.8" y="23.0"/>
      <point x="821.8" y="-77.6"/>
      <point x="821.8" y="-148.8" type="curve" smooth="yes"/>
      <point x="821.8" y="-195.4"/>
      <point x="800.6" y="-223.2"/>
      <point x="763.0" y="-223.2" type="curve" smooth="yes"/>
      <point x="724.4" y="-223.2"/>
      <point x="703.6" y="-196.0"/>
      <point x="703.6" y="-150.0" type="curve" smooth="yes"/>
      <point x="703.6" y="-78.80000000000001"/>
      <point x="740.6" y="22.39999999999999"/>
      <point x="799.8" y="146.6" type="curve" smooth="yes"/>
      <point x="1458.2" y="1489.0" type="line"/>
      <point x="1098.8" y="1489.0" type="line"/>
      <point x="667.8" y="525.6" type="line" smooth="yes"/>
      <point x="442.0" y="33.599999999999994"/>
      <point x="390.6" y="-72.6"/>
      <point x="390.6" y="-163.2" type="curve" smooth="yes"/>
      <point x="390.6" y="-338.2"/>
      <point x="539.4" y="-442.0"/>
      <point x="763.0" y="-442.0" type="curve" smooth="yes"/>
      <point x="983.0" y="-442.0"/>
      <point x="1125.4" y="-331.0"/>
      <point x="1125.4" y="-169.8" type="curve" smooth="yes"/>
      <point x="1125.4" y="-58.800000000000004"/>
      <point x="1030.6" y="153.0"/>
      <point x="858.4" y="525.0" type="curve" smooth="yes"/>
      <point x="424.4" y="1489.0" type="line"/>
    </contour>
  </outline>
</glyph>
<glyph name="hv" format="2">
  <advance height="2479.0" width="2012.0"/>
  <unicode hex="0195"/>
  <outline>
    <contour>
      <point x="124.0" y="0.0" type="line"/>
      <point x="433.4" y="0.0" type="line"/>
      <point x="433.4" y="645.6" type="line" smooth="yes"/>
      <point x="434.0" y="790.2"/>
      <point x="522.0" y="874.4"/>
      <point x="648.8" y="874.4" type="curve" smooth="yes"/>
      <point x="775.0" y="874.4"/>
      <point x="848.0" y="793.8"/>
      <point x="848.0" y="656.0" type="curve" smooth="yes"/>
      <point x="848.0" y="559.0" type="line"/>
      <point x="1158.0" y="559.0" type="line"/>
      <point x="1158.0" y="711.8" type="line" smooth="yes"/>
      <point x="1158.0" y="973.0"/>
      <point x="1004.4" y="1132.0"/>
      <point x="771.6" y="1132.0" type="curve" smooth="yes"/>
      <point x="602.2" y="1132.0"/>
      <point x="489.0" y="1051.4"/>
      <point x="437.2" y="920.2" type="curve"/>
      <point x="425.0" y="920.2" type="line"/>
      <point x="425.0" y="1489.0" type="line"/>
      <point x="124.0" y="1489.0" type="line"/>
    </contour>
    <contour>
      <point x="1299.0" y="-20.0" type="curve" smooth="yes"/>
      <point x="1701.0" y="-20.0"/>
      <point x="1888.6" y="310.2"/>
      <point x="1888.6" y="993.6" type="curve" smooth="yes"/>
      <point x="1888.6" y="1117.0" type="line"/>
      <point x="1579.0" y="1117.0" type="line"/>
      <point x="1579.0" y="993.6" type="line" smooth="yes"/>
      <point x="1579.0" y="483.0"/>
      <point x="1483.6" y="235.39999999999998"/>
      <point x="1310.6" y="235.39999999999998" type="curve" smooth="yes"/>
      <point x="1234.2" y="235.39999999999998"/>
      <point x="1158.0" y="283.8"/>
      <point x="1158.0" y="435.4" type="curve" smooth="yes"/>
      <point x="1158.0" y="559.0" type="line"/>
      <point x="848.0" y="559.0" type="line"/>
      <point x="848.0" y="435.4" type="line" smooth="yes"/>
      <point x="848.0" y="146.4"/>
      <point x="1013.4" y="-20.0"/>
    </contour>
  </outline>
</glyph>
<glyph name="Khook" format="2">
  <advance height="2479.0" width="1493.0"/>
  <unicode hex="0198"/>
  <outline>
    <contour>
      <point x="129.6" y="0.0" type="line"/>
      <point x="444.4" y="0.0" type="line"/>
      <point x="444.4" y="383.4" type="line"/>
      <point x="627.4" y="578.6" type="line"/>
      <point x="1065.0" y="0.0" type="line"/>
      <point x="1442.0" y="0.0" type="line"/>
      <point x="826.8" y="801.4" type="line"/>
      <point x="1178.0" y="1167.8" type="line" smooth="yes"/>
      <point x="1245.4" y="1237.0"/>
      <point x="1297.0" y="1261.2"/>
      <point x="1378.4" y="1218.4" type="curve"/>
      <point x="1479.0" y="1441.2" type="line"/>
      <point x="1291.8" y="1551.6"/>
      <point x="1106.0" y="1524.6"/>
      <point x="953.4" y="1365.4" type="curve" smooth="yes"/>
      <point x="463.8" y="848.2" type="line"/>
      <point x="444.4" y="848.2" type="line"/>
      <point x="444.4" y="1489.0" type="line"/>
      <point x="129.6" y="1489.0" type="line"/>
    </contour>
  </outline>
</glyph>
<glyph name="khook" format="2">
  <advance height="2479.0" width="1181.6"/>
  <unicode hex="0199"/>
  <outline>
    <contour>
      <point x="835.8" y="0.0" type="line"/>
      <point x="1175.4" y="0.0" type="line"/>
      <point x="727.8" y="640.0" type="line"/>
      <point x="1149.4" y="1117.0" type="line"/>
      <point x="788.6" y="1117.0" type="line"/>
      <point x="448.0" y="725.6" type="line"/>
      <point x="433.4" y="725.6" type="line"/>
      <point x="433.4" y="1085.4" type="line"/>
      <point x="124.0" y="1085.4" type="line"/>
      <point x="124.0" y="0.0" type="line"/>
      <point x="433.4" y="0.0" type="line"/>
      <point x="433.4" y="301.2" type="line"/>
      <point x="541.0" y="419.0" type="line"/>
    </contour>
    <contour>
      <point x="433.4" y="973.8" type="line"/>
      <point x="433.4" y="1159.6" type="line" smooth="yes"/>
      <point x="434.0" y="1246.6"/>
      <point x="510.6" y="1268.6"/>
      <point x="589.8" y="1268.6" type="curve" smooth="yes"/>
      <point x="615.2" y="1268.6"/>
      <point x="640.6" y="1266.0"/>
      <point x="665.8" y="1263.0" type="curve"/>
      <point x="665.8" y="1499.2" type="line"/>
      <point x="627.8" y="1504.6"/>
      <point x="572.4" y="1510.0"/>
      <point x="507.4" y="1510.0" type="curve" smooth="yes"/>
      <point x="318.6" y="1510.0"/>
      <point x="124.6" y="1447.6"/>
      <point x="124.0" y="1159.6" type="curve" smooth="yes"/>
      <point x="124.0" y="973.8" type="line"/>
    </contour>
  </outline>
</glyph>
<glyph name="lambdastroke" format="2">
  <advance height="2479.0" width="1244.0"/>
  <unicode hex="019B"/>
  <outline>
    <contour>
      <point x="210.6" y="960.6" type="line"/>
      <point x="840.6" y="1165.8" type="line"/>
      <point x="840.6" y="1362.4" type="line"/>
      <point x="210.6" y="1159.0" type="line"/>
    </contour>
    <component base="lambda"/>
  </outline>
</glyph>
<glyph name="Mturned" format="2">
  <advance height="2479.0" width="1931.0"/>
  <unicode hex="019C"/>
  <outline>
    <contour>
      <point x="511.6" y="-22.4" type="curve" smooth="yes"/>
      <point x="817.0" y="-22.4"/>
      <point x="949.2" y="198.6"/>
      <point x="949.2" y="506.0" type="curve"/>
      <point x="849.6" y="503.0" type="line"/>
      <point x="849.6" y="344.4"/>
      <point x="786.0" y="224.8"/>
      <point x="626.4" y="224.8" type="curve" smooth="yes"/>
      <point x="516.0" y="224.8"/>
      <point x="444.4" y="282.6"/>
      <point x="444.4" y="424.6" type="curve" smooth="yes"/>
      <point x="444.4" y="1489.0" type="line"/>
      <point x="129.6" y="1489.0" type="line"/>
      <point x="129.6" y="424.6" type="line" smooth="yes"/>
      <point x="129.6" y="99.6"/>
      <point x="284.0" y="-22.4"/>
    </contour>
    <contour>
      <point x="1190.6" y="-22.4" type="curve" smooth="yes"/>
      <point x="1483.6" y="-22.4"/>
      <point x="1618.6" y="204.0"/>
      <point x="1618.6" y="506.0" type="curve"/>
      <point x="1522.0" y="503.0" type="line"/>
      <point x="1522.0" y="346.2"/>
      <point x="1459.8" y="224.8"/>
      <point x="1299.6" y="224.8" type="curve" smooth="yes"/>
      <point x="1189.6" y="224.8"/>
      <point x="1118.2" y="282.6"/>
      <point x="1118.2" y="424.6" type="curve"/>
      <point x="1118.2" y="1489.0" type="line"/>
      <point x="803.2" y="1489.0" type="line"/>
      <point x="803.2" y="424.6" type="line"/>
      <point x="803.2" y="96.6"/>
      <point x="978.2" y="-22.4"/>
    </contour>
    <contour>
      <point x="1486.0" y="0.0" type="line"/>
      <point x="1801.0" y="0.0" type="line"/>
      <point x="1801.0" y="1489.0" type="line"/>
      <point x="1486.0" y="1489.0" type="line"/>
    </contour>
  </outline>
</glyph>
<glyph name="Nhookleft" format="2">
  <advance height="2479.0" width="1540.2"/>
  <unicode hex="019D"/>
  <anchor x="788.4" y="0.0" name="bottom"/>
  <anchor x="1451.4" y="0.0" name="right"/>
  <anchor x="788.4" y="1676.0" name="top"/>
  <outline>
    <contour>
      <point x="164.4" y="0.0" type="line"/>
      <point x="164.4" y="-67.4" type="line" smooth="yes"/>
      <point x="164.4" y="-154.4"/>
      <point x="91.4" y="-176.8"/>
      <point x="9.8" y="-176.8" type="curve" smooth="yes"/>
      <point x="-7.800000000000001" y="-176.8"/>
      <point x="-33.599999999999994" y="-177.4"/>
      <point x="-52.4" y="-174.4" type="curve"/>
      <point x="-52.4" y="-411.8" type="line"/>
      <point x="-16.8" y="-419.0"/>
      <point x="54.2" y="-419.0"/>
      <point x="92.2" y="-419.0" type="curve" smooth="yes"/>
      <point x="284.0" y="-419.0"/>
      <point x="479.4" y="-356.6"/>
      <point x="479.4" y="-68.6" type="curve" smooth="yes"/>
      <point x="479.4" y="0.0" type="line"/>
    </contour>
    <component base="N" xOffset="34.8"/>
  </outline>
</glyph>
<glyph name="Ohorn" format="2">
  <advance height="2479.0" width="1665.4"/>
  <unicode hex="01A0"/>
  <anchor x="801.0" y="0.0" name="bottom"/>
  <anchor x="981.4" y="1.1999999999999993" name="ogonek"/>
  <anchor x="182.4" y="1489.0" name="tonos"/>
  <anchor x="801.0" y="1676.0" name="top"/>
  <outline>
    <contour>
      <point x="1440.8" y="1562.2" type="line"/>
      <point x="1440.8" y="1381.2"/>
      <point x="1396.6" y="1275.0"/>
      <point x="1255.8" y="1275.0" type="curve"/>
      <point x="1255.8" y="1115.6" type="line"/>
      <point x="1521.0" y="1115.6"/>
      <point x="1640.0" y="1279.2"/>
      <point x="1640.0" y="1562.2" type="curve"/>
    </contour>
    <component base="O"/>
  </outline>
</glyph>
<glyph name="ohorn" format="2">
  <advance height="2479.0" width="1294.6"/>
  <unicode hex="01A1"/>
  <anchor x="628.4" y="0.0" name="bottom"/>
  <anchor x="779.2" y="0.0" name="ogonek"/>
  <anchor x="628.4" y="1303.0" name="top"/>
  <outline>
    <contour>
      <point x="1110.0" y="1181.8" type="line"/>
      <point x="1110.0" y="1017.0"/>
      <point x="1077.6" y="915.6"/>
      <point x="923.6" y="915.6" type="curve"/>
      <point x="923.6" y="791.8" type="line"/>
      <point x="1183.8" y="791.8"/>
      <point x="1294.6" y="936.8"/>
      <point x="1294.6" y="1181.8" type="curve"/>
    </contour>
    <component base="o"/>
  </outline>
</glyph>
<glyph name="Oi" format="2">
  <advance height="2479.0" width="1913.6"/>
  <unicode hex="01A2"/>
  <outline>
    <contour>
      <point x="1325.4" y="883.2" type="line" name="hr00"/>
      <point x="1019.4" y="883.2" type="line"/>
      <point x="1019.4" y="304.0" type="line"/>
      <point x="971.8" y="262.2"/>
      <point x="886.6" y="232.6"/>
      <point x="782.4" y="232.6" type="curve" smooth="yes"/>
      <point x="523.6" y="232.6"/>
      <point x="425.0" y="407.4"/>
      <point x="425.0" y="684.6" type="curve" smooth="yes"/>
      <point x="425.0" y="788.6" type="line"/>
      <point x="102.8" y="785.6" type="line"/>
      <point x="102.8" y="684.6" type="line" smooth="yes"/>
      <point x="102.8" y="244.2"/>
      <point x="349.4" y="-20.0"/>
      <point x="770.2" y="-20.0" type="curve" smooth="yes"/>
      <point x="1034.6" y="-20.0"/>
      <point x="1240.6" y="81.6"/>
      <point x="1325.4" y="185.4" type="curve"/>
    </contour>
    <contour>
      <point x="1325.4" y="1304.0" type="line"/>
      <point x="1242.2" y="1407.2"/>
      <point x="1039.6" y="1510.0"/>
      <point x="777.0" y="1510.0" type="curve" smooth="yes"/>
      <point x="352.6" y="1510.0"/>
      <point x="102.8" y="1250.2"/>
      <point x="102.8" y="804.8" type="curve" smooth="yes"/>
      <point x="102.8" y="696.8" type="line"/>
      <point x="425.0" y="695.0" type="line"/>
      <point x="425.0" y="804.8" type="line" smooth="yes"/>
      <point x="425.0" y="1095.4"/>
      <point x="518.0" y="1255.8"/>
      <point x="785.4" y="1255.8" type="curve" smooth="yes"/>
      <point x="877.8" y="1255.8"/>
      <point x="968.2" y="1232.6"/>
      <point x="1019.4" y="1185.6" type="curve"/>
      <point x="1019.4" y="614.2" type="line"/>
      <point x="1325.4" y="617.8" type="line"/>
    </contour>
    <contour>
      <point x="1783.6" y="1489.0" type="line"/>
      <point x="1554.6" y="1489.0" type="line"/>
      <point x="1160.4" y="1309.4" type="line"/>
      <point x="1160.4" y="982.0" type="line"/>
      <point x="1480.4" y="1125.8" type="line"/>
      <point x="1480.4" y="-419.0" type="line"/>
      <point x="1783.6" y="-419.0" type="line"/>
    </contour>
  </outline>
</glyph>
<glyph name="oi" format="2">
  <advance height="2479.0" width="1559.0"/>
  <unicode hex="01A3"/>
  <outline>
    <contour>
      <point x="589.2" y="221.6" type="curve" smooth="yes"/>
      <point x="426.2" y="221.6"/>
      <point x="370.6" y="361.2"/>
      <point x="371.2" y="527.6" type="curve" smooth="yes"/>
      <point x="371.2" y="554.4" type="line" smooth="yes"/>
      <point x="371.2" y="735.6"/>
      <point x="413.2" y="890.0"/>
      <point x="583.2" y="890.0" type="curve" smooth="yes"/>
      <point x="648.4" y="890.0"/>
      <point x="690.8" y="867.0"/>
      <point x="722.2" y="829.0" type="curve"/>
      <point x="722.2" y="585.8" type="line"/>
      <point x="1027.6" y="564.8" type="line"/>
      <point x="1027.6" y="884.6" type="line"/>
      <point x="965.4" y="995.0"/>
      <point x="812.8" y="1132.0"/>
      <point x="594.0" y="1132.0" type="curve" smooth="yes"/>
      <point x="247.6" y="1132.0"/>
      <point x="78.6" y="891.0"/>
      <point x="78.6" y="554.4" type="curve" smooth="yes"/>
      <point x="78.6" y="527.6" type="line" smooth="yes"/>
      <point x="78.0" y="218.6"/>
      <point x="250.0" y="-20.0"/>
      <point x="590.4" y="-20.0" type="curve" smooth="yes"/>
      <point x="829.6" y="-20.0"/>
      <point x="952.2" y="80.6"/>
      <point x="1027.6" y="203.0" type="curve"/>
      <point x="1027.6" y="629.8" type="line"/>
      <point x="722.2" y="629.8" type="line"/>
      <point x="722.2" y="270.6" type="line"/>
      <point x="691.4" y="241.0"/>
      <point x="647.8" y="221.6"/>
    </contour>
    <contour>
      <point x="1438.2" y="1117.0" type="line"/>
      <point x="1229.0" y="1117.0" type="line"/>
      <point x="893.2" y="971.0" type="line"/>
      <point x="893.2" y="679.6" type="line"/>
      <point x="1139.4" y="779.4" type="line"/>
      <point x="1139.4" y="-416.2" type="line"/>
      <point x="1438.2" y="-419.0" type="line"/>
    </contour>
  </outline>
</glyph>
<glyph name="Phook" format="2">
  <advance height="2479.0" width="1747.8"/>
  <unicode hex="01A4"/>
  <anchor x="525.0" y="1489.0" name="tonos"/>
  <anchor x="1075.2" y="1676.0" name="top"/>
  <outline>
    <contour>
      <point x="353.2" y="959.6" type="line"/>
      <point x="353.2" y="1045.8" type="line" smooth="yes"/>
      <point x="352.6" y="1135.8"/>
      <point x="379.2" y="1231.8"/>
      <point x="499.8" y="1231.8" type="curve" smooth="yes"/>
      <point x="715.6" y="1231.8" type="line"/>
      <point x="715.6" y="1489.0" type="line"/>
      <point x="498.6" y="1489.0" type="line" smooth="yes"/>
      <point x="234.6" y="1489.0"/>
      <point x="72.0" y="1339.8"/>
      <point x="72.6" y="1105.4" type="curve" smooth="yes"/>
      <point x="72.6" y="959.6" type="line"/>
    </contour>
    <component base="P" xOffset="421.4"/>
  </outline>
</glyph>
<glyph name="phook" format="2">
  <advance height="2479.0" width="1295.4"/>
  <unicode hex="01A5"/>
  <anchor x="279.4" y="-408.2" name="bottom"/>
  <anchor x="1327.2" y="-484.2" name="bottom0315"/>
  <anchor x="277.6" y="-163.0" name="cross"/>
  <anchor x="699.0" y="1303.0" name="top"/>
  <outline>
    <contour>
      <point x="429.2" y="1117.0" type="line"/>
      <point x="429.2" y="1175.6"/>
      <point x="468.2" y="1204.8"/>
      <point x="550.2" y="1203.6" type="curve" smooth="yes"/>
      <point x="590.2" y="1202.4"/>
      <point x="632.2" y="1193.8"/>
      <point x="649.0" y="1189.6" type="curve"/>
      <point x="649.0" y="1395.8" type="line"/>
      <point x="620.4" y="1403.2"/>
      <point x="563.8" y="1413.2"/>
      <point x="491.2" y="1413.2" type="curve" smooth="yes"/>
      <point x="239.8" y="1413.2"/>
      <point x="124.0" y="1326.6"/>
      <point x="124.0" y="1117.0" type="curve"/>
    </contour>
    <component base="p"/>
  </outline>
</glyph>
<glyph name="Yr" format="2">
  <advance height="2479.0" width="1512.4"/>
  <unicode hex="01A6"/>
  <outline>
    <contour>
      <point x="275.6" y="306.8" type="line"/>
      <point x="663.2" y="306.8" type="line" smooth="yes"/>
      <point x="1022.2" y="306.8"/>
      <point x="1219.4" y="498.8"/>
      <point x="1219.4" y="760.2" type="curve" smooth="yes"/>
      <point x="1219.4" y="1022.0"/>
      <point x="1022.2" y="1215.8"/>
      <point x="663.2" y="1215.8" type="curve" smooth="yes"/>
      <point x="275.6" y="1215.8" type="line"/>
      <point x="275.6" y="972.4" type="line"/>
      <point x="663.2" y="972.4" type="line" smooth="yes"/>
      <point x="842.0" y="972.4"/>
      <point x="918.4" y="874.0"/>
      <point x="918.4" y="757.6" type="curve" smooth="yes"/>
      <point x="918.4" y="643.2"/>
      <point x="842.0" y="549.0"/>
      <point x="663.2" y="549.0" type="curve" smooth="yes"/>
      <point x="275.6" y="549.0" type="line"/>
    </contour>
    <contour>
      <point x="1118.0" y="-419.0" type="line"/>
      <point x="1465.0" y="-419.0" type="line"/>
      <point x="1003.2" y="429.2" type="line"/>
      <point x="663.4" y="429.2" type="line"/>
    </contour>
    <contour>
      <point x="129.6" y="0.0" type="line"/>
      <point x="444.4" y="0.0" type="line"/>
      <point x="444.4" y="1489.0" type="line"/>
      <point x="129.6" y="1489.0" type="line"/>
    </contour>
  </outline>
</glyph>
<glyph name="Tonetwo" format="2">
  <advance height="2479.0" width="1340.8"/>
  <unicode hex="01A7"/>
  <anchor x="665.8" y="-10.4" name="bottom"/>
  <anchor x="667.6" y="0.0" name="cedilla"/>
  <anchor x="670.6" y="1676.0" name="top"/>
  <outline>
    <contour>
      <point x="403.4" y="1061.2" type="line"/>
      <point x="415.4" y="1178.2"/>
      <point x="507.0" y="1246.8"/>
      <point x="658.0" y="1246.8" type="curve" smooth="yes"/>
      <point x="812.2" y="1246.8"/>
      <point x="897.6" y="1176.0"/>
      <point x="898.2" y="1080.2" type="curve" smooth="yes"/>
      <point x="900.0" y="973.0"/>
      <point x="791.0" y="924.8"/>
      <point x="662.4" y="895.2" type="curve" smooth="yes"/>
      <point x="528.4" y="863.6" type="line" smooth="yes"/>
      <point x="269.4" y="804.6"/>
      <point x="82.4" y="673.2"/>
      <point x="81.2" y="425.0" type="curve" smooth="yes"/>
      <point x="82.4" y="152.2"/>
      <point x="296.0" y="-20.6"/>
      <point x="659.8" y="-20.6" type="curve" smooth="yes"/>
      <point x="1021.2" y="-20.6"/>
      <point x="1251.8" y="146.0"/>
      <point x="1259.6" y="468.0" type="curve"/>
      <point x="954.8" y="468.0" type="line"/>
      <point x="945.2" y="318.2"/>
      <point x="827.2" y="243.2"/>
      <point x="663.4" y="243.2" type="curve" smooth="yes"/>
      <point x="503.2" y="243.2"/>
      <point x="400.2" y="317.2"/>
      <point x="399.0" y="426.2" type="curve" smooth="yes"/>
      <point x="400.2" y="526.6"/>
      <point x="489.8" y="573.2"/>
      <point x="652.2" y="613.0" type="curve" smooth="yes"/>
      <point x="814.8" y="653.0" type="line" smooth="yes"/>
      <point x="1066.4" y="713.4"/>
      <point x="1221.0" y="839.0"/>
      <point x="1220.4" y="1059.2" type="curve" smooth="yes"/>
      <point x="1222.2" y="1329.0"/>
      <point x="982.0" y="1510.0"/>
      <point x="655.6" y="1510.0" type="curve" smooth="yes"/>
      <point x="323.8" y="1510.0"/>
      <point x="106.0" y="1326.4"/>
      <point x="102.2" y="1061.2" type="curve"/>
    </contour>
  </outline>
</glyph>
<glyph name="tonetwo" format="2">
  <advance height="2479.0" width="1150.8"/>
  <unicode hex="01A8"/>
  <outline>
    <contour>
      <point x="569.8" y="-21.2" type="curve" smooth="yes"/>
      <point x="866.0" y="-21.2"/>
      <point x="1047.2" y="110.4"/>
      <point x="1076.4" y="323.8" type="curve"/>
      <point x="771.8" y="339.8" type="line"/>
      <point x="753.4" y="248.6"/>
      <point x="679.8" y="201.2"/>
      <point x="569.2" y="201.2" type="curve" smooth="yes"/>
      <point x="460.8" y="201.2"/>
      <point x="388.2" y="248.4"/>
      <point x="387.6" y="315.0" type="curve" smooth="yes"/>
      <point x="388.2" y="371.0"/>
      <point x="432.8" y="406.0"/>
      <point x="530.8" y="426.4" type="curve" smooth="yes"/>
      <point x="723.4" y="464.6" type="line" smooth="yes"/>
      <point x="942.2" y="507.8"/>
      <point x="1047.4" y="617.2"/>
      <point x="1046.8" y="784.4" type="curve" smooth="yes"/>
      <point x="1047.4" y="999.8"/>
      <point x="859.2" y="1132.0"/>
      <point x="573.8" y="1132.0" type="curve" smooth="yes"/>
      <point x="291.6" y="1132.0"/>
      <point x="125.6" y="1004.0"/>
      <point x="97.4" y="798.6" type="curve"/>
      <point x="381.0" y="781.0" type="line"/>
      <point x="396.6" y="853.2"/>
      <point x="461.0" y="911.6"/>
      <point x="568.4" y="911.6" type="curve" smooth="yes"/>
      <point x="664.6" y="911.6"/>
      <point x="739.8" y="868.0"/>
      <point x="738.6" y="801.4" type="curve" smooth="yes"/>
      <point x="739.8" y="748.2"/>
      <point x="701.8" y="711.6"/>
      <point x="597.6" y="689.8" type="curve" smooth="yes"/>
      <point x="395.4" y="648.8" type="line" smooth="yes"/>
      <point x="178.0" y="604.6"/>
      <point x="73.2" y="507.8"/>
      <point x="72.0" y="345.8" type="curve" smooth="yes"/>
      <point x="73.2" y="125.6"/>
      <point x="280.2" y="-21.2"/>
    </contour>
  </outline>
</glyph>
<glyph name="eshreversedloop" format="2">
  <advance height="2479.0" width="1335.4"/>
  <unicode hex="01AA"/>
  <outline>
    <contour>
      <point x="665.0" y="991.6" type="line" name="hr00"/>
      <point x="665.0" y="-22.6" type="line" smooth="yes"/>
      <point x="665.0" y="-288.0"/>
      <point x="808.2" y="-432.8"/>
      <point x="1050.6" y="-432.8" type="curve" smooth="yes"/>
      <point x="1103.6" y="-432.8"/>
      <point x="1155.6" y="-428.6"/>
      <point x="1201.4" y="-417.2" type="curve"/>
      <point x="1201.4" y="-178.0" type="line"/>
      <point x="1166.4" y="-184.0"/>
      <point x="1138.2" y="-187.0"/>
      <point x="1111.0" y="-187.0" type="curve" smooth="yes"/>
      <point x="1021.6" y="-187.0"/>
      <point x="970.4" y="-135.0"/>
      <point x="970.4" y="-22.6" type="curve" smooth="yes"/>
      <point x="970.4" y="1147.6" type="line"/>
    </contour>
    <contour>
      <point x="134.0" y="1147.6" type="curve" smooth="yes"/>
      <point x="135.2" y="921.4"/>
      <point x="321.4" y="737.4"/>
      <point x="551.8" y="737.4" type="curve" smooth="yes"/>
      <point x="780.4" y="737.4"/>
      <point x="969.8" y="922.6"/>
      <point x="970.4" y="1147.6" type="curve" smooth="yes"/>
      <point x="971.0" y="1371.4"/>
      <point x="780.4" y="1556.8"/>
      <point x="551.8" y="1556.8" type="curve" smooth="yes"/>
      <point x="319.6" y="1556.8"/>
      <point x="133.4" y="1371.4"/>
    </contour>
    <contour>
      <point x="553.6" y="997.2" type="curve" smooth="yes"/>
      <point x="465.4" y="997.2"/>
      <point x="402.0" y="1048.0"/>
      <point x="402.6" y="1150.6" type="curve" smooth="yes"/>
      <point x="403.8" y="1248.4"/>
      <point x="465.4" y="1299.8"/>
      <point x="553.6" y="1299.8" type="curve" smooth="yes"/>
      <point x="631.6" y="1299.8"/>
      <point x="698.6" y="1250.2"/>
      <point x="699.2" y="1150.6" type="curve" smooth="yes"/>
      <point x="700.4" y="1048.0"/>
      <point x="633.4" y="997.2"/>
    </contour>
  </outline>
</glyph>
<glyph name="tpalatalhook" format="2">
  <advance height="2479.0" width="803.2"/>
  <unicode hex="01AB"/>
  <anchor x="444.8" y="0.0" name="bottom"/>
  <anchor x="542.0" y="0.0" name="cedilla"/>
  <anchor x="634.2" y="1562.0" name="raccent"/>
  <anchor x="353.0" y="1520.8" name="top"/>
  <outline>
    <contour>
      <point x="528.8" y="214.39999999999998" type="line"/>
      <point x="528.8" y="-68.6" type="line" smooth="yes"/>
      <point x="528.8" y="-180.2"/>
      <point x="432.8" y="-204.4"/>
      <point x="354.2" y="-204.4" type="curve" smooth="yes"/>
      <point x="322.4" y="-204.4"/>
      <point x="298.8" y="-201.4"/>
      <point x="275.4" y="-198.4" type="curve"/>
      <point x="275.4" y="-403.4" type="line"/>
      <point x="318.8" y="-413.6"/>
      <point x="358.6" y="-417.2"/>
      <point x="406.2" y="-417.2" type="curve" smooth="yes"/>
      <point x="612.4" y="-417.2"/>
      <point x="745.8" y="-291.8"/>
      <point x="745.8" y="-68.6" type="curve" smooth="yes"/>
      <point x="745.8" y="259.6" type="line"/>
    </contour>
    <component base="t"/>
  </outline>
</glyph>
<glyph name="Thook" format="2">
  <advance height="2479.0" width="1439.8"/>
  <unicode hex="01AC"/>
  <outline>
    <contour>
      <point x="754.6" y="1489.0" type="line"/>
      <point x="481.2" y="1489.0" type="line" smooth="yes"/>
      <point x="216.8" y="1489.0"/>
      <point x="72.6" y="1342.4"/>
      <point x="72.6" y="1104.8" type="curve" smooth="yes"/>
      <point x="72.6" y="961.6" type="line"/>
      <point x="333.4" y="961.6" type="line"/>
      <point x="333.4" y="1048.8" type="line" smooth="yes"/>
      <point x="333.4" y="1138.2"/>
      <point x="361.2" y="1230.0"/>
      <point x="481.2" y="1230.0" type="curve" smooth="yes"/>
      <point x="754.6" y="1230.0" type="line"/>
    </contour>
    <contour>
      <point x="1367.2" y="1489.0" type="line"/>
      <point x="536.0" y="1489.0" type="line"/>
      <point x="536.0" y="1230.0" type="line"/>
      <point x="599.8" y="1230.0" type="line"/>
      <point x="599.8" y="0.0" type="line"/>
      <point x="911.2" y="0.0" type="line"/>
      <point x="911.2" y="1230.0" type="line"/>
      <point x="1367.2" y="1230.0" type="line"/>
    </contour>
  </outline>
</glyph>
<glyph name="thook" format="2">
  <advance height="2479.0" width="812.8"/>
  <unicode hex="01AD"/>
  <outline>
    <contour>
      <point x="569.8" y="-15.6" type="curve" smooth="yes"/>
      <point x="650.0" y="-12.6"/>
      <point x="707.2" y="3.5999999999999996"/>
      <point x="738.0" y="13.8" type="curve"/>
      <point x="689.2" y="244.6" type="line"/>
      <point x="674.6" y="241.0"/>
      <point x="642.0" y="233.8"/>
      <point x="612.4" y="233.8" type="curve" smooth="yes"/>
      <point x="550.2" y="233.8"/>
      <point x="507.2" y="257.8"/>
      <point x="507.2" y="343.4" type="curve" smooth="yes"/>
      <point x="507.2" y="1141.2" type="line"/>
      <point x="198.2" y="1141.2" type="line"/>
      <point x="198.2" y="301.8" type="line" smooth="yes"/>
      <point x="196.4" y="83.8"/>
      <point x="345.6" y="-24.6"/>
    </contour>
    <contour>
      <point x="44.8" y="884.4" type="line"/>
      <point x="718.0" y="884.4" type="line"/>
      <point x="718.0" y="1117.0" type="line"/>
      <point x="44.8" y="1117.0" type="line"/>
    </contour>
    <contour>
      <point x="198.2" y="973.8" type="line"/>
      <point x="507.2" y="973.8" type="line"/>
      <point x="507.2" y="1159.6" type="line" smooth="yes"/>
      <point x="507.2" y="1246.6"/>
      <point x="584.4" y="1268.6"/>
      <point x="663.0" y="1268.6" type="curve" smooth="yes"/>
      <point x="689.4" y="1268.6"/>
      <point x="714.8" y="1266.0"/>
      <point x="739.4" y="1263.0" type="curve"/>
      <point x="739.4" y="1499.2" type="line"/>
      <point x="701.6" y="1504.6"/>
      <point x="646.6" y="1510.0"/>
      <point x="581.6" y="1510.0" type="curve" smooth="yes"/>
      <point x="392.8" y="1510.0"/>
      <point x="198.2" y="1447.6"/>
      <point x="198.2" y="1159.6" type="curve" smooth="yes"/>
    </contour>
  </outline>
</glyph>
<glyph name="Tretroflexhook" format="2">
  <advance height="2479.0" width="1369.0"/>
  <unicode hex="01AE"/>
  <anchor x="683.4" y="0.0" name="bottom"/>
  <anchor x="689.4" y="0.0" name="cedilla"/>
  <anchor x="683.4" y="706.8" name="cross"/>
  <anchor x="977.2" y="123.4" name="cyrtic"/>
  <anchor x="792.2" y="0.0" name="right"/>
  <anchor x="685.2" y="1676.0" name="top"/>
  <outline>
    <contour>
      <point x="840.4" y="0.0" type="line"/>
      <point x="528.6" y="0.0" type="line"/>
      <point x="528.6" y="-68.0" type="line" smooth="yes"/>
      <point x="528.6" y="-356.0"/>
      <point x="723.8" y="-419.0"/>
      <point x="917.4" y="-419.0" type="curve"/>
      <point x="1061.0" y="-419.0" type="line"/>
      <point x="1061.0" y="-175.0" type="line"/>
      <point x="998.8" y="-175.0" type="line"/>
      <point x="919.0" y="-175.0"/>
      <point x="840.4" y="-155.60000000000002"/>
      <point x="840.4" y="-68.6" type="curve" smooth="yes"/>
    </contour>
    <component base="T"/>
  </outline>
</glyph>
<glyph name="Uhorn" format="2">
  <advance height="2479.0" width="1782.2"/>
  <unicode hex="01AF"/>
  <anchor x="747.0" y="-2.6000000000000014" name="bottom"/>
  <anchor x="936.8" y="6.0" name="ogonek"/>
  <anchor x="857.8" y="0.0" name="right"/>
  <anchor x="747.0" y="1676.0" name="top"/>
  <outline>
    <contour>
      <point x="1509.4" y="1543.4" type="line"/>
      <point x="1509.4" y="1351.4"/>
      <point x="1489.2" y="1235.0"/>
      <point x="1266.0" y="1235.0" type="curve"/>
      <point x="1266.0" y="1071.6" type="line"/>
      <point x="1607.6" y="1071.6"/>
      <point x="1709.6" y="1245.8"/>
      <point x="1709.6" y="1543.4" type="curve"/>
    </contour>
    <component base="U"/>
  </outline>
</glyph>
<glyph name="uhorn" format="2">
  <advance height="2479.0" width="1452.2"/>
  <unicode hex="01B0"/>
  <anchor x="690.8" y="0.0" name="bottom"/>
  <anchor x="1157.2" y="0.0" name="ogonek"/>
  <anchor x="645.2" y="1303.0" name="top"/>
  <outline>
    <contour>
      <point x="1305.0" y="1179.0" type="line"/>
      <point x="1304.4" y="1013.2"/>
      <point x="1282.2" y="933.6"/>
      <point x="1079.6" y="933.6" type="curve"/>
      <point x="1079.6" y="795.4" type="line"/>
      <point x="1386.0" y="795.4"/>
      <point x="1483.6" y="925.8"/>
      <point x="1484.2" y="1179.0" type="curve"/>
    </contour>
    <component base="u" xOffset="7.199999999999999"/>
  </outline>
</glyph>
<glyph name="Upsilon-latin" format="2">
  <advance height="2479.0" width="1593.8"/>
  <unicode hex="01B1"/>
  <outline>
    <contour>
      <point x="92.6" y="681.2" type="curve" smooth="yes"/>
      <point x="92.6" y="270.6"/>
      <point x="385.2" y="-20.0"/>
      <point x="797.4" y="-20.0" type="curve" smooth="yes"/>
      <point x="1209.0" y="-20.0"/>
      <point x="1501.8" y="270.6"/>
      <point x="1501.8" y="681.2" type="curve" smooth="yes"/>
      <point x="1501.8" y="930.2"/>
      <point x="1394.8" y="1110.2"/>
      <point x="1223.8" y="1218.4" type="curve"/>
      <point x="1223.8" y="1230.0" type="line"/>
      <point x="1501.8" y="1230.0" type="line"/>
      <point x="1501.8" y="1489.0" type="line"/>
      <point x="911.0" y="1489.0" type="line"/>
      <point x="911.0" y="1163.6" type="line"/>
      <point x="1068.2" y="1099.6"/>
      <point x="1184.4" y="921.8"/>
      <point x="1184.4" y="705.8" type="curve" smooth="yes"/>
      <point x="1184.4" y="450.6"/>
      <point x="1023.6" y="260.2"/>
      <point x="797.4" y="260.2" type="curve" smooth="yes"/>
      <point x="570.8" y="260.2"/>
      <point x="410.4" y="450.6"/>
      <point x="410.4" y="705.8" type="curve" smooth="yes"/>
      <point x="410.4" y="921.8"/>
      <point x="526.0" y="1099.6"/>
      <point x="683.2" y="1163.6" type="curve"/>
      <point x="683.2" y="1489.0" type="line"/>
      <point x="92.6" y="1489.0" type="line"/>
      <point x="92.6" y="1230.0" type="line"/>
      <point x="370.6" y="1230.0" type="line"/>
      <point x="370.6" y="1218.4" type="line"/>
      <point x="199.6" y="1109.0"/>
      <point x="92.6" y="930.2"/>
    </contour>
  </outline>
</glyph>
<glyph name="Vhook" format="2">
  <advance height="2479.0" width="1532.8"/>
  <unicode hex="01B2"/>
  <outline>
    <contour>
      <point x="725.4" y="-23.0" type="curve"/>
      <point x="1150.2" y="-23.4"/>
      <point x="1402.4" y="322.2"/>
      <point x="1402.8" y="817.2" type="curve" smooth="yes"/>
      <point x="1402.8" y="1246.6"/>
      <point x="1212.6" y="1507.6"/>
      <point x="949.0" y="1507.6" type="curve" smooth="yes"/>
      <point x="877.2" y="1507.6"/>
      <point x="794.2" y="1487.8"/>
      <point x="714.6" y="1458.0" type="curve"/>
      <point x="744.4" y="1204.8" type="line"/>
      <point x="783.2" y="1225.4"/>
      <point x="829.8" y="1233.0"/>
      <point x="857.4" y="1233.0" type="curve" smooth="yes"/>
      <point x="987.6" y="1233.0"/>
      <point x="1082.6" y="1072.2"/>
      <point x="1084.4" y="796.2" type="curve" smooth="yes"/>
      <point x="1085.0" y="481.4"/>
      <point x="960.2" y="256.2"/>
      <point x="733.4" y="255.39999999999998" type="curve" smooth="yes"/>
      <point x="567.6" y="255.39999999999998"/>
      <point x="444.4" y="375.4"/>
      <point x="444.4" y="549.2" type="curve" smooth="yes"/>
      <point x="444.4" y="1489.0" type="line"/>
      <point x="129.6" y="1489.0" type="line"/>
      <point x="129.6" y="522.2" type="line" smooth="yes"/>
      <point x="129.6" y="190.6"/>
      <point x="375.8" y="-23.0"/>
    </contour>
  </outline>
</glyph>
<glyph name="Yhook" format="2">
  <advance height="2479.0" width="1617.0"/>
  <unicode hex="01B3"/>
  <outline>
    <contour>
      <point x="771.0" y="813.0" type="line"/>
      <point x="806.0" y="813.0" type="line"/>
      <point x="806.0" y="848.0" type="line"/>
      <point x="771.0" y="848.0" type="line"/>
    </contour>
    <contour>
      <point x="53.2" y="1489.0" type="line"/>
      <point x="631.4" y="575.6" type="line"/>
      <point x="631.4" y="0.0" type="line"/>
      <point x="945.0" y="0.0" type="line"/>
      <point x="945.0" y="575.6" type="line"/>
      <point x="1311.8" y="1154.6" type="line" smooth="yes"/>
      <point x="1369.6" y="1244.8"/>
      <point x="1420.4" y="1266.8"/>
      <point x="1519.2" y="1236.0" type="curve"/>
      <point x="1586.8" y="1472.6" type="line"/>
      <point x="1403.4" y="1543.2"/>
      <point x="1196.8" y="1513.2"/>
      <point x="1071.4" y="1304.4" type="curve" smooth="yes"/>
      <point x="788.4" y="834.0" type="line"/>
      <point x="396.4" y="1489.0" type="line"/>
    </contour>
  </outline>
</glyph>
